<svg width="330" height="330" viewBox="0 0 330 330" fill="none" xmlns="http://www.w3.org/2000/svg">
<path d="M165 0L177.295 103.187L228.143 12.5599L200.014 112.597L281.673 48.3274L217.403 129.986L317.44 101.857L226.813 152.705L330 165L226.813 177.295L317.44 228.143L217.403 200.014L281.673 281.673L200.014 217.403L228.143 317.44L177.295 226.813L165 330L152.705 226.813L101.857 317.44L129.986 217.403L48.3274 281.673L112.597 200.014L12.5599 228.143L103.187 177.295L0 165L103.187 152.705L12.5599 101.857L112.597 129.986L48.3274 48.3274L129.986 112.597L101.857 12.5599L152.705 103.187L165 0Z" fill="#C4EF17"/>
</svg>
