<svg width="70" height="70" viewBox="0 0 70 70" fill="none" xmlns="http://www.w3.org/2000/svg">
<path d="M52.5561 12.2569C56.6624 12.2614 60.5992 13.8946 63.5028 16.7982C66.4064 19.7017 68.0396 23.6386 68.0441 27.7448C68.0441 27.7704 68.0441 27.7969 68.0441 27.8224C68.0441 27.8735 68.0507 27.9501 68.0564 28.0513C68.3742 33.6759 67.4548 48.8621 52.0898 68.3212C51.9514 68.496 51.7557 68.6162 51.5373 68.6608C51.3189 68.7054 51.0918 68.6714 50.896 68.5649C50.7002 68.4583 50.5483 68.286 50.4671 68.0784C50.386 67.8708 50.3807 67.6412 50.4523 67.4301C50.4958 67.3015 54.6949 54.7232 51.8258 43.2139C47.7848 43.0243 43.9784 41.261 41.2205 38.3013C38.4627 35.3415 36.9723 31.4202 37.0682 27.3758C37.1641 23.3315 38.8386 19.4852 41.7336 16.6594C44.6287 13.8337 48.5144 12.2529 52.5599 12.255L52.5561 12.2569ZM66.1522 27.6909C66.1417 25.0041 65.3354 22.3807 63.8351 20.1518C62.3348 17.9229 60.2078 16.1885 57.7225 15.1676C55.2372 14.1467 52.5052 13.885 49.8713 14.4155C47.2374 14.9461 44.8198 16.2452 42.9237 18.1487C41.0275 20.0523 39.7379 22.4749 39.2175 25.1108C38.6972 27.7468 38.9695 30.4778 40.0001 32.959C41.0307 35.4403 42.7734 37.5606 45.0081 39.0522C47.2428 40.5439 49.8693 41.34 52.5561 41.34C52.7633 41.34 52.9647 41.4081 53.1294 41.5337C53.2941 41.6593 53.4131 41.8355 53.468 42.0352C55.6437 49.9528 54.5766 58.2582 53.4954 63.2982C65.683 46.2258 66.4483 33.1944 66.1635 28.1573C66.1507 28.0022 66.1469 27.8465 66.1522 27.6909Z" fill="#C4EF17"/>
<path d="M17.3798 12.2569C21.4861 12.2614 25.4229 13.8946 28.3265 16.7982C31.2301 19.7017 32.8633 23.6386 32.8678 27.7448C32.8678 27.7704 32.8678 27.7969 32.8678 27.8224C32.8678 27.8735 32.8744 27.9501 32.8801 28.0513C33.1979 33.6759 32.2785 48.8621 16.9135 68.3212C16.7751 68.496 16.5795 68.6162 16.361 68.6608C16.1426 68.7054 15.9155 68.6714 15.7197 68.5649C15.5239 68.4583 15.372 68.286 15.2909 68.0784C15.2097 67.8708 15.2044 67.6412 15.2761 67.4301C15.3196 67.3015 19.5186 54.7232 16.6496 43.2139C12.6085 43.0243 8.80208 41.261 6.04423 38.3013C3.28638 35.3415 1.79605 31.4202 1.89194 27.3758C1.98784 23.3315 3.66235 19.4852 6.55737 16.6594C9.4524 13.8337 13.3381 12.2529 17.3836 12.255L17.3798 12.2569ZM30.9759 27.6909C30.9654 25.0041 30.1592 22.3807 28.6589 20.1518C27.1585 17.9229 25.0315 16.1885 22.5462 15.1676C20.061 14.1467 17.3289 13.885 14.695 14.4155C12.0612 14.9461 9.64354 16.2452 7.74739 18.1487C5.85124 20.0523 4.56159 22.4749 4.04126 25.1108C3.52093 27.7468 3.79325 30.4778 4.82384 32.959C5.85443 35.4403 7.59709 37.5606 9.83179 39.0522C12.0665 40.5439 14.693 41.34 17.3798 41.34C17.587 41.34 17.7884 41.4081 17.9531 41.5337C18.1179 41.6593 18.2368 41.8355 18.2917 42.0352C20.4674 49.9528 19.4004 58.2582 18.3192 63.2982C30.5067 46.2258 31.2729 33.1944 30.9882 28.1573C30.975 28.0022 30.9709 27.8465 30.9759 27.6909Z" fill="#C4EF17"/>
</svg>
