<svg width="45" height="45" viewBox="0 0 45 45" fill="none" xmlns="http://www.w3.org/2000/svg">
<g id="app-development 1">
<g id="_x31_3_x2C__App_x2C__coding_x2C__development_x2C__mobile_x2C__code">
<g id="XMLID_15_">
<g id="XMLID_16_">
<g id="XMLID_41_">
<path id="XMLID_42_" d="M31.0304 43.9453H12.915C10.64 43.9453 8.78906 42.0944 8.78906 39.8195V5.00484C8.78906 2.72979 10.64 0.878906 12.915 0.878906H31.0304C33.3054 0.878906 35.1562 2.72979 35.1562 5.00484V39.8195C35.1562 42.0944 33.3054 43.9453 31.0304 43.9453ZM12.915 2.63672C11.6092 2.63672 10.5469 3.69905 10.5469 5.00484V39.8195C10.5469 41.1252 11.6092 42.1875 12.915 42.1875H31.0304C32.3361 42.1875 33.3984 41.1252 33.3984 39.8195V5.00484C33.3984 3.69905 32.3361 2.63672 31.0304 2.63672H12.915Z" fill="#C4EF17"/>
</g>
<g id="XMLID_39_">
<path id="XMLID_40_" d="M34.2773 7.91016H9.66797C9.18255 7.91016 8.78906 7.51667 8.78906 7.03125C8.78906 6.54583 9.18255 6.15234 9.66797 6.15234H34.2773C34.7627 6.15234 35.1562 6.54583 35.1562 7.03125C35.1562 7.51667 34.7627 7.91016 34.2773 7.91016Z" fill="#C4EF17"/>
</g>
<g id="XMLID_37_">
<path id="XMLID_38_" d="M34.2773 38.6719H9.66797C9.18255 38.6719 8.78906 38.2783 8.78906 37.793C8.78906 37.3076 9.18255 36.9141 9.66797 36.9141H34.2773C34.7627 36.9141 35.1562 37.3076 35.1562 37.793C35.1562 38.2783 34.7627 38.6719 34.2773 38.6719Z" fill="#C4EF17"/>
</g>
<g id="XMLID_35_">
<path id="XMLID_36_" d="M14.9414 15.8203C14.7165 15.8203 14.4915 15.7345 14.3199 15.5629L12.5621 13.8051C12.2189 13.4619 12.2189 12.9053 12.5621 12.562L14.3199 10.8042C14.6631 10.461 15.2196 10.461 15.5629 10.8042C15.9062 11.1474 15.9062 11.704 15.5629 12.0473L14.4265 13.1836L15.5629 14.3199C15.9061 14.6631 15.9061 15.2197 15.5629 15.563C15.3913 15.7345 15.1663 15.8203 14.9414 15.8203Z" fill="#C4EF17"/>
</g>
<g id="XMLID_33_">
<path id="XMLID_34_" d="M22.8516 15.8203C22.6266 15.8203 22.4017 15.7345 22.2302 15.5629C21.8869 15.2197 21.8869 14.6632 22.2302 14.3199L23.3664 13.1836L22.2301 12.0473C21.8869 11.7041 21.8869 11.1475 22.2301 10.8042C22.5733 10.4609 23.1297 10.461 23.4731 10.8042L25.2309 12.562C25.5741 12.9053 25.5741 13.4618 25.2309 13.8051L23.4731 15.5629C23.3015 15.7345 23.0766 15.8203 22.8516 15.8203Z" fill="#C4EF17"/>
</g>
<g id="XMLID_31_">
<path id="XMLID_32_" d="M17.5774 16.6994C17.4453 16.6994 17.3111 16.6695 17.185 16.6064C16.7508 16.3893 16.5749 15.8614 16.792 15.4272L19.4287 10.1537C19.6457 9.71966 20.1736 9.54361 20.6079 9.7607C21.0421 9.97779 21.2181 10.5057 21.001 10.9399L18.3642 16.2134C18.2102 16.5213 17.8997 16.6994 17.5774 16.6994Z" fill="#C4EF17"/>
</g>
<g id="XMLID_29_">
<path id="XMLID_30_" d="M24.6094 21.9727H14.0625C13.5771 21.9727 13.1836 21.5792 13.1836 21.0938C13.1836 20.6083 13.5771 20.2148 14.0625 20.2148H24.6094C25.0947 20.2148 25.4883 20.6083 25.4883 21.0938C25.4883 21.5792 25.0947 21.9727 24.6094 21.9727Z" fill="#C4EF17"/>
</g>
<g id="XMLID_27_">
<path id="XMLID_28_" d="M24.6094 25.4883H14.0625C13.5771 25.4883 13.1836 25.0947 13.1836 24.6094C13.1836 24.124 13.5771 23.7305 14.0625 23.7305H24.6094C25.0947 23.7305 25.4883 24.124 25.4883 24.6094C25.4883 25.0947 25.0947 25.4883 24.6094 25.4883Z" fill="#C4EF17"/>
</g>
<g id="XMLID_25_">
<path id="XMLID_26_" d="M29.8828 29.0039H14.0625C13.5771 29.0039 13.1836 28.6103 13.1836 28.125C13.1836 27.6397 13.5771 27.2461 14.0625 27.2461H29.8828C30.3681 27.2461 30.7617 27.6397 30.7617 28.125C30.7617 28.6103 30.3681 29.0039 29.8828 29.0039Z" fill="#C4EF17"/>
</g>
<g id="XMLID_23_">
<path id="XMLID_24_" d="M29.8828 32.5195H14.0625C13.5771 32.5195 13.1836 32.126 13.1836 31.6406C13.1836 31.1553 13.5771 30.7617 14.0625 30.7617H29.8828C30.3681 30.7617 30.7617 31.1553 30.7617 31.6406C30.7617 32.126 30.3681 32.5195 29.8828 32.5195Z" fill="#C4EF17"/>
</g>
<path id="XMLID_22_" d="M41.748 7.91016C42.4762 7.91016 43.0664 7.31991 43.0664 6.5918C43.0664 5.86369 42.4762 5.27344 41.748 5.27344C41.0199 5.27344 40.4297 5.86369 40.4297 6.5918C40.4297 7.31991 41.0199 7.91016 41.748 7.91016Z" fill="#C4EF17"/>
<path id="XMLID_21_" d="M3.95508 36.0352C4.68319 36.0352 5.27344 35.4449 5.27344 34.7168C5.27344 33.9887 4.68319 33.3984 3.95508 33.3984C3.22697 33.3984 2.63672 33.9887 2.63672 34.7168C2.63672 35.4449 3.22697 36.0352 3.95508 36.0352Z" fill="#C4EF17"/>
<path id="XMLID_20_" d="M1.75781 18.457C2.24322 18.457 2.63672 18.0635 2.63672 17.5781C2.63672 17.0927 2.24322 16.6992 1.75781 16.6992C1.27241 16.6992 0.878906 17.0927 0.878906 17.5781C0.878906 18.0635 1.27241 18.457 1.75781 18.457Z" fill="#C4EF17"/>
<path id="XMLID_19_" d="M39.5508 19.3359C40.0362 19.3359 40.4297 18.9424 40.4297 18.457C40.4297 17.9716 40.0362 17.5781 39.5508 17.5781C39.0654 17.5781 38.6719 17.9716 38.6719 18.457C38.6719 18.9424 39.0654 19.3359 39.5508 19.3359Z" fill="#C4EF17"/>
<path id="XMLID_18_" d="M6.15234 8.78906C6.63775 8.78906 7.03125 8.39556 7.03125 7.91016C7.03125 7.42475 6.63775 7.03125 6.15234 7.03125C5.66694 7.03125 5.27344 7.42475 5.27344 7.91016C5.27344 8.39556 5.66694 8.78906 6.15234 8.78906Z" fill="#C4EF17"/>
<path id="XMLID_17_" d="M40.4297 37.793C40.9151 37.793 41.3086 37.3995 41.3086 36.9141C41.3086 36.4287 40.9151 36.0352 40.4297 36.0352C39.9443 36.0352 39.5508 36.4287 39.5508 36.9141C39.5508 37.3995 39.9443 37.793 40.4297 37.793Z" fill="#C4EF17"/>
</g>
</g>
</g>
</g>
</svg>
