<svg width="45" height="45" viewBox="0 0 45 45" fill="none" xmlns="http://www.w3.org/2000/svg">
<g id="business-report (1) 1">
<g id="Group">
<path id="Vector" d="M41.0449 1.49414H3.95508C1.77425 1.49414 0 3.26839 0 5.44922V31.1133C0 33.2941 1.77425 35.0684 3.95508 35.0684H16.725L15.7582 40.8691H14.0625C13.3344 40.8691 12.7441 41.4594 12.7441 42.1875C12.7441 42.9156 13.3344 43.5059 14.0625 43.5059H30.9375C31.6656 43.5059 32.2559 42.9156 32.2559 42.1875C32.2559 41.4594 31.6656 40.8691 30.9375 40.8691H29.2418L28.275 35.0684H41.0449C43.2258 35.0684 45 33.2941 45 31.1133V5.44922C45 3.26839 43.2258 1.49414 41.0449 1.49414ZM26.5687 40.8691H18.4313L19.3981 35.0684H25.6019L26.5687 40.8691ZM42.3633 31.1133C42.3633 31.8402 41.7719 32.4316 41.0449 32.4316C40.1043 32.4316 5.05837 32.4316 3.95508 32.4316C3.22813 32.4316 2.63672 31.8402 2.63672 31.1133V5.44922C2.63672 4.72228 3.22813 4.13086 3.95508 4.13086H21.1816V5.625C21.1816 6.35309 21.7719 6.94336 22.5 6.94336C23.2281 6.94336 23.8184 6.35309 23.8184 5.625V4.13086H41.0449C41.7719 4.13086 42.3633 4.72228 42.3633 5.44922V31.1133Z" fill="#C4EF17"/>
<path id="Vector_2" d="M18.2812 18.3691C17.5532 18.3691 16.9629 18.9594 16.9629 19.6875V23.9941H13.9746V15.4688C13.9746 14.7407 13.3843 14.1504 12.6562 14.1504C11.9282 14.1504 11.3379 14.7407 11.3379 15.4688V23.9941H8.34961V11.25C8.34961 10.5219 7.75934 9.93164 7.03125 9.93164C6.30316 9.93164 5.71289 10.5219 5.71289 11.25V25.3125C5.71289 26.0406 6.30316 26.6309 7.03125 26.6309H18.2812C19.0093 26.6309 19.5996 26.0406 19.5996 25.3125V19.6875C19.5996 18.9594 19.0093 18.3691 18.2812 18.3691Z" fill="#C4EF17"/>
<path id="Vector_3" d="M31.6406 10.6348C27.4243 10.6348 23.9941 14.065 23.9941 18.2812C23.9941 20.3578 24.8266 22.2434 26.175 23.6228C26.2355 23.692 26.2326 23.6886 26.299 23.7468C27.6783 25.0951 29.5639 25.9277 31.6406 25.9277C35.8569 25.9277 39.2871 22.4975 39.2871 18.2812C39.2871 14.065 35.8569 10.6348 31.6406 10.6348ZM36.4731 16.9629H32.959V13.4488C34.6633 13.9142 36.0076 15.2586 36.4731 16.9629ZM30.3223 13.4488V17.7352L27.2926 20.7649C25.6627 17.9226 27.1769 14.3079 30.3223 13.4488ZM29.157 22.6293L32.1867 19.5996H36.4731C35.6127 22.7495 31.9954 24.2569 29.157 22.6293Z" fill="#C4EF17"/>
</g>
</g>
</svg>
