<svg width="45" height="45" viewBox="0 0 45 45" fill="none" xmlns="http://www.w3.org/2000/svg">
<path d="M39.3025 5.852H38.7686C39.7863 4.19503 39.4105 1.97047 37.7771 0.758573C36.0171 -0.547105 33.5161 -0.12682 32.2878 1.70865L29.5153 5.85209H5.69767C3.73994 5.85209 2.14722 7.44481 2.14722 9.40253V32.102C2.14722 34.0597 3.73994 35.6524 5.69767 35.6524H19.4887L18.4467 40.029H16.1977C14.7319 40.029 13.5395 41.2214 13.5395 42.6871V43.2421H10.767C10.2816 43.2421 9.88812 43.6357 9.88812 44.121C9.88812 44.6063 10.2816 44.9999 10.767 44.9999H34.2333C34.7187 44.9999 35.1121 44.6063 35.1121 44.121C35.1121 43.6357 34.7187 43.2421 34.2333 43.2421H31.4608V42.6871C31.4608 41.2214 30.2683 40.029 28.8026 40.029H26.5536L25.5116 35.6524H39.3026C41.2603 35.6524 42.8531 34.0597 42.8531 32.102V27.1072V9.40245C42.8531 7.44472 41.2603 5.852 39.3025 5.852ZM26.7096 21.3028C25.3355 22.2647 22.7611 20.9572 20.3027 22.269C19.7029 19.1529 20.081 16.2223 23.2033 15.5754C23.6068 15.4913 24.0412 15.4532 24.4111 15.4606C25.4678 16.2447 26.5367 17.0377 27.5905 17.8197C28.0519 19.1615 27.8787 20.4844 26.7096 21.3028ZM27.5954 11.8821L30.0832 13.728L28.17 16.0606C27.3823 15.4763 26.7052 14.9739 25.9176 14.3894C26.0811 14.145 27.4459 12.1055 27.5954 11.8821ZM33.7488 2.68624C34.4145 1.69125 35.7721 1.45975 36.7297 2.17033C37.6877 2.881 37.8593 4.24732 37.1002 5.17288C35.7533 6.81491 32.5512 10.719 31.1992 12.3674L28.5739 10.4196L33.7488 2.68624ZM29.7029 42.6871V43.2421H15.2972V42.6871C15.2972 42.1907 15.7012 41.7868 16.1977 41.7868H28.8025C29.299 41.7868 29.7029 42.1907 29.7029 42.6871ZM24.7466 40.029H20.2536L21.2956 35.6524H23.7046L24.7466 40.029ZM41.0953 32.102C41.0953 33.0904 40.2911 33.8946 39.3026 33.8946C37.9075 33.8946 7.26639 33.8946 5.69775 33.8946C4.70927 33.8946 3.90508 33.0904 3.90508 32.102V27.9861H6.4166C6.90201 27.9861 7.29549 27.5925 7.29549 27.1072C7.29549 26.6219 6.90201 26.2283 6.4166 26.2283H3.90491V9.40245C3.90491 8.41396 4.70909 7.60978 5.69758 7.60978H28.3391C27.4971 8.86808 25.0407 12.539 24.2626 13.7017C22.5403 13.7173 20.8207 14.3173 19.695 15.6314C18.1632 17.4195 17.8941 20.2291 18.8952 23.9822C19.0663 24.6239 19.867 24.8538 20.3516 24.391C22.6241 22.2195 25.4545 24.5882 27.9891 22.5367C29.5363 21.2842 29.9024 19.2932 29.319 17.4314C30.1077 16.4699 36.5843 8.57357 37.3748 7.60978H39.3024C40.2909 7.60978 41.0951 8.41396 41.0951 9.40245V26.2282H13.4475C12.9621 26.2282 12.5686 26.6218 12.5686 27.1071C12.5686 27.5925 12.9621 27.986 13.4475 27.986H41.0953V32.102Z" fill="#C4EF17"/>
<path d="M9.7623 26.2453C9.3392 26.3318 9.05566 26.6975 9.05566 27.1076C9.05566 27.6573 9.55831 28.0783 10.106 27.9689C10.5926 27.8701 10.8891 27.4011 10.7959 26.9353C10.6981 26.4546 10.2317 26.1508 9.7623 26.2453Z" fill="#C4EF17"/>
</svg>
