<svg width="45" height="45" viewBox="0 0 45 45" fill="none" xmlns="http://www.w3.org/2000/svg">
<g clip-path="url(#clip0_71_6)">
<path fill-rule="evenodd" clip-rule="evenodd" d="M34.5079 27.6538C34.297 27.6538 34.0861 27.5747 33.9543 27.3638L32.3726 25.1494L30.7118 27.3902C30.1845 28.1019 29.1037 27.2847 29.6309 26.5729L31.5554 23.9895L29.6837 21.3796C29.1564 20.6678 30.2636 19.8506 30.7909 20.5888L32.3989 22.8559L34.0334 20.6678C34.5606 19.9561 35.6415 20.7733 35.1142 21.4851L33.2425 24.0158L35.0615 26.5729C35.3779 27.0211 35.0351 27.6538 34.5079 27.6538ZM35.536 11.652H9.43761C8.56766 11.652 8.56766 10.3076 9.43761 10.3076H35.536C36.4323 10.3076 36.4323 11.652 35.536 11.652ZM35.536 15.4745H9.43761C8.56766 15.4745 8.56766 14.1037 9.43761 14.1037H35.536C36.4323 14.1037 36.4323 15.4745 35.536 15.4745ZM40.4657 34.3761V10.3866C40.4657 6.69596 38.3304 3.71705 35.7206 3.71705H9.27944C6.64323 3.71705 4.53427 6.69596 4.53427 10.3866V34.3761H18.5062H18.5325H18.5589H18.5852H18.6116H18.638L18.6643 34.4025H18.6907H18.717L18.7434 34.4288H18.7698H18.7961V34.4552H18.8225L18.8489 34.4815H18.8752L18.9016 34.5079L18.9279 34.5343H18.9543V34.5606H18.9807C18.9807 34.587 19.1652 34.8506 19.1652 35.0615V37.0914H25.8084V35.0615C25.8084 34.5606 26.0721 34.5343 26.362 34.3761H26.4675H26.4938H26.5202H40.4657ZM3.16344 34.3761V10.3866C3.16344 5.95782 5.9051 2.34622 9.27944 2.34622H35.7206C39.0949 2.34622 41.8366 5.95782 41.8366 10.3866V34.3761H44.3146C44.6837 34.3761 45 34.6661 45 35.0615C45 39.2267 41.5993 42.6274 37.4077 42.6274H7.59227C3.4007 42.6274 0 39.2267 0 35.0615C0 34.6661 0.316344 34.3761 0.685413 34.3761H3.16344ZM17.8207 35.7206H1.39719C1.73989 38.8313 4.3761 41.283 7.59227 41.283H37.4077C40.5975 41.283 43.2601 38.8313 43.6028 35.7206H27.1793V37.7768C27.1793 38.1459 26.8629 38.4622 26.4938 38.4622H18.4798C18.1107 38.4622 17.8207 38.1722 17.8207 37.7768V35.7206ZM19.007 29.1301C18.5589 29.1301 18.2162 28.7083 18.348 28.2601L20.8524 18.8752C21.0896 18.0316 22.4077 18.4007 22.1705 19.2443L19.6661 28.6292C19.587 28.9192 19.297 29.1301 19.007 29.1301ZM25.703 27.6801C24.2004 27.6801 23.0668 26.7047 23.1459 25.1494V20.9578C23.1459 20.0879 24.4903 20.0879 24.4903 20.9578C24.4903 21.8014 24.5431 24.6485 24.4903 25.2548C24.3585 26.6784 27.0211 26.6784 26.8893 25.2548C26.8366 24.6749 26.8893 21.775 26.8893 20.9578C26.8893 20.0879 28.2601 20.0879 28.2601 20.9578V25.1494C28.3128 26.7047 27.1793 27.6801 25.703 27.6801ZM12.3111 27.232C10.8084 27.232 9.67487 26.2566 9.75395 24.7012V20.5097C9.75395 19.6397 11.0984 19.6397 11.0984 20.5097C11.0984 21.3796 11.1511 24.1476 11.0984 24.8067C10.993 26.2302 13.6292 26.2302 13.4974 24.8067C13.4446 24.1476 13.4974 21.3796 13.4974 20.5097C13.4974 19.6397 14.8682 19.6397 14.8682 20.5097V24.7012C14.9209 26.2566 13.7873 27.232 12.3111 27.232ZM16.8717 27.2056C16.5026 27.2056 16.1863 26.9156 16.1863 26.5202V20.536C16.1863 19.6397 17.5571 19.6397 17.5571 20.536V26.5202C17.5571 26.9156 17.2408 27.2056 16.8717 27.2056Z" fill="#C4EF17"/>
</g>
<defs>
<clipPath id="clip0_71_6">
<rect width="45" height="45" fill="white"/>
</clipPath>
</defs>
</svg>
