<svg width="45" height="45" viewBox="0 0 45 45" fill="none" xmlns="http://www.w3.org/2000/svg">
<g id="advocate (1) 1" clip-path="url(#clip0_187_1240)">
<g id="Group">
<path id="Vector" d="M39.5084 40.5667V35.8668C39.5084 32.8307 37.6918 30.5359 35.3801 28.8446C33.692 25.5178 32.9354 21.3208 33.3717 17.7496C34.5181 17.292 35.1561 16.5032 35.1561 15.4631V14.5837C35.1561 13.5646 34.4004 12.7209 33.4254 12.5929L33.3947 10.9042C33.3563 8.8904 32.7822 6.92499 31.7346 5.22044C31.5439 4.91019 31.138 4.81342 30.8279 5.00396C30.5177 5.1946 30.4208 5.60057 30.6114 5.91064C31.5361 7.41498 32.0426 9.15038 32.0765 10.9288L32.1065 12.5754H31.7047C27.4234 12.5754 23.3734 11.4712 19.9927 9.38215C19.9741 9.37064 19.955 9.36018 19.9355 9.3506C19.7489 9.25945 19.5288 9.18958 19.2865 9.18193C17.9451 8.0274 17.0638 5.34542 17.7835 2.54742C19.1722 1.76546 20.7738 1.31836 22.4781 1.31836C24.8278 1.31836 27.0854 2.19041 28.8352 3.77385C29.1051 4.01818 29.5218 3.99744 29.7662 3.72744C30.0104 3.45753 29.9897 3.04075 29.7198 2.79642C27.7272 0.993076 25.1554 0 22.4781 0C16.4587 0 11.5615 4.89735 11.5615 10.9169V12.5948C10.5933 12.729 9.8449 13.5695 9.8449 14.5838V15.4632C9.8449 16.5033 10.4829 17.292 11.6293 17.7497C12.0657 21.3209 11.3105 25.5161 9.62447 28.84C7.3111 30.5319 5.49256 32.8282 5.49256 35.8669V40.5668C5.4697 41.0019 5.49467 41.4909 5.8297 41.8451C6.16729 42.2019 6.6528 42.25 7.08329 42.25H14.7972L14.0605 44.0967C13.9795 44.2998 14.0043 44.5298 14.127 44.7108C14.2497 44.8917 14.4541 45.0001 14.6727 45.0001H19.5915C19.9039 45.0001 20.1734 44.7808 20.2369 44.4749L20.6991 42.25H24.2992L24.7619 44.475C24.8255 44.7808 25.0949 45.0001 25.4073 45.0001H30.3261C30.5446 45.0001 30.7491 44.8917 30.8718 44.7107C30.9945 44.5296 31.0193 44.2996 30.9383 44.0966L30.2012 42.25H37.918C38.3484 42.25 38.834 42.2018 39.1715 41.8451C39.5062 41.4907 39.5312 41.0018 39.5084 40.5667ZM33.3824 27.5803C31.9323 26.7813 30.4381 26.1751 29.1617 25.7345V25.4849C29.1617 25.1978 29.0115 24.9118 28.7696 24.7384C28.5074 24.5503 28.1636 24.508 27.8264 24.6221C27.8164 24.6255 27.8063 24.6291 27.7965 24.6331L27.5767 24.7196V22.1366C29.0309 21.0846 30.28 19.6879 31.1393 18.1857C31.4446 18.1702 31.7351 18.142 32.0094 18.1013C31.7311 21.154 32.2338 24.5733 33.3824 27.5803ZM22.503 29.6901C22.499 29.6901 22.495 29.69 22.491 29.6901H20.9138V27.2024H24.0845V29.6901H22.503ZM17.1552 26.0314L19.5956 26.9922V29.9004L17.1552 30.8611V26.0314ZM19.9618 23.5147C20.896 23.8594 21.7027 24.02 22.5004 24.02C23.2966 24.02 24.1025 23.8594 25.0378 23.5143C25.4525 23.3603 25.86 23.1734 26.2583 22.9611V25.2386L24.6187 25.8841H20.3797L18.7427 25.2396V22.9623C19.1405 23.1743 19.5475 23.3609 19.9618 23.5147ZM25.4029 26.9921L27.8432 26.0314V30.8609L25.4029 29.9002V26.9921ZM33.8376 14.5838V15.4632C33.8376 16.2248 32.8894 16.6308 31.8093 16.7943C32.1731 15.866 32.3762 14.9263 32.3762 14.0273V13.8939H33.1678C33.5309 13.8939 33.8376 14.2098 33.8376 14.5838ZM31.0578 13.885V14.0272C31.0578 15.0376 30.7376 16.1258 30.1891 17.1791C30.1663 17.214 30.1468 17.2512 30.1307 17.2901C28.9752 19.4406 26.8714 21.4271 24.5801 22.2778C23.7967 22.5669 23.1359 22.7015 22.5004 22.7015C21.8633 22.7015 21.2018 22.5669 20.4195 22.2783C18.1327 21.4292 16.033 19.4499 14.8757 17.3051C14.8569 17.256 14.8324 17.2098 14.8031 17.1671C14.2583 16.1176 13.9406 15.0338 13.9406 14.0272V13.8506C15.7324 13.6287 17.514 12.5493 18.8134 10.8681C19.117 10.4757 19.248 10.4879 19.3316 10.5236C22.7426 12.6229 26.7837 13.7791 31.0578 13.885ZM12.8799 10.9169C12.8799 7.99726 14.1905 5.37838 16.2539 3.61652C15.9866 6.17977 16.8162 8.45534 18.0157 9.7781C17.9343 9.86194 17.8525 9.9559 17.7707 10.0616C17.3201 10.6446 15.6799 12.5306 13.34 12.5736C13.3207 12.572 12.8799 12.5757 12.8799 12.5757L12.8799 10.9169ZM11.1633 15.4632V14.5838C11.1633 14.2098 11.47 13.8939 11.8331 13.8939H12.6222V14.0273C12.6222 14.9261 12.8254 15.8657 13.1891 16.7939C12.11 16.63 11.1633 16.2241 11.1633 15.4632ZM12.9916 18.1013C13.2653 18.1419 13.5549 18.17 13.8593 18.1856C14.7191 19.6885 15.969 21.0859 17.4243 22.1382V24.7206L17.2021 24.6331C17.1923 24.6291 17.1822 24.6255 17.1722 24.6221C16.8349 24.5078 16.4912 24.5504 16.229 24.7384C15.9871 24.9118 15.8369 25.1979 15.8369 25.4849V25.7329C14.5618 26.1732 13.0698 26.7786 11.6215 27.5764C12.7683 24.5715 13.2701 21.1538 12.9916 18.1013ZM15.6452 43.6816L16.3721 41.8597C16.3784 41.8456 16.384 41.8311 16.3893 41.8165L17.5257 38.9682C17.6606 38.63 17.4958 38.2465 17.1577 38.1117C16.8195 37.9766 16.436 38.1414 16.3012 38.4797L15.323 40.9316H12.8997V35.4421C12.8997 35.0779 12.6047 34.7829 12.2405 34.7829C11.8764 34.7829 11.5814 35.0779 11.5814 35.4421V40.9316H7.0832C6.94811 40.9316 6.86242 40.9242 6.81004 40.9166C6.80476 40.8611 6.8016 40.7689 6.80986 40.6213C6.81056 40.6091 6.81092 40.5969 6.81092 40.5846V35.8669C6.81092 33.3219 8.39708 31.3509 10.4427 29.8669C10.4981 29.8382 10.5494 29.8016 10.5953 29.7575C12.2586 28.583 14.2009 27.7225 15.8368 27.131V31.41C15.8368 31.6975 15.9881 31.9838 16.2315 32.1572C16.3962 32.2744 16.5924 32.3343 16.7985 32.3343C16.9224 32.3343 17.0498 32.3127 17.1763 32.269C17.185 32.266 17.1935 32.2628 17.202 32.2595L19.078 31.5209L17.4239 35.67C17.2891 36.0082 17.4539 36.3916 17.7921 36.5264C17.8721 36.5583 17.9547 36.5734 18.036 36.5734C18.2978 36.5734 18.5455 36.4162 18.6485 36.1581L20.7014 31.0083H21.6877L19.5326 41.3827C19.5167 41.4303 19.506 41.4803 19.5015 41.5322L19.055 43.6816H15.6452ZM20.9728 40.9315L22.4983 33.5886L24.0249 40.9315H20.9728ZM25.9432 43.6816L25.5003 41.5514C25.4965 41.4856 25.483 41.4226 25.4612 41.3633L23.3083 31.0083H24.2946L28.6162 41.8359C28.6183 41.8413 28.6204 41.8467 28.6226 41.8519L29.3529 43.6816H25.9432ZM38.1909 40.9165C38.1384 40.9242 38.0528 40.9315 37.9177 40.9315H33.4195V35.442C33.4195 35.0779 33.1245 34.7828 32.7604 34.7828C32.3962 34.7828 32.1012 35.0779 32.1012 35.442V40.9315H29.6748L25.9183 31.52L27.7964 32.2594C27.8049 32.2627 27.8134 32.2659 27.8221 32.2689C27.9485 32.3126 28.076 32.3343 28.1999 32.3343C28.4061 32.3343 28.6023 32.2743 28.767 32.1571C29.0104 31.9838 29.1616 31.6975 29.1616 31.4099V27.1325C30.8009 27.725 32.7482 28.5877 34.4143 29.7655C34.4568 29.8054 34.5038 29.839 34.5544 29.866C36.6019 31.3501 38.1901 33.3213 38.1901 35.8668V40.5845C38.1901 40.5968 38.1904 40.6089 38.1911 40.6211C38.1993 40.7688 38.1961 40.8611 38.1909 40.9165Z" fill="#C4EF17"/>
</g>
</g>
<defs>
<clipPath id="clip0_187_1240">
<rect width="45" height="45" fill="white"/>
</clipPath>
</defs>
</svg>
