<svg width="45" height="45" viewBox="0 0 45 45" fill="none" xmlns="http://www.w3.org/2000/svg">
<g id="payment 2">
<g id="global payment">
<path id="Vector" fill-rule="evenodd" clip-rule="evenodd" d="M22.5 7.73438C19.5796 7.73438 16.7249 8.60036 14.2967 10.2228C11.8685 11.8453 9.97592 14.1514 8.85835 16.8494C7.74077 19.5475 7.44836 22.5164 8.0181 25.3806C8.58783 28.2449 9.99412 30.8759 12.0591 32.9409C14.1241 35.0059 16.7551 36.4122 19.6194 36.9819C22.4836 37.5516 25.4525 37.2592 28.1506 36.1417C30.8486 35.0241 33.1547 33.1315 34.7772 30.7033C36.3996 28.2751 37.2656 25.4204 37.2656 22.5C37.2638 18.5845 35.7075 14.8299 32.9388 12.0612C30.1701 9.2925 26.4155 7.73624 22.5 7.73438ZM34.4489 16.5234H28.5188C28.1782 14.5257 27.5207 12.5952 26.5711 10.8049C26.3184 10.3551 26.0276 9.92765 25.702 9.52734C27.5784 9.99345 29.3317 10.8601 30.8415 12.0677C32.3513 13.2753 33.582 14.7953 34.4489 16.5234ZM27.656 22.5C27.6589 24.0292 27.5512 25.5566 27.334 27.0703H17.666C17.2366 24.0386 17.2366 20.9614 17.666 17.9297H27.334C27.5512 19.4434 27.6589 20.9708 27.656 22.5ZM22.5 9.14062C23.5877 9.14062 24.5327 10.0645 25.3484 11.4996C26.1853 13.074 26.7728 14.7688 27.09 16.5234H17.91C18.2272 14.7688 18.8147 13.074 19.6516 11.4996C20.4673 10.0645 21.4123 9.14062 22.5 9.14062ZM19.298 9.52734C18.9724 9.92762 18.6816 10.355 18.4289 10.8049C17.4793 12.5952 16.8218 14.5257 16.4813 16.5234H10.5511C11.4179 14.7953 12.6485 13.2751 14.1584 12.0675C15.6682 10.8599 17.4216 9.99331 19.298 9.52734ZM9.14063 22.5C9.13875 20.9412 9.41078 19.3943 9.9443 17.9297H16.2492C15.8339 20.9624 15.8339 24.0376 16.2492 27.0703H9.9443C9.4108 25.6057 9.13877 24.0588 9.14063 22.5ZM10.5511 28.4766H16.4813C16.8218 30.4743 17.4793 32.4048 18.4289 34.1951C18.6816 34.6449 18.9724 35.0724 19.298 35.4727C17.4216 35.0066 15.6684 34.1399 14.1585 32.9323C12.6487 31.7247 11.4181 30.2047 10.5511 28.4766ZM22.5 35.8594C21.4123 35.8594 20.4673 34.9355 19.6516 33.5004C18.8147 31.926 18.2272 30.2312 17.91 28.4766H27.09C26.7728 30.2312 26.1853 31.926 25.3484 33.5004C24.5327 34.9355 23.5877 35.8594 22.5 35.8594ZM25.702 35.4727C26.0276 35.0723 26.3183 34.6449 26.5711 34.1951C27.5207 32.4048 28.1782 30.4743 28.5188 28.4766H34.4489C33.5821 30.2047 32.3515 31.7249 30.8416 32.9325C29.3318 34.1401 27.5784 35.0067 25.702 35.4727ZM28.7508 27.0703C28.9604 25.5559 29.0645 24.0288 29.0623 22.5C29.0645 20.9712 28.9604 19.4441 28.7508 17.9297H35.0557C36.1273 20.8823 36.1273 24.1177 35.0557 27.0703H28.7508Z" fill="#C4EF17"/>
<path id="Vector_2" fill-rule="evenodd" clip-rule="evenodd" d="M5.62463 15.3056C5.06519 15.3056 4.52867 15.0834 4.13308 14.6878C3.7375 14.2922 3.51526 13.7557 3.51526 13.1962C3.51526 13.0098 3.44118 12.8309 3.30932 12.6991C3.17746 12.5672 2.99862 12.4931 2.81214 12.4931C2.62565 12.4931 2.44681 12.5672 2.31495 12.6991C2.18309 12.8309 2.10901 13.0098 2.10901 13.1962C2.10951 14.0065 2.3896 14.7918 2.90201 15.4195C3.41441 16.0472 4.12773 16.4789 4.92151 16.6416V17.9564C4.92151 18.1429 4.99559 18.3217 5.12745 18.4536C5.25931 18.5855 5.43815 18.6595 5.62463 18.6595C5.81112 18.6595 5.98996 18.5855 6.12182 18.4536C6.25368 18.3217 6.32776 18.1429 6.32776 17.9564V16.6416C7.18217 16.4681 7.94163 15.9833 8.45871 15.2813C8.9758 14.5794 9.21361 13.7104 9.12599 12.8429C9.03837 11.9755 8.63157 11.1716 7.98456 10.5872C7.33754 10.0029 6.49648 9.67975 5.62463 9.68062C5.20744 9.68062 4.79961 9.55691 4.45273 9.32513C4.10584 9.09335 3.83548 8.76391 3.67583 8.37847C3.51617 7.99303 3.4744 7.56891 3.55579 7.15973C3.63718 6.75055 3.83808 6.3747 4.13308 6.0797C4.42808 5.7847 4.80394 5.5838 5.21312 5.50241C5.6223 5.42102 6.04642 5.46279 6.43186 5.62244C6.8173 5.7821 7.14673 6.05246 7.37852 6.39934C7.6103 6.74623 7.73401 7.15405 7.73401 7.57125C7.73401 7.75773 7.80809 7.93657 7.93995 8.06843C8.07181 8.2003 8.25065 8.27437 8.43713 8.27437C8.62362 8.27437 8.80246 8.2003 8.93432 8.06843C9.06618 7.93657 9.14026 7.75773 9.14026 7.57125C9.13976 6.76097 8.85967 5.97568 8.34726 5.34798C7.83486 4.72028 7.12154 4.28864 6.32776 4.12594V2.8125C6.32776 2.62602 6.25368 2.44718 6.12182 2.31532C5.98996 2.18345 5.81112 2.10938 5.62463 2.10938C5.43815 2.10938 5.25931 2.18345 5.12745 2.31532C4.99559 2.44718 4.92151 2.62602 4.92151 2.8125V4.12594C4.0671 4.29943 3.30764 4.7842 2.79056 5.48615C2.27347 6.1881 2.03566 7.05714 2.12328 7.92457C2.21089 8.792 2.6177 9.59592 3.26471 10.1803C3.91173 10.7646 4.75279 11.0878 5.62463 11.0869C6.18408 11.0869 6.7206 11.3091 7.11619 11.7047C7.51177 12.1003 7.73401 12.6368 7.73401 13.1962C7.73401 13.7557 7.51177 14.2922 7.11619 14.6878C6.7206 15.0834 6.18408 15.3056 5.62463 15.3056Z" fill="#C4EF17"/>
<path id="Vector_3" fill-rule="evenodd" clip-rule="evenodd" d="M39.3746 29.6922C39.9341 29.6922 40.4706 29.9145 40.8662 30.3101C41.2618 30.7057 41.484 31.2422 41.484 31.8016C41.484 31.9881 41.5581 32.1669 41.6899 32.2988C41.8218 32.4307 42.0007 32.5047 42.1871 32.5047C42.3736 32.5047 42.5525 32.4307 42.6843 32.2988C42.8162 32.1669 42.8903 31.9881 42.8903 31.8016C42.8904 30.9912 42.6106 30.2055 42.0981 29.5777C41.5855 28.9499 40.8718 28.5184 40.0778 28.3563V27.0436C40.0778 26.8571 40.0037 26.6783 39.8718 26.5464C39.74 26.4145 39.5611 26.3405 39.3746 26.3405C39.1882 26.3405 39.0093 26.4145 38.8774 26.5464C38.7456 26.6783 38.6715 26.8571 38.6715 27.0436V28.357C37.8171 28.5305 37.0576 29.0153 36.5406 29.7172C36.0235 30.4192 35.7857 31.2882 35.8733 32.1556C35.9609 33.0231 36.3677 33.827 37.0147 34.4114C37.6617 34.9957 38.5028 35.3188 39.3746 35.318C39.7918 35.318 40.1997 35.4417 40.5465 35.6734C40.8934 35.9052 41.1638 36.2347 41.3234 36.6201C41.4831 37.0055 41.5249 37.4297 41.4435 37.8388C41.3621 38.248 41.1612 38.6239 40.8662 38.9189C40.5712 39.2139 40.1953 39.4148 39.7862 39.4962C39.377 39.5776 38.9529 39.5358 38.5674 39.3761C38.182 39.2165 37.8525 38.9461 37.6208 38.5992C37.389 38.2523 37.2653 37.8445 37.2653 37.4273C37.2653 37.2408 37.1912 37.062 37.0593 36.9301C36.9275 36.7983 36.7486 36.7242 36.5621 36.7242C36.3757 36.7242 36.1968 36.7983 36.0649 36.9301C35.9331 37.062 35.859 37.2408 35.859 37.4273C35.8588 38.2378 36.1387 39.0234 36.6512 39.6512C37.1637 40.2791 37.8774 40.7105 38.6715 40.8726V42.1875C38.6715 42.374 38.7456 42.5528 38.8774 42.6847C39.0093 42.8165 39.1882 42.8906 39.3746 42.8906C39.5611 42.8906 39.74 42.8165 39.8718 42.6847C40.0037 42.5528 40.0778 42.374 40.0778 42.1875V40.8719C40.9322 40.6984 41.6916 40.2137 42.2087 39.5117C42.7258 38.8098 42.9636 37.9407 42.876 37.0733C42.7884 36.2059 42.3816 35.402 41.7346 34.8176C41.0875 34.2332 40.2465 33.9101 39.3746 33.911C38.8152 33.911 38.2787 33.6888 37.8831 33.2932C37.4875 32.8976 37.2653 32.3611 37.2653 31.8016C37.2653 31.2422 37.4875 30.7057 37.8831 30.3101C38.2787 29.9145 38.8152 29.6922 39.3746 29.6922Z" fill="#C4EF17"/>
<path id="Vector_4" fill-rule="evenodd" clip-rule="evenodd" d="M14.3639 5.34375C17.258 3.9725 20.4518 3.35544 23.6483 3.54997C26.8449 3.7445 29.9403 4.74429 32.6467 6.45636C35.3531 8.16843 37.5826 10.5372 39.1277 13.3422C40.6728 16.1473 41.4835 19.2975 41.4842 22.5C41.4842 22.6865 41.5582 22.8653 41.6901 22.9972C41.822 23.129 42.0008 23.2031 42.1873 23.2031C42.3738 23.2031 42.5526 23.129 42.6845 22.9972C42.8163 22.8653 42.8904 22.6865 42.8904 22.5C42.8897 19.0603 42.019 15.6766 40.3594 12.6637C38.6997 9.6509 36.305 7.10676 33.398 5.268C30.491 3.42924 27.1661 2.35559 23.7327 2.14694C20.2993 1.93828 16.8689 2.6014 13.7606 4.07461C13.6737 4.11193 13.5952 4.16641 13.5299 4.23478C13.4645 4.30315 13.4136 4.38401 13.3802 4.47251C13.3468 4.56101 13.3316 4.65534 13.3356 4.74985C13.3395 4.84436 13.3624 4.93711 13.4031 5.02254C13.4437 5.10797 13.5011 5.18433 13.5719 5.24705C13.6427 5.30976 13.7255 5.35755 13.8152 5.38753C13.9049 5.41752 13.9997 5.4291 14.094 5.42158C14.1883 5.41406 14.2801 5.38758 14.3639 5.34375Z" fill="#C4EF17"/>
<path id="Vector_5" fill-rule="evenodd" clip-rule="evenodd" d="M30.6359 39.6563C27.7418 41.0275 24.548 41.6446 21.3514 41.45C18.1549 41.2555 15.0595 40.2557 12.3531 38.5436C9.64666 36.8316 7.41722 34.4628 5.87208 31.6578C4.32695 28.8527 3.51633 25.7025 3.51562 22.5C3.51562 22.3135 3.44155 22.1347 3.30968 22.0028C3.17782 21.871 2.99898 21.7969 2.8125 21.7969C2.62602 21.7969 2.44718 21.871 2.31532 22.0028C2.18345 22.1347 2.10938 22.3135 2.10938 22.5C2.11068 25.9394 2.9818 29.3227 4.64171 32.335C6.30162 35.3474 8.6964 37.8911 11.6033 39.7294C14.5102 41.5678 17.8348 42.6411 21.268 42.8496C24.7011 43.0581 28.1311 42.395 31.2391 40.9219C31.3247 40.8837 31.4018 40.8287 31.4658 40.7603C31.5299 40.6918 31.5796 40.6113 31.612 40.5234C31.6445 40.4354 31.659 40.3419 31.6548 40.2483C31.6506 40.1546 31.6277 40.0628 31.5875 39.9782C31.5473 39.8935 31.4905 39.8177 31.4206 39.7553C31.3507 39.6929 31.269 39.6451 31.1803 39.6147C31.0917 39.5843 30.9978 39.572 30.9043 39.5784C30.8108 39.5848 30.7195 39.6098 30.6359 39.652V39.6563Z" fill="#C4EF17"/>
</g>
</g>
</svg>
