<svg width="45" height="45" viewBox="0 0 45 45" fill="none" xmlns="http://www.w3.org/2000/svg">
<g id="branding 1">
<path id="Vector" d="M43.2833 17.3589H40.3703C39.9161 15.4024 39.1491 13.5522 38.0847 11.8448L40.1455 9.78407C40.42 9.50941 40.42 9.06434 40.1455 8.78977L35.2408 3.88477C35.1089 3.75284 34.9301 3.67875 34.7436 3.67875C34.5571 3.67875 34.3784 3.75284 34.2464 3.88477L32.1856 5.94563C30.4772 4.88083 28.6271 4.11381 26.6713 3.65985V0.74707C26.6713 0.35877 26.3565 0.0439453 25.9682 0.0439453H19.0318C18.6435 0.0439453 18.3287 0.35877 18.3287 0.74707V3.65994C16.372 4.11416 14.5218 4.88118 12.8144 5.94554L10.7537 3.88477C10.4791 3.61046 10.0341 3.61028 9.75932 3.88477L4.85449 8.7895C4.72257 8.92143 4.64848 9.1002 4.64848 9.2867C4.64848 9.4732 4.72257 9.65197 4.8544 9.7839L6.91526 11.8447C5.85056 13.5528 5.08354 15.403 4.62949 17.3589H1.7168C1.3285 17.3589 1.01367 17.6737 1.01367 18.062V24.9985C1.01367 25.3868 1.3285 25.7016 1.7168 25.7016H4.62949C5.0838 27.6583 5.85073 29.5085 6.91518 31.216L4.85458 33.2766C4.58001 33.5513 4.58001 33.9964 4.85458 34.2709L9.75932 39.1758C9.89124 39.3078 10.07 39.3819 10.2565 39.3819C10.443 39.3819 10.6218 39.3078 10.7537 39.1758L12.8144 37.1151C14.0092 37.8591 15.2827 38.4606 16.6126 38.9109V39.2908C16.6126 40.3889 17.3444 41.319 18.3457 41.6202L18.3434 41.654C18.2872 42.4765 18.5775 43.2736 19.1609 43.8981C19.7888 44.5704 20.6762 44.9561 21.5956 44.9561H23.4046C25.1338 44.9561 26.5319 43.5777 26.6569 41.7499L26.666 41.6167C27.6615 41.312 28.3876 40.3846 28.3876 39.2907V38.9107C29.7177 38.4603 30.9914 37.8588 32.1857 37.1149L34.2463 39.1757C34.521 39.4501 34.9662 39.4503 35.2407 39.1757L40.1456 34.2709C40.2775 34.139 40.3516 33.9602 40.3516 33.7737C40.3516 33.5873 40.2775 33.4085 40.1457 33.2765L38.0849 31.2158C39.1495 29.5076 39.9164 27.6574 40.3706 25.7015H43.2834C43.6717 25.7015 43.9866 25.3867 43.9866 24.9984V18.062C43.9864 17.6737 43.6716 17.3589 43.2833 17.3589ZM18.0188 36.2892H26.9813V37.5862H18.0188V36.2892ZM26.9812 34.5344V34.8829H18.0188V34.5344C18.0188 33.3596 17.4399 32.3408 16.4304 31.7392C12.8496 29.6057 10.625 25.6938 10.625 21.5301C10.625 14.9823 15.9521 9.65522 22.5 9.65522C29.048 9.65522 34.375 14.9823 34.375 21.5301C34.375 25.6938 32.1505 29.6057 28.5696 31.7392C27.5602 32.3408 26.9812 33.3596 26.9812 34.5344ZM23.4045 43.5498H21.5955C21.0642 43.5498 20.5514 43.3269 20.1885 42.9383C19.8739 42.6016 19.717 42.1795 19.7463 41.7499L19.7482 41.7229H25.2462C25.1436 42.7689 24.3637 43.5498 23.4045 43.5498ZM25.9553 40.3167H19.0447C18.4789 40.3167 18.0187 39.8566 18.0187 39.2908V38.9923H26.9812V39.2908C26.9812 39.8566 26.521 40.3167 25.9553 40.3167ZM42.5801 24.2953H39.8028C39.4675 24.2953 39.1788 24.5321 39.1132 24.861C38.68 27.0339 37.8349 29.073 36.6014 30.9215C36.4153 31.2004 36.452 31.5718 36.689 31.8089L38.6539 33.7739L34.7434 37.6842L32.7787 35.7195C32.5416 35.4825 32.1701 35.4458 31.8911 35.6318C30.7939 36.3641 29.6187 36.9633 28.3875 37.4197V34.5345C28.3875 33.8577 28.7078 33.294 29.2895 32.9474C31.2313 31.7904 32.8577 30.1458 33.9927 28.1914C35.1628 26.1764 35.7814 23.873 35.7814 21.5302C35.7814 14.207 29.8234 8.24906 22.5001 8.24906C15.1768 8.24906 9.21888 14.207 9.21888 21.5302C9.21888 23.873 9.83736 26.1764 11.0075 28.1914C12.1426 30.1458 13.7689 31.7904 15.7107 32.9473C16.2924 33.2939 16.6128 33.8576 16.6128 34.5345V37.4198C15.3817 36.9635 14.2065 36.3643 13.1089 35.6319C12.8298 35.4456 12.4585 35.4825 12.2214 35.7196L10.2567 37.6844L6.34635 33.7739L8.31114 31.8092C8.54818 31.5721 8.58483 31.2005 8.39877 30.9216C7.1654 29.074 6.32033 27.0348 5.88677 24.861C5.8212 24.5322 5.53257 24.2953 5.19718 24.2953H2.41992V18.7652H5.197C5.5323 18.7652 5.82102 18.5284 5.88659 18.1995C6.3198 16.0267 7.16496 13.9876 8.39859 12.139C8.58466 11.8601 8.54801 11.4887 8.31097 11.2515L6.346 9.28661L10.2565 5.37627L12.2213 7.34115C12.4584 7.57819 12.83 7.61484 13.1089 7.42878C14.9566 6.19559 16.9956 5.35052 19.1693 4.91695C19.4981 4.85139 19.735 4.56275 19.735 4.22736V1.4502H25.2652V4.22754C25.2652 4.56284 25.5019 4.85156 25.8309 4.91713C28.0035 5.35017 30.0425 6.19523 31.8913 7.42904C32.1703 7.61528 32.5416 7.57837 32.7788 7.34142L34.7437 5.37636L38.6541 9.28687L36.6891 11.2518C36.4521 11.4889 36.4154 11.8605 36.6015 12.1394C37.8347 13.987 38.6799 16.0261 39.1134 18.1996C39.1789 18.5284 39.4676 18.7653 39.803 18.7653H42.5803V24.2953H42.5801ZM30.4577 19.6597C30.3486 19.3235 30.0503 19.087 29.6978 19.0573L25.0968 18.671L23.3075 14.4144C23.1705 14.089 22.8537 13.8785 22.5 13.8785C22.1464 13.8785 21.8295 14.089 21.6925 14.4145L19.9033 18.671L15.302 19.0573C14.9498 19.087 14.6516 19.3234 14.5423 19.6596C14.4332 19.9956 14.5355 20.3621 14.8031 20.5932L18.2984 23.6103L17.2442 28.1053C17.1826 28.3675 17.2429 28.6385 17.4095 28.8488C17.5773 29.0605 17.8279 29.1819 18.0969 29.1819C18.2562 29.1819 18.4131 29.1379 18.5506 29.0547L22.5 26.6629L26.4496 29.0547C26.5869 29.1379 26.7439 29.1819 26.9032 29.1819C27.1722 29.1819 27.4227 29.0605 27.5905 28.8489C27.7571 28.6387 27.8174 28.3678 27.7561 28.1054L26.7016 23.6101L30.1969 20.5932C30.4644 20.3623 30.5668 19.9958 30.4577 19.6597ZM25.4605 22.8241C25.2623 22.9951 25.1756 23.262 25.2353 23.5169L26.0988 27.1985L22.8642 25.2396C22.7523 25.1718 22.6262 25.1379 22.4999 25.1379C22.3737 25.1379 22.2477 25.1718 22.1356 25.2396L18.9012 27.1984L19.7646 23.5169C19.8244 23.2621 19.7375 22.995 19.5394 22.8241L16.6769 20.3531L20.4451 20.0366C20.7059 20.0147 20.933 19.8497 21.0345 19.6085L22.5 16.1225L23.9654 19.6085C24.0669 19.8497 24.294 20.0147 24.5547 20.0366L28.323 20.3531L25.4605 22.8241Z" fill="#C4EF17"/>
</g>
</svg>
