<svg width="45" height="45" viewBox="0 0 45 45" fill="none" xmlns="http://www.w3.org/2000/svg">
<g id="strategy 2">
<g id="Group">
<path id="Vector" d="M40.9075 16.9623L38.1014 16.5404C37.6982 14.6907 36.9769 12.9503 35.9521 11.3541L37.6388 9.07075C38.1805 8.33722 38.1058 7.33685 37.461 6.69199L35.7718 5.00282C35.1269 4.35806 34.1267 4.28317 33.393 4.82511L31.1096 6.51173C29.5135 5.48692 27.773 4.76561 25.9235 4.36245L25.5017 1.55628C25.3662 0.654522 24.6058 0 23.6939 0H21.3051C20.3931 0 19.6329 0.654522 19.4974 1.55628L19.0756 4.36245C17.226 4.76561 15.4855 5.48692 13.8893 6.51173L11.6059 4.82511C10.8725 4.28326 9.87209 4.35814 9.22715 5.00282L7.53807 6.69199C6.89321 7.33685 6.81842 8.33722 7.36026 9.07075L9.04689 11.3541C8.02208 12.9503 7.30076 14.6908 6.89761 16.5404L4.09144 16.9623C3.18968 17.0977 2.53516 17.8581 2.53516 18.7699V21.1586C2.53516 22.0705 3.18968 22.8307 4.09144 22.9663L6.89761 23.3881C7.30076 25.2376 8.02199 26.9781 9.04689 28.5744L7.36026 30.8578C6.81842 31.5913 6.89321 32.5918 7.53807 33.2365L9.22715 34.9257C9.87209 35.5705 10.8724 35.6453 11.6059 35.1034L13.8895 33.4167C14.5553 33.8435 15.2532 34.2207 15.9746 34.5441C15.8776 34.6915 15.7775 34.8375 15.6741 34.9816C15.2992 35.505 15.101 36.122 15.101 36.7658V37.6035C14.1947 37.8736 13.5319 38.7141 13.5319 39.7069C13.5319 40.0382 13.6067 40.3522 13.7387 40.6341C12.751 40.8545 12.0104 41.7372 12.0104 42.7903V44.3394C12.0104 44.7042 12.3061 44.9999 12.6709 44.9999H32.3281C32.6928 44.9999 32.9886 44.7042 32.9886 44.3394V42.7903C32.9886 41.7371 32.2478 40.8544 31.2601 40.634C31.3922 40.3521 31.467 40.0382 31.467 39.7069C31.467 38.7141 30.8042 37.8736 29.898 37.6035V36.7658C29.898 36.122 29.6998 35.505 29.3248 34.9816C29.2216 34.8374 29.1215 34.6915 29.0243 34.544C29.7458 34.2207 30.4436 33.8435 31.1095 33.4166L33.3929 35.1033C33.7208 35.3455 34.1019 35.4646 34.4808 35.4645C34.9496 35.4645 35.415 35.2822 35.7717 34.9255L37.4609 33.2365C38.1057 32.5917 38.1804 31.5913 37.6387 30.8577L35.9521 28.5743C36.9769 26.9781 37.6981 25.2377 38.1013 23.388L40.9075 22.9663C41.8093 22.8306 42.4638 22.0704 42.4638 21.1585V18.7699C42.4638 17.858 41.8093 17.0977 40.9075 16.9623ZM31.6676 42.7903V43.6791H13.3314V42.7903C13.3314 42.3004 13.7301 41.9017 14.22 41.9017H30.7788C31.2689 41.9017 31.6676 42.3004 31.6676 42.7903ZM30.1461 39.707C30.1461 40.1888 29.7541 40.5808 29.2724 40.5808H15.7267C15.2448 40.5808 14.8529 40.1888 14.8529 39.707C14.8529 39.2251 15.2448 38.8332 15.7267 38.8332H18.7969C19.1617 38.8332 19.4574 38.5374 19.4574 38.1727C19.4574 37.8079 19.1617 37.5122 18.7969 37.5122H16.422V36.7658C16.422 36.3996 16.5347 36.0486 16.7479 35.7509C18.5255 33.2693 19.4652 30.3441 19.4652 27.2914V26.4679H25.5337V27.2914C25.5337 30.3441 26.4733 33.2693 28.2509 35.7509C28.4642 36.0487 28.5769 36.3996 28.5769 36.7658V37.5122H21.4387C21.0739 37.5122 20.7782 37.8079 20.7782 38.1727C20.7782 38.5374 21.0739 38.8332 21.4387 38.8332H29.2722C29.7541 38.8332 30.1461 39.2251 30.1461 39.707ZM22.4992 19.5238H17.2751C16.8047 19.5238 16.4221 19.1411 16.4221 18.6707V14.8729C16.4221 14.8645 16.4289 14.8576 16.4373 14.8576H18.1292C18.1376 14.8576 18.1444 14.8645 18.1444 14.8729V16.3387C18.1444 17.0367 18.7123 17.6046 19.4103 17.6046H20.2838C20.9818 17.6046 21.5497 17.0367 21.5497 16.3387V14.8729C21.5497 14.8645 21.5565 14.8576 21.565 14.8576H23.4342C23.4427 14.8576 23.4495 14.8645 23.4495 14.8729V16.3387C23.4495 17.0367 24.0174 17.6046 24.7154 17.6046H25.5889C26.2869 17.6046 26.8548 17.0367 26.8548 16.3387V14.8729C26.8548 14.8645 26.8616 14.8576 26.87 14.8576H28.5619C28.5702 14.8576 28.5771 14.8645 28.5771 14.8729V18.6707C28.5771 19.1411 28.1944 19.5238 27.724 19.5238H25.1411C24.7763 19.5238 24.4806 19.8195 24.4806 20.1843C24.4806 20.549 24.7763 20.8448 25.1411 20.8448H26.4393C26.9333 20.8448 27.3353 21.2467 27.3353 21.7407C27.3353 22.2347 26.9333 22.6367 26.4393 22.6367H18.5597C18.0657 22.6367 17.6638 22.2347 17.6638 21.7407C17.6638 21.2467 18.0657 20.8448 18.5597 20.8448H22.4992C22.8639 20.8448 23.1597 20.5491 23.1597 20.1843C23.1597 19.8195 22.864 19.5238 22.4992 19.5238ZM25.5338 23.9576V25.147H19.4653V23.9576H25.5338ZM41.1429 21.1587C41.1429 21.4116 40.9613 21.6226 40.7112 21.6602L37.4479 22.1507C37.1699 22.1926 36.9487 22.4058 36.8969 22.6821C36.5226 24.6779 35.7501 26.5419 34.6011 28.2223C34.4424 28.4543 34.448 28.7614 34.6151 28.9875L36.5763 31.6426C36.7266 31.8461 36.706 32.1237 36.527 32.3025L34.8379 33.9917C34.659 34.1706 34.3814 34.1913 34.178 34.041L31.5228 32.0797C31.2968 31.9127 30.9897 31.9071 30.7575 32.0658C29.9992 32.5843 29.1909 33.0298 28.3493 33.3969C27.9892 32.7085 27.6924 31.9929 27.4607 31.2565C29.528 30.3488 31.2986 28.8998 32.6058 27.0351C34.0629 24.9565 34.8331 22.5114 34.8331 19.9643C34.8331 13.1636 29.3003 7.63075 22.4996 7.63075C21.2196 7.63075 19.9576 7.82613 18.749 8.21153C18.4015 8.32236 18.2097 8.69388 18.3204 9.0414C18.4312 9.38892 18.8028 9.58087 19.1503 9.47004C20.2289 9.12612 21.3558 8.95166 22.4995 8.95166C28.5719 8.95166 33.5121 13.8919 33.5121 19.9643C33.5121 22.2387 32.8246 24.4216 31.5241 26.2768C30.3978 27.8836 28.887 29.1451 27.1248 29.9599C26.9462 29.0893 26.8548 28.1966 26.8548 27.2914V26.4679H27.3419C27.7067 26.4679 28.0024 26.1722 28.0024 25.8074C28.0024 25.4427 27.7067 25.1469 27.3419 25.1469H26.8548V23.9179C27.8792 23.7228 28.6562 22.8211 28.6562 21.7406C28.6562 21.3775 28.5677 21.0351 28.4123 20.7323C29.2746 20.4437 29.8981 19.6289 29.8981 18.6706V14.8729C29.8981 14.1361 29.2986 13.5367 28.5619 13.5367H26.87C26.1333 13.5367 25.5338 14.1361 25.5338 14.8729V16.2836H24.7704V14.8729C24.7704 14.1361 24.171 13.5367 23.4342 13.5367H21.565C20.8282 13.5367 20.2288 14.1361 20.2288 14.8729V16.2836H19.4654V14.8729C19.4654 14.1361 18.8659 13.5367 18.1292 13.5367H16.4373C15.7006 13.5367 15.1011 14.1361 15.1011 14.8729V18.6707C15.1011 19.6289 15.7246 20.4438 16.5868 20.7324C16.4315 21.0352 16.3429 21.3776 16.3429 21.7407C16.3429 22.8212 17.12 23.7229 18.1444 23.918V25.147H17.6573C17.2925 25.147 16.9968 25.4428 16.9968 25.8075C16.9968 26.1722 17.2925 26.468 17.6573 26.468H18.1444V27.2915C18.1444 28.1967 18.0529 29.0894 17.8744 29.96C16.1122 29.1451 14.6014 27.8836 13.4751 26.2769C12.1745 24.4216 11.4871 22.2388 11.4871 19.9644C11.4871 18.02 12.0004 16.1092 12.9716 14.4385C13.9145 12.8164 15.2655 11.4518 16.8784 10.4925C17.1919 10.306 17.2949 9.9007 17.1084 9.5872C16.922 9.27378 16.5166 9.17077 16.2031 9.35719C14.3976 10.4311 12.8852 11.9587 11.8297 13.7747C10.7414 15.6468 10.1662 17.7872 10.1662 19.9644C10.1662 22.5116 10.9364 24.9566 12.3935 27.0352C13.7007 28.8999 15.4713 30.349 17.5386 31.2567C17.3069 31.9931 17.0101 32.7087 16.65 33.397C15.8083 33.03 15 32.5844 14.2417 32.0659C14.0096 31.9073 13.7026 31.9129 13.4765 32.0799L10.8212 34.0412C10.6179 34.1915 10.3404 34.1708 10.1614 33.9919L8.47234 32.3027C8.29349 32.1238 8.27275 31.8464 8.42304 31.6429L10.3843 28.9877C10.5513 28.7617 10.5569 28.4546 10.3982 28.2225C9.24912 26.5419 8.47665 24.6779 8.10241 22.6823C8.05056 22.406 7.82942 22.1927 7.55143 22.1509L4.28813 21.6604C4.038 21.6228 3.85642 21.4118 3.85642 21.1589V18.7699C3.85642 18.517 4.038 18.3061 4.28813 18.2685L7.55151 17.7779C7.8296 17.7362 8.05065 17.5228 8.1025 17.2465C8.47683 15.2508 9.24921 13.3868 10.3983 11.7063C10.5569 11.4743 10.5514 11.1672 10.3844 10.9411L8.42277 8.28589C8.27248 8.08242 8.29322 7.80486 8.47208 7.62601L10.1612 5.93692C10.3399 5.75798 10.6175 5.73732 10.821 5.88762L13.4762 7.8489C13.7023 8.01589 14.0094 8.02151 14.2414 7.86287C15.9219 6.71379 17.7859 5.94132 19.7816 5.56708C20.0579 5.51522 20.2711 5.29418 20.313 5.01609L20.8036 1.75271C20.8412 1.50258 21.052 1.321 21.305 1.321H23.6938C23.9467 1.321 24.1577 1.50258 24.1953 1.75271L24.6858 5.01609C24.7276 5.29409 24.9408 5.51522 25.2172 5.56708C27.213 5.94141 29.077 6.71379 30.7575 7.86287C30.9896 8.0216 31.2966 8.01589 31.5227 7.8489L34.1779 5.88762C34.3814 5.73732 34.6589 5.75807 34.8378 5.93692L36.5269 7.62609C36.7058 7.80495 36.7265 8.08251 36.5763 8.28598L34.615 10.9412C34.448 11.1674 34.4424 11.4744 34.601 11.7065C35.75 13.3869 36.5225 15.2509 36.8968 17.2467C36.9486 17.523 37.1698 17.7362 37.4478 17.7781L40.7111 18.2687C40.9612 18.3063 41.1428 18.5171 41.1428 18.7701V21.1587H41.1429Z" fill="#C4EF17"/>
</g>
</g>
</svg>
