<svg width="45" height="45" viewBox="0 0 45 45" fill="none" xmlns="http://www.w3.org/2000/svg">
<g id="real-estate 1" clip-path="url(#clip0_185_1083)">
<g id="Group">
<g id="Group_2">
<path id="Vector" d="M44.0931 34.1414L44.0103 34.0585C43.0317 33.0801 41.582 32.809 40.3419 33.3074V19.3361H43.6957C44.0513 19.3361 44.3718 19.1218 44.5078 18.7933C44.6438 18.4647 44.5684 18.0865 44.3167 17.8353L26.716 0.257214C26.3729 -0.0854712 25.8169 -0.0853833 25.4738 0.257302L20.6417 5.08461C20.2983 5.42764 20.298 5.98417 20.6411 6.32756C20.9842 6.67103 21.5408 6.6713 21.8841 6.32817L26.0951 2.12137L41.5718 17.5783H38.4597L26.7159 5.84961C26.3728 5.50692 25.8169 5.50692 25.4738 5.84961L13.7301 17.5783H10.6179L16.9874 11.217C17.3309 10.874 17.3312 10.3175 16.9882 9.97405C16.6452 9.63057 16.0887 9.63022 15.7453 9.97326L7.87307 17.8353C7.62144 18.0866 7.54603 18.4647 7.68199 18.7933C7.81796 19.1218 8.1385 19.3361 8.4941 19.3361H11.8652V26.8186H10.5688V26.393C10.5688 24.8037 9.27598 23.5109 7.68674 23.5109H0.878906C0.393486 23.5109 0 23.9045 0 24.3898V44.1212C0 44.6066 0.393486 45.0001 0.878906 45.0001H7.68674C9.27589 45.0001 10.5688 43.7073 10.5688 42.118V41.7553L12.8782 43.154C14.8724 44.3618 17.1588 45.0002 19.4902 45.0002H32.2536C34.7467 45.0002 37.1866 44.1361 39.124 42.5668L43.8525 38.7369C44.5332 38.1855 44.9499 37.3675 44.9957 36.4927C45.0415 35.6178 44.7125 34.7609 44.0931 34.1414ZM8.81104 42.118C8.81104 42.738 8.30672 43.2423 7.68674 43.2423H1.75781V25.2687H7.68674C8.30663 25.2687 8.81104 25.773 8.81104 26.393V42.118ZM13.623 19.3361H14.0938C14.3267 19.3361 14.55 19.2436 14.7148 19.0791L26.0949 7.71368L37.4749 19.0791C37.6397 19.2437 37.8631 19.3361 38.0959 19.3361H38.584V34.3875C38.584 34.4196 38.5859 34.4512 38.5893 34.4823L36.7322 35.8788C36.6121 35.3007 36.3384 34.7597 35.9252 34.3466C35.4271 33.8486 34.765 33.5744 34.0608 33.5744H31.8957V21.006C31.8957 20.5206 31.5022 20.1271 31.0168 20.1271H21.173C20.6876 20.1271 20.2941 20.5206 20.2941 21.006V27.7181C19.4303 27.1334 18.4128 26.8186 17.3466 26.8186H13.623V19.3361ZM30.1379 21.8849V33.5744H26.9928C26.5233 33.5744 26.0819 33.3915 25.7513 33.0609L22.0453 29.3376C22.0493 29.3037 22.0519 29.2694 22.0519 29.2344V21.8849H30.1379ZM43.2403 36.4007C43.2202 36.7845 43.0447 37.129 42.7461 37.3709L38.0176 41.2008C36.3923 42.5173 34.3452 43.2423 32.2536 43.2423H19.4902C17.4799 43.2423 15.5083 42.6918 13.7888 41.6504L10.5688 39.7002V28.5765H17.3466C18.2856 28.5765 19.1685 28.9422 19.8311 29.6048L24.5069 34.3024C25.171 34.9665 26.0538 35.3322 26.9928 35.3322H34.0608C34.2955 35.3322 34.5163 35.4236 34.6823 35.5896C35.0852 35.9926 35.1178 36.6564 34.9438 37.0764C34.8919 37.2018 34.8307 37.2913 34.7674 37.3565L34.7225 37.3902C34.7253 37.3907 34.7278 37.3912 34.7306 37.3917C34.578 37.5249 34.4209 37.5257 34.3543 37.5257H23.8184C23.2109 37.5257 22.6208 37.3507 22.1118 37.0196L19.2913 35.1851L19.281 35.1784C18.8745 34.9133 18.3299 35.0274 18.0646 35.434C17.7993 35.8405 17.9137 36.3851 18.3202 36.6504L21.1533 38.4932C21.9483 39.0102 22.8698 39.2836 23.8184 39.2836H34.3542C34.9441 39.2836 35.4757 39.0778 35.8939 38.7087L40.6899 35.1019C41.3401 34.6625 42.2113 34.7453 42.7672 35.3015L42.8502 35.3844C43.1219 35.656 43.2605 36.017 43.2403 36.4007Z" fill="#C4EF17"/>
</g>
</g>
<g id="Group_3">
<g id="Group_4">
<path id="Vector_2" d="M35.6836 25.5432C35.1982 25.5432 34.8047 25.9368 34.8047 26.4221V31.9921C34.8047 32.4774 35.1982 32.871 35.6836 32.871C36.169 32.871 36.5625 32.4774 36.5625 31.9921V26.4221C36.5625 25.9368 36.169 25.5432 35.6836 25.5432Z" fill="#C4EF17"/>
</g>
</g>
<g id="Group_5">
<g id="Group_6">
<path id="Vector_3" d="M36.305 22.4559C36.1415 22.2916 35.9147 22.1984 35.6836 22.1984C35.4524 22.1984 35.2257 22.2916 35.0622 22.4559C34.8987 22.6193 34.8047 22.8453 34.8047 23.0772C34.8047 23.3085 34.8987 23.5352 35.0622 23.6986C35.2257 23.8622 35.4524 23.9561 35.6836 23.9561C35.9147 23.9561 36.1415 23.8622 36.305 23.6986C36.4685 23.5352 36.5625 23.3085 36.5625 23.0772C36.5625 22.8452 36.4685 22.6193 36.305 22.4559Z" fill="#C4EF17"/>
</g>
</g>
<g id="Group_7">
<g id="Group_8">
<path id="Vector_4" d="M24.6849 27.0754C24.5214 26.912 24.2946 26.8188 24.0635 26.8188C23.8314 26.8188 23.6056 26.912 23.4412 27.0754C23.2777 27.2398 23.1846 27.4657 23.1846 27.6968C23.1846 27.9288 23.2777 28.1547 23.4412 28.3191C23.6056 28.4826 23.8323 28.5766 24.0635 28.5766C24.2946 28.5766 24.5205 28.4826 24.6849 28.3191C24.8483 28.1547 24.9424 27.9288 24.9424 27.6968C24.9424 27.4657 24.8483 27.2398 24.6849 27.0754Z" fill="#C4EF17"/>
</g>
</g>
<g id="Group_9">
<g id="Group_10">
<path id="Vector_5" d="M19.436 7.52877C19.0928 7.18556 18.5363 7.18556 18.193 7.52877C17.8497 7.87198 17.8497 8.42851 18.193 8.77181L18.1931 8.7719C18.3648 8.94355 18.5896 9.02924 18.8145 9.02924C19.0394 9.02924 19.2644 8.94337 19.436 8.77181C19.7792 8.4286 19.7791 7.87198 19.436 7.52877Z" fill="#C4EF17"/>
</g>
</g>
<g id="Group_11">
<g id="Group_12">
<path id="Vector_6" d="M26.0947 11.5721C24.2046 11.5721 22.667 13.1098 22.667 14.9999C22.667 16.89 24.2046 18.4276 26.0947 18.4276C27.9848 18.4276 29.5225 16.89 29.5225 14.9999C29.5225 13.1098 27.9848 11.5721 26.0947 11.5721ZM26.0947 16.6698C25.1739 16.6698 24.4248 15.9207 24.4248 14.9999C24.4248 14.079 25.1739 13.33 26.0947 13.33C27.0156 13.33 27.7646 14.079 27.7646 14.9999C27.7646 15.9207 27.0156 16.6698 26.0947 16.6698Z" fill="#C4EF17"/>
</g>
</g>
<g id="Group_13">
<g id="Group_14">
<path id="Vector_7" d="M5.90557 38.7536C5.74209 38.59 5.51621 38.496 5.28418 38.496C5.05303 38.496 4.82715 38.59 4.66279 38.7536C4.49932 38.917 4.40527 39.1438 4.40527 39.3749C4.40527 39.6061 4.49932 39.8328 4.66279 39.9962C4.82715 40.1597 5.05303 40.2538 5.28418 40.2538C5.51621 40.2538 5.74209 40.1598 5.90557 39.9962C6.06992 39.8328 6.16309 39.6061 6.16309 39.3749C6.16309 39.1438 6.06992 38.917 5.90557 38.7536Z" fill="#C4EF17"/>
</g>
</g>
</g>
<defs>
<clipPath id="clip0_185_1083">
<rect width="45" height="45" fill="white"/>
</clipPath>
</defs>
</svg>
