<svg width="45" height="45" viewBox="0 0 45 45" fill="none" xmlns="http://www.w3.org/2000/svg">
<path d="M34.5772 23.9634C34.2865 23.9634 33.9934 23.9774 33.7062 24.005C33.5206 24.0228 33.3496 24.1136 33.231 24.2575C33.1123 24.4013 33.0557 24.5864 33.0735 24.7721C33.0913 24.9577 33.1821 25.1286 33.326 25.2473C33.4699 25.366 33.655 25.4226 33.8406 25.4048C34.0834 25.3815 34.3313 25.3696 34.5772 25.3696C36.3987 25.37 38.1596 26.0239 39.5399 27.2124C40.9202 28.4009 41.8282 30.0452 42.099 31.8465C42.3698 33.6477 41.9854 35.4863 41.0157 37.0282C40.0459 38.5701 38.5551 39.7128 36.8143 40.2488C35.0734 40.7848 33.1981 40.6784 31.529 39.949C29.8599 39.2196 28.508 37.9155 27.7188 36.2739C26.9296 34.6323 26.7556 32.762 27.2284 31.0029C27.7011 29.2439 28.7893 27.7128 30.2952 26.688C30.3715 26.636 30.4367 26.5694 30.4873 26.4922C30.5379 26.4149 30.5727 26.3284 30.5899 26.2377C30.6071 26.147 30.6062 26.0538 30.5873 25.9634C30.5684 25.873 30.5319 25.7872 30.4799 25.7109C30.4279 25.6346 30.3613 25.5693 30.2841 25.5188C30.2068 25.4682 30.1204 25.4333 30.0296 25.4162C29.9389 25.399 29.8457 25.3999 29.7553 25.4188C29.6649 25.4376 29.5791 25.4741 29.5028 25.5262C27.7179 26.7408 26.4281 28.5556 25.8677 30.6406C25.3073 32.7256 25.5135 34.9425 26.449 36.8883C27.3844 38.8341 28.9869 40.3798 30.9653 41.2443C32.9437 42.1088 35.1665 42.2348 37.2299 41.5995C39.2933 40.9641 41.0603 39.6095 42.2097 37.7819C43.3591 35.9542 43.8146 33.7749 43.4934 31.6399C43.1723 29.5049 42.0958 27.556 40.4596 26.1474C38.8235 24.7387 36.7362 23.9639 34.5772 23.9636V23.9634Z" fill="#C4EF17"/>
<path d="M24.3916 32.1424L23.9717 31.9579L30.2008 22.9403C31.0786 25.3446 32.2115 28.4828 32.9943 30.6559C32.4386 31.0352 32.0374 31.6014 31.8637 32.2515C31.6899 32.9015 31.7551 33.5923 32.0474 34.1984C32.3397 34.8045 32.8398 35.2856 33.4567 35.5543C34.0736 35.823 34.7664 35.8615 35.4092 35.6628C36.0521 35.4641 36.6024 35.0413 36.96 34.4714C37.3177 33.9014 37.459 33.2221 37.3583 32.5567C37.2577 31.8914 36.9216 31.2843 36.4114 30.8457C35.9011 30.4071 35.2504 30.1661 34.5775 30.1665C34.4896 30.1665 34.403 30.1711 34.3173 30.179C33.4564 27.7894 32.1722 24.233 31.2682 21.7644L32.3154 22.389C32.3586 22.4148 32.4045 22.4359 32.4522 22.4519L33.9407 22.9505C34.2594 23.0561 34.6013 23.0699 34.9274 22.9903C35.2535 22.9107 35.5506 22.7409 35.7847 22.5003L36.7569 21.4952C36.9865 21.2559 37.1238 20.943 37.1445 20.6121C37.1653 20.2812 37.0681 19.9536 36.8702 19.6875L37.4021 17.9366C37.4341 17.8315 37.4409 17.7204 37.4222 17.6122C37.4035 17.504 37.3597 17.4017 37.2943 17.3135C37.2289 17.2252 37.1437 17.1535 37.0456 17.1042C36.9475 17.0548 36.8392 17.029 36.7294 17.029H33.634C33.5868 17.0291 33.5397 17.0338 33.4934 17.0432L31.2927 17.4914L29.4909 16.14L28.6684 13.3819C28.7545 12.6888 28.7687 11.9886 28.7109 11.2925C28.7412 11.3716 28.7742 11.4579 28.8107 11.5538C28.8893 11.7635 29.0218 11.9487 29.195 12.0907C29.3681 12.2327 29.5757 12.3264 29.7967 12.3624C29.8688 12.3746 29.9417 12.3807 30.0148 12.3808C30.2017 12.3809 30.3862 12.3397 30.5553 12.2603C30.7244 12.1809 30.8738 12.0652 30.9931 11.9214L31.5619 11.2428H32.0877C32.2633 11.2428 32.4324 11.1772 32.562 11.0588C32.6916 10.9405 32.7722 10.7779 32.7881 10.6031L32.9111 9.24245L32.9801 9.27584C33.0713 9.31987 33.1709 9.34368 33.2721 9.34566C33.3734 9.34763 33.4738 9.32771 33.5667 9.28727C33.6595 9.24683 33.7425 9.18681 33.81 9.11133C33.8775 9.03585 33.9279 8.94668 33.9577 8.84993C33.9951 8.72873 34.8432 5.85725 32.1524 3.84324C29.784 2.07057 26.2646 2.47047 26.1159 2.48823C25.9937 2.50294 25.8775 2.54949 25.7789 2.62323C25.6803 2.69696 25.6028 2.79529 25.5541 2.90838C25.5054 3.02147 25.4873 3.14536 25.5016 3.26765C25.5158 3.38994 25.5619 3.50635 25.6353 3.60523C25.6423 3.61481 26.3436 4.58626 26.3436 5.51597C26.3436 5.67084 26.2107 6.12646 26.0914 6.43821C26.0417 6.56804 26.0315 6.7097 26.0623 6.84528C26.0931 6.98087 26.1633 7.10429 26.2642 7.19996C25.4339 7.03595 21.4214 6.32404 18.5224 7.24768C16.006 8.04942 14.1618 10.6446 13.8271 11.1412C13.3583 11.5821 10.8426 14.0813 11.4355 16.4002C10.9737 16.4124 10.5354 16.6059 10.2153 16.9389C9.89524 17.2719 9.71915 17.7175 9.72517 18.1794C9.73119 18.6412 9.91884 19.0821 10.2475 19.4067C10.5761 19.7312 11.0194 19.9132 11.4813 19.9134H14.6184C14.6544 19.9132 14.6904 19.9103 14.7259 19.9046C15.0039 20.1058 15.306 20.319 15.6386 20.5462L16.6627 23.1977L11.8814 29.7825C11.2329 29.4867 10.5098 29.395 9.80799 29.5197C9.10618 29.6443 8.45886 29.9794 7.95189 30.4805C7.44492 30.9815 7.10228 31.6249 6.9694 32.3252C6.83652 33.0255 6.91969 33.7496 7.20789 34.4016C7.49608 35.0535 7.97567 35.6024 8.58304 35.9755C9.1904 36.3485 9.89684 36.5281 10.6086 36.4904C11.3204 36.4527 12.0039 36.1995 12.5685 35.7644C13.133 35.3292 13.552 34.7327 13.7697 34.054L17.0515 34.4055C17.0598 34.9531 17.1851 35.4925 17.4191 35.9876C16.828 37.3589 15.8463 38.5259 14.5965 39.3431C13.3467 40.1603 11.884 40.5916 10.3908 40.5832C8.89752 40.5747 7.43978 40.127 6.19926 39.2958C4.95873 38.4645 3.99031 37.2866 3.4147 35.9087C2.83909 34.5308 2.68177 33.014 2.96234 31.5473C3.2429 30.0806 3.94895 28.729 4.99247 27.6608C6.03599 26.5927 7.37081 25.8553 8.83055 25.5406C10.2903 25.2259 11.8104 25.3478 13.2013 25.8911C13.3749 25.9591 13.5685 25.9554 13.7394 25.8807C13.9103 25.806 14.0445 25.6665 14.1125 25.4928C14.1805 25.3191 14.1768 25.1256 14.1021 24.9547C14.0274 24.7838 13.8879 24.6496 13.7142 24.5816C12.0963 23.9481 10.3298 23.7956 8.62722 24.1423C6.92466 24.4891 5.35852 25.3203 4.11717 26.536C2.87583 27.7518 2.01214 29.3003 1.62999 30.9952C1.24784 32.6902 1.36351 34.4595 1.96308 36.0903C2.56264 37.7211 3.62058 39.1439 5.00964 40.1877C6.3987 41.2314 8.05973 41.8517 9.79295 41.9738C11.5262 42.0959 13.2578 41.7147 14.7795 40.8761C16.3012 40.0374 17.5482 38.7769 18.3705 37.2463C18.7952 37.6194 19.2966 37.8947 19.8393 38.0528C20.382 38.2109 20.9528 38.2481 21.5114 38.1615C22.07 38.075 22.6029 37.8669 23.0723 37.552C23.5417 37.237 23.9363 36.8229 24.2282 36.3389C24.3489 36.3118 24.4603 36.2534 24.5511 36.1694C24.6419 36.0854 24.7088 35.979 24.7452 35.8607L25.2861 34.0914C25.4016 33.7134 25.3743 33.3061 25.2094 32.9468C25.0446 32.5876 24.7535 32.3014 24.3916 32.1424ZM33.5044 32.073C33.7544 32.7683 33.9087 33.198 33.9158 33.2173C33.9466 33.3048 33.9943 33.3853 34.0564 33.4542C34.1184 33.5231 34.1934 33.5791 34.2771 33.6189C34.3609 33.6587 34.4516 33.6815 34.5442 33.6861C34.6368 33.6907 34.7294 33.6769 34.8167 33.6456C34.9039 33.6143 34.9841 33.566 35.0526 33.5035C35.1212 33.4411 35.1767 33.3657 35.2159 33.2817C35.2552 33.1977 35.2775 33.1068 35.2815 33.0142C35.2855 32.9216 35.2711 32.8291 35.2392 32.742C35.2322 32.7224 35.0779 32.2927 34.8276 31.597C35.1325 31.6518 35.4109 31.8057 35.6195 32.0349C35.8281 32.264 35.9552 32.5556 35.9811 32.8644C36.0071 33.1732 35.9303 33.4819 35.7629 33.7427C35.5955 34.0034 35.3467 34.2016 35.0551 34.3065C34.7635 34.4114 34.4455 34.4171 34.1503 34.3228C33.8551 34.2285 33.5993 34.0394 33.4226 33.7849C33.2459 33.5303 33.1581 33.2246 33.1729 32.915C33.1877 32.6055 33.3042 32.3095 33.5044 32.073ZM10.4227 35.0891C10.1198 35.0892 9.82041 35.0241 9.54491 34.8982C9.26941 34.7723 9.02426 34.5885 8.82614 34.3594C8.62801 34.1302 8.48156 33.8611 8.39674 33.5703C8.31192 33.2796 8.29073 32.9739 8.3346 32.6742C8.37846 32.3745 8.48637 32.0877 8.65097 31.8334C8.81558 31.5792 9.03301 31.3633 9.2885 31.2006C9.54398 31.0378 9.83151 30.932 10.1315 30.8904C10.4316 30.8487 10.7371 30.8721 11.0272 30.9591L9.8537 32.5753C9.78126 32.6751 9.73633 32.7921 9.72341 32.9147C9.71049 33.0374 9.73003 33.1612 9.78009 33.2739C9.83015 33.3866 9.90895 33.4841 10.0086 33.5567C10.1082 33.6293 10.2252 33.6744 10.3478 33.6876L12.321 33.8985C12.1481 34.255 11.8784 34.5558 11.5428 34.7663C11.2071 34.9768 10.8189 35.0887 10.4227 35.0891ZM11.7054 32.4186L12.1624 31.7889C12.3105 32.0045 12.417 32.246 12.4764 32.5008L11.7054 32.4186ZM20.5197 23.5785C20.6515 23.6542 20.7713 23.7228 20.8752 23.7818L19.8397 27.5204L18.4369 23.8887C18.9618 23.8101 19.6856 23.7025 20.5197 23.5785ZM17.9177 22.544L17.654 21.8605C17.9778 22.0632 18.2943 22.258 18.5984 22.4427L17.9177 22.544ZM22.3771 23.6267C22.4192 23.4744 22.4089 23.3122 22.3476 23.1665C22.2863 23.0208 22.1777 22.9 22.0393 22.8236C21.1805 22.349 20.1629 21.7581 19.1226 21.1197L21.6065 18.4556L24.9639 21.256C25.0692 21.3441 25.1456 21.4618 25.1832 21.5938C25.2208 21.7259 25.2179 21.8661 25.1749 21.9965L22.087 31.4427L21.0758 31.4841L20.2611 31.2689L22.3771 23.6267ZM24.4174 28.8382L26.4232 22.7042C27.5169 22.5429 28.3199 22.4252 28.9066 22.3398L24.4174 28.8382ZM26.5507 21.264C26.4428 20.8405 26.2048 20.4616 25.8703 20.1805L20.7726 15.8857L24.5198 15.2591L26.0597 18.5186C26.1194 18.6449 26.2153 18.7505 26.3352 18.8222L29.3472 20.6192L29.348 20.6216C29.3744 20.6925 29.402 20.7669 29.4302 20.8429C28.8753 20.9227 27.9858 21.0526 26.5511 21.264H26.5507ZM33.7045 18.4356H35.7804L35.6661 18.8105C35.4542 18.7667 35.2353 18.7695 35.0245 18.8187L33.5258 19.1673L32.7969 18.6206L33.7045 18.4356ZM32.9444 20.4888C33.0265 20.5504 33.1211 20.5932 33.2214 20.6143C33.3218 20.6355 33.4256 20.6344 33.5255 20.6112L35.3433 20.1883C35.3573 20.1851 35.3719 20.1854 35.3858 20.1894C35.3996 20.1933 35.4122 20.2008 35.4224 20.2109L35.7395 20.5244L34.7732 21.5234C34.7242 21.5739 34.6618 21.6095 34.5934 21.6262C34.525 21.6428 34.4533 21.6399 34.3865 21.6177L32.9699 21.1431L27.2386 17.7242L26.43 16.0132L27.8954 15.7153L28.2084 16.7647C28.2514 16.9091 28.3397 17.0359 28.4603 17.1262L32.9444 20.4888ZM31.5397 8.79376L31.4454 9.83694H31.2338C31.1311 9.83694 31.0296 9.85945 30.9365 9.9029C30.8434 9.94634 30.7609 10.0097 30.6949 10.0884L30.0499 10.8577C29.7189 9.99127 29.6943 9.94214 29.6724 9.89846C29.5921 9.73776 29.4533 9.61391 29.2845 9.55234C29.1157 9.49077 28.9297 9.49615 28.7648 9.56738L28.4261 9.71372C28.274 9.23534 28.0551 8.78087 27.7757 8.3638L28.0441 8.21571C28.2902 8.33462 28.5438 8.44791 28.7904 8.5431C29.9425 8.98748 31.0515 8.76476 31.5844 8.60462C31.5608 8.66529 31.5458 8.72895 31.5397 8.79376ZM31.3097 4.96947C32.4302 5.80794 32.687 6.84787 32.7066 7.56927C32.7025 7.57173 32.6983 7.57402 32.6943 7.57657L31.937 7.21094C31.846 7.16699 31.7465 7.14319 31.6454 7.14117C31.5443 7.13916 31.444 7.15897 31.3512 7.19925C31.3412 7.20356 30.3174 7.62464 29.2966 7.23107C28.709 6.98944 28.1399 6.70496 27.594 6.37994C27.6834 6.10011 27.7358 5.80976 27.7498 5.51632C27.7358 4.94061 27.6064 4.37356 27.3692 3.84877C28.4477 3.87171 30.1094 4.07096 31.3097 4.96947ZM11.4813 18.5078C11.388 18.5078 11.2986 18.4707 11.2327 18.4048C11.1667 18.3389 11.1297 18.2495 11.1297 18.1562C11.1297 18.063 11.1667 17.9736 11.2327 17.9076C11.2986 17.8417 11.388 17.8047 11.4813 17.8047H12.2411C12.4679 18.0516 12.7078 18.2863 12.9596 18.5078H11.4813ZM12.9112 16.3502C12.2718 15.1021 13.6808 13.3426 14.4209 12.5453L15.4668 13.3845C15.6123 13.5012 15.7981 13.5553 15.9835 13.535C16.1689 13.5146 16.3386 13.4215 16.4553 13.2761C16.572 13.1306 16.6261 12.9447 16.6058 12.7594C16.5855 12.574 16.4923 12.4043 16.3469 12.2876L15.3279 11.4702C15.9542 10.6573 17.3167 9.1085 18.9497 8.58819C19.8826 8.29094 20.9773 8.19127 22.0271 8.19127C23.3788 8.20299 24.7266 8.33737 26.054 8.59276C26.4415 8.78498 27.1404 9.71117 27.2771 11.0327C27.4222 12.4349 27.2611 13.2843 27.26 13.2901C27.237 13.4033 27.2423 13.5204 27.2753 13.6311L27.4935 14.3629L25.8128 14.7041L25.564 14.1775C25.4986 14.0391 25.3898 13.9257 25.2541 13.8548C25.1185 13.7838 24.9633 13.7591 24.8123 13.7843L19.3504 14.6978L17.9265 13.5552C17.8545 13.4974 17.7718 13.4544 17.6832 13.4286C17.5945 13.4027 17.5017 13.3946 17.4099 13.4047C17.3181 13.4147 17.2292 13.4428 17.1482 13.4872C17.0673 13.5316 16.9959 13.5915 16.9381 13.6636C16.8803 13.7356 16.8373 13.8183 16.8114 13.9069C16.7856 13.9956 16.7775 14.0884 16.7875 14.1802C16.7976 14.272 16.8256 14.3609 16.87 14.4419C16.9145 14.5228 16.9744 14.5942 17.0464 14.652L20.5252 17.5536L17.9094 20.3592C15.5639 18.8567 13.3728 17.2517 12.9112 16.3502ZM16.2819 28.1187C17.1722 29.187 17.7508 30.48 17.954 31.8557C17.6642 32.2001 17.4371 32.5928 17.2832 33.0158L13.9231 32.6561C13.853 31.8938 13.535 31.1754 13.0179 30.6109L17.266 24.7602L19.21 29.7936L19.0539 30.3575C18.7058 29.209 18.1308 28.1421 17.3631 27.2198C17.2439 27.0764 17.0726 26.9862 16.8869 26.9691C16.7012 26.9519 16.5163 27.0093 16.3729 27.1285C16.2294 27.2477 16.1393 27.419 16.1221 27.6047C16.105 27.7904 16.1624 27.9753 16.2816 28.1187H16.2819ZM20.9175 36.8013C20.5585 36.8016 20.2039 36.7234 19.8784 36.5721C19.5529 36.4207 19.2645 36.1999 19.0335 35.9252C18.8024 35.6505 18.6344 35.3286 18.5411 34.982C18.4477 34.6354 18.4315 34.2725 18.4934 33.919C18.5345 34.0242 18.5845 34.1258 18.6428 34.2226C18.7833 34.4541 18.9686 34.6553 19.1878 34.8142C19.407 34.9732 19.6557 35.0869 19.9194 35.1486L22.7412 35.9916C22.5106 36.2465 22.2292 36.4503 21.915 36.5896C21.6008 36.729 21.2609 36.801 20.9172 36.8008L20.9175 36.8013ZM23.9415 33.6811L23.6049 34.7823L20.2985 33.794C20.281 33.7888 20.2634 33.7843 20.2458 33.7805C20.1632 33.7626 20.0851 33.728 20.0164 33.6789C19.9476 33.6298 19.8896 33.5672 19.8459 33.4948C19.8021 33.4225 19.7737 33.342 19.7621 33.2583C19.7506 33.1746 19.7563 33.0894 19.7788 33.008L19.8851 32.6243L20.8186 32.8711C20.8772 32.8866 20.9376 32.8945 20.9982 32.8945C21.0078 32.8945 21.0174 32.8945 21.027 32.8939L22.4694 32.8348L23.8264 33.4305C23.8728 33.4508 23.9102 33.4875 23.9314 33.5335C23.9526 33.5796 23.9562 33.6318 23.9415 33.6803V33.6811Z" fill="#C4EF17"/>
</svg>
