<svg width="45" height="45" viewBox="0 0 45 45" fill="none" xmlns="http://www.w3.org/2000/svg">
<g clip-path="url(#clip0_48_345)">
<path d="M20.6089 36.0381L20.6051 36.0423C20.2618 36.3856 20.2639 36.94 20.6069 37.283C20.7782 37.4543 21.0027 37.5395 21.2276 37.5395C21.4535 37.5395 21.6797 37.4533 21.8521 37.2813C22.1951 36.938 22.1951 36.3815 21.8521 36.0381C21.5088 35.6948 20.9522 35.6948 20.6089 36.0381Z" fill="#C4EF17"/>
<path d="M44.1182 43.2421H35.8301L32.3478 23.0771C33.1858 23.7799 34.2649 24.2042 35.4414 24.2042H37.0008C39.1692 24.2042 41.007 22.7653 41.6113 20.7926C41.6902 20.7882 41.7702 20.7741 41.8489 20.7473L42.1081 20.6591C43.7426 20.1029 44.6201 18.3207 44.064 16.6858C43.5078 15.0509 41.7256 14.1737 40.0907 14.7299L39.127 15.0578C38.4853 14.7409 37.7637 14.5624 37.0008 14.5624H35.4414C33.8007 14.5624 32.3498 15.3867 31.4785 16.6425L28.9976 3.6952C28.7875 2.51863 28.1325 1.49416 27.153 0.809577C26.1718 0.12362 24.9815 -0.138678 23.8032 0.0697183C23.3253 0.154519 23.0063 0.610793 23.0911 1.0887L25.4789 14.5624H21.3151C18.0982 14.5624 15.2411 16.131 13.4671 18.5432C13.427 18.5885 13.3919 18.6369 13.3624 18.6877C12.9563 19.2617 12.6105 19.8814 12.3349 20.5375C9.34213 26.2346 4.17067 36.8762 2.08465 41.19C1.76879 41.8434 1.73618 42.5784 1.97616 43.2421H0.878903C0.39379 43.2421 0 43.6359 0 44.121C0 44.6064 0.39379 44.9999 0.878903 44.9999H44.1182C44.6033 44.9999 44.9971 44.6064 44.9971 44.121C44.9971 43.6359 44.6033 43.2421 44.1182 43.2421ZM21.734 25.6729H27.1897L29.3708 37.6336L21.3773 28.1953C21.0027 27.7531 20.7964 27.1901 20.7964 26.6105C20.7964 26.0932 21.2169 25.6729 21.734 25.6729ZM31.6477 40.3218C31.6474 40.3197 31.6474 40.3173 31.6467 40.3153L28.9647 25.6094C29.6716 25.4855 30.3174 25.182 30.8523 24.7463L33.8762 42.2574L32.251 41.0342L31.6477 40.3218ZM42.4002 17.2519C42.6134 17.8792 42.3456 18.5559 41.7956 18.8789C41.6968 17.9334 41.3232 17.0689 40.7567 16.3655C41.4451 16.1873 42.1675 16.5677 42.4002 17.2519ZM35.4414 16.3202H37.0008C38.6899 16.3202 40.0643 17.6941 40.0643 19.3833C40.0643 21.0721 38.6899 22.4464 37.0008 22.4464H35.4414C33.754 22.4464 32.3807 21.0745 32.3783 19.3874C32.3783 19.385 32.3783 19.3829 32.3783 19.3805C32.3797 17.6928 33.7533 16.3202 35.4414 16.3202ZM21.3151 16.3202H26.5274C26.7873 16.3202 27.0338 16.2048 27.2007 16.0057C27.3679 15.8066 27.4379 15.5436 27.3926 15.2878L25.0003 1.78907C25.4079 1.85156 25.7986 2.00708 26.146 2.25015C26.7424 2.66695 27.141 3.29145 27.268 4.00796C27.2687 4.01174 27.2694 4.01586 27.27 4.01998L29.9191 17.8435C29.9304 17.9036 29.9483 17.9626 29.972 18.0189L30.6253 19.5721C30.6291 19.6651 30.6346 19.7578 30.6435 19.8499C30.6291 19.9134 30.6205 19.9789 30.6205 20.0469V21.5445C30.6205 22.8515 29.5572 23.9151 28.2502 23.9151H21.734C21.1541 23.9151 20.6168 24.0998 20.1767 24.4126L15.2795 19.0863C16.7438 17.393 18.9064 16.3202 21.3151 16.3202ZM4.47485 43.2421C4.15934 43.2421 3.88228 43.089 3.71474 42.8219C3.54754 42.5547 3.53003 42.2389 3.66736 41.9553C5.29402 38.5908 8.80071 31.3714 11.6784 25.6685C11.8937 27.1616 12.4561 28.5939 13.3109 29.835L6.7758 41.0651C6.41016 41.694 6.35935 42.4703 6.64018 43.1418L6.68207 43.2421H4.47485ZM29.6747 43.2421C29.3368 43.2421 29.0182 43.1113 28.7779 42.8744L24.0624 38.2131C23.7173 37.8722 23.1608 37.8753 22.8196 38.2203C22.4783 38.5657 22.4814 39.1222 22.8268 39.4635L26.6497 43.2421H8.58785L8.26169 42.4631C8.192 42.2969 8.2047 42.105 8.29534 41.9491L14.5129 31.2643L17.9883 34.6947C18.1597 34.8637 18.3828 34.9481 18.6056 34.9481C18.8326 34.9481 19.0595 34.8609 19.2312 34.6865C19.5724 34.3411 19.5686 33.7846 19.2229 33.4437L15.7104 29.9765C14.2018 28.4875 13.3367 26.4179 13.3367 24.2983C13.3367 22.9545 13.6711 21.6873 14.2606 20.5753L19.1395 25.8817C19.0743 26.1138 19.0386 26.3579 19.0386 26.6102C19.0386 27.6055 19.3925 28.5719 20.0359 29.3314L30.9728 42.2451C31.015 42.2949 31.0627 42.3398 31.1149 42.3793L32.2613 43.2421H29.6747Z" fill="#C4EF17"/>
</g>
<defs>
<clipPath id="clip0_48_345">
<rect width="44.9999" height="45" fill="white"/>
</clipPath>
</defs>
</svg>
