<svg width="45" height="45" viewBox="0 0 45 45" fill="none" xmlns="http://www.w3.org/2000/svg">
<g clip-path="url(#clip0_48_334)">
<path d="M44.1479 29.1103L41.6281 23.3505C40.4779 20.7214 38.1582 18.8347 35.3718 18.235L33.3901 13.0827C33.3923 12.9558 33.3747 12.827 33.3346 12.6968C33.2647 12.469 33.0896 12.1493 32.6527 11.9203C31.5685 11.3521 29.4284 11.6424 27.5752 12.1566L24.0664 5.13896C24.0815 5.12323 24.0968 5.10776 24.1115 5.09168L26.4763 6.66835C27.0551 7.0541 27.7285 7.2581 28.4241 7.2581C30.3603 7.2581 31.9356 5.68292 31.9356 3.7466V3.51132C31.9355 1.57518 30.3603 0 28.424 0C27.7285 0 27.055 0.203994 26.4762 0.589746L24.1114 2.16624C23.7128 1.72758 23.138 1.45169 22.4999 1.45169C21.8618 1.45169 21.287 1.72758 20.8883 2.16633L18.5237 0.589746C17.9449 0.203994 17.2715 0 16.576 0C14.6398 0 13.0645 1.57518 13.0645 3.51149V3.74678C13.0645 5.68292 14.6397 7.2581 16.576 7.2581C17.2715 7.2581 17.945 7.0541 18.5238 6.66835L20.8886 5.09186C20.9032 5.10803 20.9186 5.1235 20.9336 5.13914L17.4248 12.1568C15.5716 11.6426 13.4313 11.3521 12.3473 11.9205C11.9105 12.1495 11.7352 12.469 11.6654 12.6969C11.6254 12.8271 11.6078 12.956 11.6099 13.0829L9.62815 18.2352C6.84167 18.8349 4.52215 20.7215 3.37192 23.3507L0.8521 29.1103C0.286699 30.4026 0 31.773 0 33.1836C0 37.1152 2.30212 40.7301 5.86494 42.3927L7.54462 43.1766C10.1007 44.3695 12.9429 45 15.7637 45C19.0779 45 21.7742 42.3037 21.7742 38.9895C21.7742 38.2871 21.6481 37.5841 21.4071 36.924C21.8362 36.6154 22.2071 36.2315 22.5 35.7908C22.7929 36.2315 23.1639 36.6155 23.5929 36.924C23.3519 37.5843 23.2258 38.2872 23.2258 38.9895C23.2258 42.3037 25.9221 45 29.2363 45C32.0571 45 34.8992 44.3695 37.4554 43.1766L39.1351 42.3927C42.6979 40.7301 45 37.1153 45 33.1836C45 31.773 44.7133 30.4026 44.1479 29.1103ZM33.9712 18.6374C32.5719 19.7231 30.9948 20.5454 29.3224 21.0754L29.0905 20.3796C29.0518 20.2636 29.0322 20.1429 29.0322 20.0206C29.0322 19.5881 29.2724 19.1994 29.6594 19.0058L33.3947 17.1382L33.9712 18.6374ZM11.6053 17.1384L15.3405 19.006C15.7275 19.1994 15.9677 19.5882 15.9677 20.0208C15.9677 20.1429 15.9481 20.2637 15.9095 20.3796L15.6776 21.0755C14.0052 20.5456 12.428 19.7231 11.0288 18.6375L11.6053 17.1384ZM15.9898 17.7076L12.1288 15.7772L12.5724 14.6239C13.9488 15.7596 16.357 16.5537 16.7485 16.6779C18.0464 17.0899 19.5893 17.4226 20.8407 17.4226C20.9831 17.4226 21.1207 17.4175 21.2547 17.4085L19.8011 21.7692C18.8835 21.7455 17.974 21.6363 17.0838 21.4467L17.2867 20.8383C17.3747 20.5741 17.4193 20.299 17.4193 20.0206C17.4194 19.0348 16.8716 18.1485 15.9898 17.7076ZM22.5 5.80649C22.591 5.80649 22.6805 5.80025 22.7687 5.78936L26.1778 12.6075C25.1793 12.9761 23.4704 13.6969 22.5001 14.614C21.5298 13.6969 19.8208 12.9761 18.8223 12.6075L22.2314 5.78936C22.3195 5.80017 22.409 5.80649 22.5 5.80649ZM22.5 18.2631L23.8518 22.3182C23.2921 22.9427 22.8392 23.6399 22.5 24.3871C22.1608 23.6398 21.7079 22.9426 21.1482 22.3182L22.5 18.2631ZM23.7453 17.4085C23.8794 17.4175 24.017 17.4226 24.1593 17.4226C25.4107 17.4226 26.9538 17.09 28.2516 16.6779C28.643 16.5537 31.0511 15.7595 32.4276 14.6239L32.8711 15.7772L29.0101 17.7076C28.1283 18.1485 27.5806 19.0348 27.5806 20.0206C27.5806 20.299 27.6253 20.5741 27.7133 20.8385L27.9161 21.4467C27.0258 21.6361 26.1164 21.7454 25.1989 21.7692L23.7453 17.4085ZM31.8627 13.1528C31.5166 13.6173 30.0965 14.5694 27.8124 15.2944C25.447 16.0452 23.8264 16.0522 23.2985 15.8795C23.6446 15.415 25.0647 14.4629 27.3488 13.7379C29.7144 12.9871 31.335 12.9801 31.8627 13.1528ZM27.2814 1.79754C27.6209 1.57122 28.016 1.4516 28.424 1.4516C29.5598 1.4516 30.4838 2.37568 30.4838 3.51141V3.74669C30.4838 4.88241 29.5597 5.80641 28.424 5.80641C28.016 5.80641 27.6209 5.6867 27.2814 5.46047L24.675 3.72287C24.6763 3.69167 24.6774 3.66047 24.6774 3.629C24.6774 3.59754 24.6763 3.56634 24.675 3.53514L27.2814 1.79754ZM22.5 2.9032C22.9002 2.9032 23.2258 3.22884 23.2258 3.629C23.2258 4.02917 22.9002 4.3548 22.5 4.3548C22.0998 4.3548 21.7742 4.02917 21.7742 3.629C21.7742 3.22884 22.0998 2.9032 22.5 2.9032ZM17.7186 5.46056C17.3791 5.68679 16.984 5.80649 16.576 5.80649C15.4402 5.80649 14.5162 4.88241 14.5162 3.74669V3.51141C14.5162 2.37568 15.4403 1.45169 16.576 1.45169C16.984 1.45169 17.3791 1.5714 17.7186 1.79763L20.325 3.53522C20.3237 3.56643 20.3226 3.59763 20.3226 3.62909C20.3226 3.66056 20.3237 3.69176 20.325 3.72296L17.7186 5.46056ZM17.6511 13.7379C19.9353 14.463 21.3553 15.415 21.7015 15.8795C21.1737 16.0521 19.5529 16.0452 17.1877 15.2944C14.9035 14.5693 13.4835 13.6173 13.1373 13.1528C13.6651 12.9801 15.2858 12.9871 17.6511 13.7379ZM18.871 36.2903C17.2702 36.2903 15.9678 34.9879 15.9678 33.3871V31.3406C15.9678 30.6681 15.8088 29.9948 15.5081 29.393L15.1654 28.7076L13.867 29.3568L14.2096 30.0422C14.4102 30.4433 14.5162 30.8922 14.5162 31.3407V32.3452C13.7457 33.0185 12.7702 33.3871 11.7375 33.3871H11.613V34.8387H11.7375C12.749 34.8387 13.7194 34.5749 14.5723 34.0821C14.9062 36.1541 16.7063 37.7419 18.871 37.7419C19.295 37.7419 19.7046 37.6799 20.0923 37.5664C20.2427 38.0251 20.3226 38.5072 20.3226 38.9895C20.3226 41.5033 18.2775 43.5484 15.7637 43.5484C13.1535 43.5484 10.5238 42.965 8.15845 41.8612L6.47877 41.0773C3.42492 39.6521 1.45169 36.5537 1.45169 33.1835C1.45169 31.9743 1.69734 30.7997 2.18206 29.6921L4.70188 23.9324C5.66815 21.7237 7.621 20.1415 9.96522 19.6472C12.8147 21.9209 16.362 23.1846 20.0101 23.2238C21.1495 24.4641 21.7743 26.0621 21.7743 27.7567V33.3871C21.7742 34.9879 20.4718 36.2903 18.871 36.2903ZM38.5212 41.0774L36.8416 41.8612C34.4762 42.9649 31.8465 43.5484 29.2363 43.5484C26.7225 43.5484 24.6774 41.5033 24.6774 38.9895C24.6774 38.5073 24.7572 38.0251 24.9077 37.5664C25.2955 37.6799 25.7051 37.7419 26.129 37.7419C28.2938 37.7419 30.0939 36.154 30.4276 34.0821C31.2805 34.5749 32.2509 34.8387 33.2624 34.8387H33.387V33.3871H33.2625C32.2298 33.3871 31.2543 33.0185 30.4838 32.3452V31.3407C30.4838 30.8924 30.5898 30.4434 30.7903 30.0422L31.133 29.3568L29.8346 28.7076L29.4918 29.3931C29.1911 29.9947 29.0322 30.6681 29.0322 31.3406V33.3871C29.0322 34.9879 27.7298 36.2903 26.129 36.2903C24.5282 36.2903 23.2258 34.9879 23.2258 33.3871V27.7567C23.2258 26.0621 23.8506 24.4641 24.99 23.2239C28.6381 23.1847 32.1853 21.9211 35.035 19.6472C37.3793 20.1416 39.3321 21.7238 40.2983 23.9324L42.8181 29.6922C43.3027 30.7998 43.5485 31.9744 43.5485 33.1836C43.5484 36.5537 41.5751 39.6522 38.5212 41.0774Z" fill="#C4EF17"/>
</g>
<defs>
<clipPath id="clip0_48_334">
<rect width="45" height="45" fill="white"/>
</clipPath>
</defs>
</svg>
