<svg width="45" height="45" viewBox="0 0 45 45" fill="none" xmlns="http://www.w3.org/2000/svg">
<path d="M2.8125 30.8113C3.11859 30.8093 3.42435 30.8318 3.72684 30.8786C3.75122 30.8855 3.77588 30.8888 3.80072 30.8938C4.44734 31.0241 5.06272 31.278 5.61309 31.6416C6.72561 32.3796 8.03706 32.7601 9.37181 32.732C10.6928 32.7635 11.9918 32.3904 13.0948 31.6627C13.1072 31.6563 13.1191 31.6499 13.1314 31.6426C13.9539 31.0777 14.9336 30.7868 15.9311 30.8113C16.931 30.7888 17.913 31.0791 18.74 31.6416C19.8489 32.3803 21.1578 32.7609 22.49 32.732C23.8246 32.7575 25.1357 32.3776 26.25 31.6426C27.0725 31.0777 28.0522 30.7868 29.0497 30.8113C30.0556 30.7898 31.0432 31.0833 31.8741 31.6508C32.9839 32.3821 34.2897 32.7592 35.6186 32.732C36.5141 32.7518 37.4039 32.5858 38.232 32.2445C38.6265 32.0703 39.0086 31.8693 39.3758 31.6429C40.2072 31.0875 41.1877 30.7975 42.1875 30.8113C42.4361 30.8113 42.6746 30.7125 42.8504 30.5367C43.0262 30.3609 43.125 30.1224 43.125 29.8738C43.125 29.6251 43.0262 29.3867 42.8504 29.2109C42.6746 29.0351 42.4361 28.9363 42.1875 28.9363C41.823 28.9319 41.4588 28.9576 41.0985 29.0132C40.1457 29.1552 39.2347 29.5009 38.4275 30.0266C38.1293 30.2111 37.8193 30.3757 37.4993 30.5192C36.9032 30.7625 36.2625 30.8775 35.6189 30.8567C34.61 30.8821 33.619 30.5869 32.7885 30.0135C32.0019 29.5057 31.1181 29.1672 30.1935 29.0197L22.4685 17.7383L32.3672 12.7835C32.8026 12.566 33.1849 12.2556 33.4873 11.8741C33.7896 11.4927 34.0045 11.0495 34.1168 10.576C34.2291 10.1024 34.2361 9.60992 34.1373 9.13334C34.0385 8.65676 33.8363 8.20767 33.545 7.81778C33.0777 7.21487 32.4204 6.78757 31.6798 6.60525C30.9391 6.42293 30.1586 6.4963 29.4649 6.81344L15.7882 13.2872C15.313 13.5124 14.8893 13.8334 14.5439 14.23C14.1986 14.6266 13.9388 15.0904 13.7811 15.5921C13.6234 16.0938 13.571 16.6227 13.6273 17.1457C13.6836 17.6686 13.8473 18.1742 14.1083 18.6309L15.9261 21.8636L3.79987 29.0011C3.47247 28.9584 3.14267 28.9368 2.8125 28.9363C2.56386 28.9363 2.3254 29.0351 2.14959 29.2109C1.97377 29.3867 1.875 29.6251 1.875 29.8738C1.875 30.1224 1.97377 30.3609 2.14959 30.5367C2.3254 30.7125 2.56386 30.8113 2.8125 30.8113ZM16.8818 23.476C17.3112 23.2225 17.6234 22.81 17.7506 22.3279C17.8779 21.8459 17.81 21.333 17.5616 20.9007L15.7352 17.699C15.6027 17.4667 15.5197 17.2095 15.4912 16.9435C15.4628 16.6776 15.4896 16.4086 15.57 16.1535C15.6503 15.8984 15.7825 15.6627 15.9583 15.461C16.134 15.2594 16.3495 15.0962 16.5912 14.9818L30.265 8.50994C30.5114 8.39089 30.7865 8.34446 31.0582 8.37606C31.33 8.40766 31.5871 8.51599 31.7995 8.68838C32.012 8.86077 32.1709 9.09009 32.2578 9.34952C32.3446 9.60894 32.3558 9.88773 32.29 10.1533C32.2423 10.3586 32.1493 10.5506 32.0178 10.7154C31.8863 10.8801 31.7197 11.0134 31.5301 11.1054L21.6357 16.0584C21.3927 16.1773 21.1781 16.3471 21.0065 16.5562C20.8348 16.7654 20.7102 17.009 20.641 17.2706C20.5714 17.5351 20.5595 17.8114 20.6061 18.0809C20.6527 18.3504 20.7567 18.6067 20.9111 18.8325L27.9158 29.0188C26.9822 29.1661 26.0904 29.5096 25.2992 30.0266C24.4741 30.5931 23.4908 30.8838 22.4903 30.857C21.4847 30.8811 20.4972 30.5859 19.6697 30.0138C18.5611 29.285 17.2576 28.9093 15.9311 28.9363C14.6069 28.9074 13.3054 29.2835 12.2008 30.0144C12.1866 30.0218 12.1719 30.03 12.1578 30.0382C11.3391 30.5989 10.3637 30.8855 9.37181 30.8567C8.37055 30.8808 7.38709 30.5893 6.56063 30.0236C6.42938 29.9466 6.29297 29.8683 6.15338 29.7904L16.8818 23.476Z" fill="#C4EF17"/>
<path d="M42.1875 34.6985C40.8537 34.6713 39.5432 35.051 38.4307 35.7871C37.5939 36.3303 36.6178 36.6194 35.6202 36.6194C34.6227 36.6194 33.6465 36.3303 32.8098 35.7871C31.686 35.076 30.3835 34.6985 29.0536 34.6985C27.7237 34.6985 26.4212 35.076 25.2974 35.7871C24.4719 36.3522 23.4896 36.6433 22.4895 36.6194C21.4904 36.6433 20.5091 36.3521 19.6848 35.7871C18.5739 35.051 17.2648 34.6712 15.9324 34.6985C14.5994 34.6712 13.2898 35.051 12.1781 35.7871C11.3531 36.3522 10.3713 36.6434 9.37162 36.6194C8.3721 36.6433 7.39037 36.3521 6.5655 35.7871C5.45429 35.0511 4.14509 34.6714 2.8125 34.6985C2.56386 34.6985 2.3254 34.7973 2.14959 34.9731C1.97377 35.1489 1.875 35.3874 1.875 35.636C1.875 35.8847 1.97377 36.1231 2.14959 36.2989C2.3254 36.4747 2.56386 36.5735 2.8125 36.5735C3.81193 36.5498 4.79348 36.8411 5.61816 37.4062C6.72956 38.1423 8.039 38.5221 9.37181 38.4948C10.7048 38.5221 12.0144 38.1423 13.1259 37.4062C13.9509 36.8412 14.9328 36.55 15.9324 36.574C16.9315 36.5501 17.9128 36.8413 18.7372 37.4062C19.8481 38.1424 21.1571 38.5221 22.4895 38.4948C23.8229 38.5221 25.1329 38.1424 26.2449 37.4062C27.0811 36.8631 28.0569 36.574 29.054 36.574C30.0511 36.574 31.0269 36.8631 31.8631 37.4062C32.9872 38.1173 34.29 38.4948 35.6202 38.4948C36.9503 38.4948 38.2532 38.1173 39.3772 37.4062C40.2036 36.841 41.1866 36.5497 42.1875 36.5735C42.4361 36.5735 42.6746 36.4747 42.8504 36.2989C43.0262 36.1231 43.125 35.8847 43.125 35.636C43.125 35.3874 43.0262 35.1489 42.8504 34.9731C42.6746 34.7973 42.4361 34.6985 42.1875 34.6985Z" fill="#C4EF17"/>
<path d="M28.7656 21.2312C28.7657 22.5563 29.1587 23.8515 29.8949 24.9533C30.6311 26.055 31.6775 26.9137 32.9017 27.4207C34.1259 27.9277 35.473 28.0603 36.7726 27.8018C38.0722 27.5432 39.2659 26.9051 40.2029 25.9681C41.1398 25.0311 41.7778 23.8373 42.0363 22.5377C42.2947 21.2381 42.162 19.891 41.6548 18.6668C41.1477 17.4426 40.289 16.3963 39.1872 15.6602C38.0854 14.9241 36.7901 14.5312 35.465 14.5313C33.6887 14.5331 31.9857 15.2396 30.7297 16.4957C29.4737 17.7518 28.7674 19.4549 28.7656 21.2312ZM35.465 16.4062C36.4192 16.4063 37.3519 16.6892 38.1452 17.2193C38.9386 17.7494 39.5569 18.5028 39.9221 19.3843C40.2873 20.2658 40.3828 21.2358 40.1967 22.1716C40.0106 23.1075 39.5512 23.9671 38.8765 24.6418C38.2019 25.3165 37.3423 25.776 36.4065 25.9622C35.4707 26.1484 34.5007 26.053 33.6191 25.6879C32.7376 25.3228 31.9841 24.7045 31.4539 23.9112C30.9237 23.1179 30.6407 22.1852 30.6406 21.2311C30.642 19.952 31.1508 18.7257 32.0552 17.8211C32.9596 16.9166 34.1859 16.4078 35.465 16.4062Z" fill="#C4EF17"/>
</svg>
