<svg width="45" height="45" viewBox="0 0 45 45" fill="none" xmlns="http://www.w3.org/2000/svg">
<g clip-path="url(#clip0_48_308)">
<path d="M37.6533 41.0081L33.422 34.2816C33.1635 33.8707 32.6208 33.7471 32.2101 34.0056C31.7993 34.264 31.6757 34.8066 31.9341 35.2175L33.961 38.4395L32.1827 39.6599C27.7145 33.9561 20.6277 24.9129 20.6277 24.9129C20.4822 24.7273 20.2681 24.6079 20.0338 24.5816C19.7995 24.5552 19.5643 24.6244 19.3813 24.7733L13.8516 29.2719C13.5612 29.5081 13.4523 29.9021 13.5802 30.2538L16.1924 37.4405L13.9564 38.4571L10.999 32.5513C10.1682 30.8923 10.4112 28.9096 11.618 27.5003L17.1074 21.0902L22.6492 20.0284C24.2585 20.7098 25.9786 22.4238 25.817 25.1863C25.8064 25.369 25.8531 25.5505 25.9505 25.7055L27.7231 28.5232C27.9813 28.934 28.524 29.0577 28.9349 28.7992C29.3457 28.5408 29.4693 27.9982 29.2109 27.5873L27.5833 25.0001C27.6502 21.8398 25.7434 19.5627 23.6198 18.5404L23.659 15.0478C24.1545 14.649 24.5189 14.0989 24.6859 13.4785C24.855 12.8503 24.8127 12.183 24.5766 11.5837C24.9281 11.6937 25.3017 11.7531 25.689 11.7531C27.7455 11.7531 29.4186 10.08 29.4186 8.02352C29.4186 6.9988 29.0031 6.06943 28.3318 5.39466H34.6668C36.1542 5.39466 37.3642 4.18458 37.3642 2.69733C37.3642 1.21007 36.154 0 34.6667 0H27.1685C24.6234 0 22.1528 1.05311 20.3904 2.88927L16.1513 7.30551C15.6065 7.68324 15.1508 8.19428 14.8333 8.81008C14.5664 9.32754 14.4146 9.89624 14.3824 10.475L10.5121 9.23957C9.09838 8.78838 7.6047 9.51043 7.11185 10.8835C6.86209 11.5798 6.90462 12.328 7.23164 12.9902C7.55514 13.6454 8.11399 14.1304 8.80704 14.3582C8.80704 14.3582 13.2487 16.0267 13.2627 16.0313C13.8432 16.2166 14.4516 16.3671 15.0714 16.4827L15.6004 20.148L10.283 26.3573C8.61502 28.3052 8.27904 31.0455 9.42741 33.3385L14.5155 43.4993C14.9903 44.4475 15.9323 45.0001 16.9282 45.0001C17.2662 45.0001 17.6104 44.9364 17.9445 44.803C19.3128 44.2566 19.9902 42.744 19.4869 41.3595L15.4457 30.2411L19.7963 26.7018C22.0284 29.5502 30.4062 40.2411 33.3373 43.9849C34.1982 45.0845 35.7711 45.3154 36.9182 44.5107L36.9527 44.4867C38.0766 43.6982 38.3843 42.1702 37.6533 41.0081ZM16.1341 10.882C16.1143 10.4666 16.2047 9.98553 16.3955 9.61571C16.8046 8.8223 17.6118 8.33059 18.5039 8.33059H18.5142L21.974 8.34526C22.0168 8.84339 22.1579 9.31366 22.3778 9.7369C21.701 9.59787 20.9738 9.68883 20.3217 10.0442C19.9608 10.2409 19.5781 10.4083 19.1843 10.5418C18.1917 10.8785 17.1553 10.9917 16.1341 10.882ZM25.6889 9.99555C24.6015 9.99555 23.717 9.11091 23.717 8.02361C23.717 6.93631 24.6015 6.05167 25.6889 6.05167C26.7762 6.05167 27.6608 6.93631 27.6608 8.02361C27.6608 9.11091 26.7762 9.99555 25.6889 9.99555ZM21.6584 4.10646C23.0911 2.61375 25.0995 1.75767 27.1685 1.75767H34.6667C35.1848 1.75767 35.6063 2.17917 35.6063 2.69733C35.6063 3.21549 35.1847 3.63698 34.6667 3.63698H26.5931C25.5765 3.63698 24.5976 4.04573 23.8817 4.76242C23.1518 5.16862 22.5715 5.81228 22.2467 6.58873L19.2877 6.57617L21.6584 4.10646ZM9.40641 12.7058C9.39261 12.7006 9.37864 12.6957 9.36449 12.6912C9.11929 12.6129 8.92155 12.4428 8.80757 12.2119C8.69367 11.9812 8.679 11.7203 8.76618 11.4771C8.93483 11.0073 9.47803 10.7549 9.97748 10.914L14.1824 12.2563C16.0084 12.8391 17.9332 12.8221 19.7486 12.2065C20.2376 12.0407 20.7134 11.8325 21.1627 11.5876C21.7545 11.2649 22.4935 11.4608 22.8451 12.0331C23.0287 12.3319 23.0795 12.6831 22.9885 13.0218C22.8974 13.3605 22.6771 13.6387 22.3684 13.805C20.7856 14.658 19.0203 15.0628 17.2634 14.9764C16.0906 14.9185 14.8998 14.7066 13.818 14.3634L9.40641 12.7058ZM17.1767 16.732C17.3613 16.7412 17.5456 16.7456 17.73 16.7456C19.1472 16.7456 20.5581 16.4777 21.891 15.9585L21.8638 18.3894L17.25 19.2733L16.8805 16.7125C16.9793 16.7194 17.0781 16.7272 17.1767 16.732ZM17.2927 43.1705C16.8288 43.3558 16.3106 43.1587 16.0871 42.7122L14.7439 40.0301L16.7946 39.0977L17.835 41.9599C18.012 42.4466 17.7738 42.9784 17.2927 43.1705ZM35.9434 43.0475L35.909 43.0716C35.5274 43.3394 35.0055 43.2646 34.7212 42.9013C34.3265 42.3971 33.8327 41.7667 33.2687 41.0465L34.8976 39.9286L36.1654 41.944C36.3974 42.3128 36.2998 42.7975 35.9434 43.0475Z" fill="#C4EF17"/>
<path d="M30.5722 32.2816C31.0576 32.2816 31.451 31.8881 31.451 31.4028C31.451 30.9174 31.0576 30.5239 30.5722 30.5239C30.0868 30.5239 29.6934 30.9174 29.6934 31.4028C29.6934 31.8881 30.0868 32.2816 30.5722 32.2816Z" fill="#C4EF17"/>
</g>
<defs>
<clipPath id="clip0_48_308">
<rect width="45" height="45" fill="white"/>
</clipPath>
</defs>
</svg>
