<svg width="45" height="45" viewBox="0 0 45 45" fill="none" xmlns="http://www.w3.org/2000/svg">
<path d="M42.568 34.3099C42.0029 33.745 41.2519 33.434 40.4527 33.434C40.4524 33.434 40.4518 33.434 40.4516 33.434H40.3821C39.6192 33.4342 38.9427 33.8106 38.5279 34.3871L34.0751 29.9343L33.1689 23.1381C32.7695 20.1424 30.1892 17.8833 27.1649 17.8833C26.3341 17.8833 25.6584 18.5591 25.6584 19.3897V20.9448C25.6584 22.6864 24.2415 24.1036 22.4996 24.1036C20.7579 24.1036 19.3408 22.6865 19.3408 20.9448V19.3897C19.3408 18.559 18.6651 17.8833 17.8323 17.8833C14.81 17.8833 12.2297 20.1424 11.8304 23.1381L10.9242 29.9343L6.47252 34.386C6.40054 34.2862 6.32003 34.1914 6.23126 34.1026C5.79989 33.6714 5.22658 33.434 4.61601 33.434H4.61557C2.92772 33.4343 1.55469 34.8078 1.55469 36.4955C1.55469 38.1531 2.87902 39.5062 4.52504 39.5548C4.12399 40.1185 3.8873 40.8067 3.8873 41.5495C3.88739 43.4522 5.43523 44.9999 7.33771 44.9999H37.6617C39.5643 44.9999 41.1121 43.4522 41.1121 41.5496C41.1121 40.8068 40.8753 40.1187 40.4744 39.5549C42.1203 39.5069 43.4447 38.1483 43.4447 36.4841V36.4256C43.4447 35.6263 43.1334 34.8749 42.568 34.3099ZM28.7995 31.5623L29.0508 29.426L29.2833 30.5883C29.4927 31.636 30.003 32.5891 30.7585 33.3447L35.5131 38.0993H30.0668L28.9259 33.5357C28.764 32.8886 28.7215 32.2247 28.7995 31.5623ZM17.8345 19.3411C17.8613 19.3411 17.8831 19.3629 17.8831 19.3897V20.9448C17.8831 23.4904 19.9542 25.5614 22.4997 25.5614C25.0453 25.5614 27.1164 23.4904 27.1164 20.9448V19.3897C27.1164 19.3629 27.1382 19.3411 27.167 19.3411C27.7154 19.3411 28.2443 19.4401 28.7364 19.6204L27.3516 31.3919C27.2528 32.2302 27.3066 33.0705 27.5114 33.8892L28.5639 38.0992H16.4355L17.488 33.8892C17.6927 33.0704 17.7466 32.2301 17.648 31.3919L16.2631 19.6206C16.7556 19.4402 17.2852 19.3411 17.8345 19.3411ZM15.9487 29.4259L16.2001 31.5622C16.278 32.2247 16.2355 32.8886 16.0737 33.5357L14.9328 38.0993H9.48629L14.2409 33.3447C14.9964 32.5892 15.5065 31.6361 15.7161 30.5883L15.9487 29.4259ZM4.61636 38.0993C3.73209 38.0993 3.0127 37.3799 3.0127 36.4956C3.0127 35.6115 3.73191 34.8922 4.61645 34.892C4.83705 34.892 5.04447 34.9778 5.20048 35.1338C5.35657 35.2898 5.44253 35.4972 5.44253 35.7181C5.44253 36.0129 5.62007 36.2786 5.89253 36.3915C6.16499 36.5043 6.4785 36.442 6.68688 36.2335L12.1297 30.7907C12.2429 30.6774 12.3158 30.5301 12.3368 30.3716L13.2756 23.3308C13.4321 22.1565 14.0308 21.1322 14.8886 20.4151L15.398 24.7452L14.2866 30.3023C14.1338 31.0668 13.7615 31.7624 13.2102 32.3137L7.42473 38.0992H7.33771H4.61636V38.0993ZM19.4381 43.5421H7.33771C6.23908 43.5421 5.34523 42.6483 5.34523 41.5496C5.34523 40.4509 6.23899 39.5571 7.33771 39.5571H12.4403V39.9133C12.4403 40.9921 13.1758 41.909 14.2288 42.143L19.4381 43.3007V43.5421H19.4381ZM19.4381 41.8071L14.5451 40.7197C14.1642 40.6351 13.8982 40.3035 13.8982 39.9133V39.5571H19.4381V41.8071ZM37.6617 43.5421H20.8961V39.5572H37.6618C38.7604 39.5573 39.6541 40.4511 39.6541 41.5497C39.6541 42.6482 38.7604 43.5421 37.6617 43.5421ZM41.9867 36.4841C41.9867 37.3747 41.268 38.0993 40.3846 38.0993H37.5749L31.7894 32.3137C31.2381 31.7624 30.8658 31.0667 30.7129 30.3023L29.6015 24.7451L30.1109 20.415C30.9686 21.1321 31.5673 22.1565 31.7238 23.3308L32.6626 30.3717C32.6838 30.5303 32.7566 30.6775 32.8698 30.7907L38.3126 36.2335C38.5211 36.442 38.8346 36.5043 39.107 36.3916C39.3795 36.2787 39.557 36.0129 39.557 35.7182C39.557 35.2627 39.9275 34.8922 40.383 34.892H40.4524C40.4526 34.892 40.4528 34.892 40.4531 34.892C40.8626 34.892 41.2478 35.0515 41.5375 35.341C41.8271 35.6307 41.9868 36.016 41.9868 36.4258V36.4841H41.9867Z" fill="#C4EF17"/>
<path d="M25.4764 3.78114C25.533 3.54691 25.5617 3.30627 25.5617 3.06149C25.5617 1.37347 24.1882 0 22.5001 0C20.812 0 19.4385 1.37347 19.4385 3.06158C19.4385 3.30653 19.4677 3.547 19.5242 3.78097C17.1773 4.89788 15.5508 7.29193 15.5508 10.0594V10.7737C15.5508 11.1745 15.8744 11.5002 16.2754 11.5027C16.3227 11.5026 16.6227 11.5026 17.1058 11.4714V12.3921C17.1058 15.3665 19.5256 17.7863 22.5 17.7863C25.4744 17.7863 27.8942 15.3665 27.8942 12.3921V11.4847C28.1582 11.5364 28.4336 11.5661 28.7204 11.5661C29.123 11.5661 29.4494 11.2397 29.4494 10.8371V10.0595C29.4494 7.29211 27.823 4.89806 25.4764 3.78114ZM22.5001 1.45784C23.3844 1.45784 24.1038 2.17723 24.1038 3.06149C24.1038 3.14033 24.0964 3.21785 24.0852 3.29467C23.5756 3.17522 23.0456 3.1101 22.5001 3.1101C21.9548 3.1101 21.4246 3.17522 20.9151 3.29458C20.904 3.21794 20.8965 3.14042 20.8965 3.06149C20.8965 2.17731 21.6158 1.45784 22.5001 1.45784ZM26.4364 12.3921C26.4364 14.5625 24.6706 16.3283 22.5001 16.3283C20.3297 16.3283 18.5638 14.5625 18.5638 12.3921V11.3228C20.2016 11.0975 22.4874 10.5899 24.6448 9.44499C25.0189 9.87662 25.6316 10.4821 26.4365 10.9358L26.4364 12.3921ZM25.4381 8.09833C25.2229 7.77744 24.7947 7.68006 24.4618 7.87676C21.6804 9.5204 18.4288 9.91802 17.0089 10.0141C17.0335 7.00699 19.4873 4.56803 22.5001 4.56803C25.5121 4.56803 27.9655 7.00567 27.9913 10.0118C26.4768 9.61374 25.45 8.11573 25.4381 8.09833Z" fill="#C4EF17"/>
</svg>
