<svg width="45" height="45" viewBox="0 0 45 45" fill="none" xmlns="http://www.w3.org/2000/svg">
<g clip-path="url(#clip0_48_281)">
<path d="M43.1566 9.84041H41.0457V8.08632C41.0457 6.69569 39.9144 5.56433 38.5238 5.56433H36.5121C35.1214 5.56433 33.9902 6.69569 33.9902 8.08632V15.3071H30.6189V13.3685C30.6189 11.9615 29.4743 10.817 28.0674 10.817C27.5146 10.817 27.0029 10.9943 26.5848 11.2943C26.1738 10.4353 25.2961 9.84041 24.2819 9.84041C23.3231 9.84041 22.4863 10.372 22.0505 11.1559C21.6198 10.8238 21.081 10.6252 20.4963 10.6252C19.6088 10.6252 18.8265 11.0811 18.3693 11.7706C17.9229 11.3876 17.3435 11.1556 16.7107 11.1556C15.3038 11.1556 14.1592 12.3001 14.1592 13.7071V15.3073H11.0101V13.4477C11.0101 13.0838 10.7152 12.789 10.3514 12.789C9.98758 12.789 9.69264 13.0838 9.69264 13.4477V28.7508C9.69264 29.415 9.1523 29.9552 8.48821 29.9552H6.47616C5.81198 29.9552 5.27173 29.415 5.27173 28.7508V8.08632C5.27173 7.42214 5.81207 6.8818 6.47616 6.8818H8.48794C9.15212 6.8818 9.69237 7.42214 9.69237 8.08632V10.6403C9.69237 11.0042 9.98731 11.299 10.3511 11.299C10.7149 11.299 11.0098 11.0042 11.0098 10.6403V8.08632C11.0098 6.69569 9.87849 5.56433 8.48794 5.56433H6.47616C5.08553 5.56433 3.95426 6.69569 3.95426 8.08632V9.84041H1.84341C0.826933 9.84041 0 10.6673 0 11.6837V25.1532C0 26.1697 0.826933 26.9966 1.84341 26.9966H3.95426V28.7507C3.95426 30.1412 5.08562 31.2726 6.47616 31.2726H8.48794C9.87858 31.2726 11.0098 30.1412 11.0098 28.7507V21.5299H13.2673V22.7327C13.2673 23.3509 13.4835 23.9543 13.8763 24.4318L15.9221 26.9191V38.7769C15.9221 39.1408 16.217 39.4357 16.5808 39.4357C16.9446 39.4357 17.2396 39.1408 17.2396 38.7769V26.683C17.2396 26.5303 17.1865 26.3824 17.0895 26.2644L14.8938 23.5948C14.6945 23.3526 14.5847 23.0464 14.5847 22.7327V21.5299L27.0425 21.606C27.4063 21.606 27.7012 21.3112 27.7012 20.9473C27.7012 20.5834 27.4063 20.2886 27.0425 20.2886H24.0453C23.4269 20.2886 22.9238 19.7855 22.9238 19.1672C22.9238 18.5489 23.4269 18.0458 24.0453 18.0458H29.7092C30.0984 18.0458 30.4151 18.3623 30.4151 18.7515V22.7327C30.4151 23.0463 30.3053 23.3526 30.106 23.5947L27.9102 26.2644C27.8132 26.3823 27.7602 26.5301 27.7602 26.6829V28.4203C27.7602 28.7842 28.0551 29.079 28.4189 29.079C28.7827 29.079 29.0777 28.7842 29.0777 28.4203V26.919L31.1234 24.4318C31.5161 23.9542 31.7324 23.3508 31.7324 22.7327V21.5298H33.9899V28.7506C33.9899 30.1412 35.1212 31.2725 36.5118 31.2725H38.5236C39.9142 31.2725 41.0455 30.1412 41.0455 28.7506V26.9965H43.1563C44.1728 26.9965 44.9997 26.1696 44.9997 25.1531V11.6837C45 10.6673 44.1731 9.84041 43.1566 9.84041ZM1.84341 25.6791C1.55339 25.6791 1.31747 25.4431 1.31747 25.1532V11.6837C1.31747 11.3937 1.55339 11.1579 1.84341 11.1579H3.95426V25.6791H1.84341ZM28.0673 12.1345C28.7478 12.1345 29.3014 12.6881 29.3014 13.3685V15.821C29.3014 16.1688 29.1538 16.4961 28.9013 16.7284H27.2333C26.9808 16.4961 26.8332 16.1688 26.8332 15.821V13.3685C26.8332 12.6881 27.3868 12.1345 28.0673 12.1345ZM23.0477 12.3919C23.0477 11.7115 23.6013 11.1579 24.2817 11.1579C24.9621 11.1579 25.5157 11.7115 25.5157 12.3919V15.821C25.5157 16.1688 25.3682 16.4961 25.1157 16.7284H24.0453C23.8635 16.7284 23.6865 16.7491 23.5159 16.787C23.2226 16.5555 23.0476 16.2031 23.0476 15.821L23.0477 12.3919ZM19.262 13.1766C19.262 12.4962 19.8157 11.9426 20.4961 11.9426C21.1765 11.9426 21.7302 12.4962 21.7302 13.1766V15.8209C21.7302 16.5015 21.1766 17.0551 20.4961 17.0551C19.8156 17.0551 19.262 16.5015 19.262 15.8209V13.1766ZM15.4764 13.707C15.4764 13.0266 16.03 12.473 16.7105 12.473C17.3909 12.473 17.9445 13.0266 17.9445 13.707V15.821C17.9445 16.5015 17.3909 17.0551 16.7105 17.0551C16.03 17.0551 15.4764 16.5015 15.4764 15.821V13.707ZM11.0099 16.6246H14.2894C14.6269 17.6389 15.5844 18.3725 16.7105 18.3725C17.4608 18.3725 18.1364 18.0468 18.6037 17.5297C19.0709 18.0468 19.746 18.3725 20.4962 18.3725C21.0396 18.3725 21.5426 18.2001 21.9568 17.9094C21.7347 18.2769 21.6066 18.7073 21.6066 19.1672C21.6066 19.541 21.6914 19.8954 21.8424 20.2123H11.0099V16.6246ZM31.7327 20.2124V18.7516C31.7327 17.8789 31.1773 17.1336 30.4014 16.8503C30.4339 16.7766 30.4628 16.7013 30.4882 16.6246H33.9902V20.2124H31.7327ZM43.6825 25.1532C43.6825 25.4432 43.4466 25.6791 43.1566 25.6791H41.0457V23.7755C41.0457 23.4116 40.7508 23.1167 40.387 23.1167C40.0232 23.1167 39.7283 23.4116 39.7283 23.7755V28.7507C39.7283 29.4149 39.1879 29.9551 38.5238 29.9551H36.5121C35.8479 29.9551 35.3076 29.4149 35.3076 28.7507V8.08632C35.3076 7.42214 35.848 6.8818 36.5121 6.8818H38.5238C39.188 6.8818 39.7283 7.42214 39.7283 8.08632V20.9681C39.7283 21.332 40.0232 21.6269 40.387 21.6269C40.7508 21.6269 41.0457 21.332 41.0457 20.9681V11.1579H43.1566C43.4466 11.1579 43.6825 11.3938 43.6825 11.6837V25.1532Z" fill="#C4EF17"/>
<path d="M28.4195 30.5689C28.0557 30.5689 27.7607 30.8638 27.7607 31.2276V38.7768C27.7607 39.1407 28.0557 39.4356 28.4195 39.4356C28.7833 39.4356 29.0782 39.1407 29.0782 38.7768V31.2276C29.0782 30.8638 28.7834 30.5689 28.4195 30.5689Z" fill="#C4EF17"/>
</g>
<defs>
<clipPath id="clip0_48_281">
<rect width="45" height="45" fill="white"/>
</clipPath>
</defs>
</svg>
