<svg width="45" height="45" viewBox="0 0 45 45" fill="none" xmlns="http://www.w3.org/2000/svg">
<g clip-path="url(#clip0_48_270)">
<path d="M44.1009 42.2088H23.5956C24.078 41.5297 24.3626 40.7013 24.3626 39.8066V33.0482C24.3626 31.9929 23.9517 31.0007 23.2056 30.2543L22.7579 29.8066C23.848 29.7942 24.9411 29.4773 25.8969 28.8405L39.9742 19.4654L44.3055 18.5398C44.6204 18.4721 44.8731 18.2383 44.9644 17.9297C45.0554 17.621 44.9706 17.2873 44.7429 17.0597L43.4895 15.8062C41.5188 13.8356 38.4588 13.4359 36.0479 14.8343L32.509 16.887L36.485 12.911C37.7968 11.5992 38.5192 9.85508 38.5192 8.00011C38.5192 6.14479 37.7968 4.40071 36.485 3.08887C35.1732 1.77704 33.4291 1.05469 31.5741 1.05469C29.7188 1.05469 27.9747 1.77738 26.6629 3.08887L25.2168 4.53529C25.2147 4.53735 25.2123 4.53941 25.2103 4.54147L14.6462 15.1059C12.9773 16.7747 11.8639 18.8512 11.3981 21.1102C10.4838 20.2931 9.27838 19.795 7.95831 19.795H7.08798C7.05194 19.7342 7.00833 19.6765 6.95615 19.6243L5.99793 18.6661C5.33429 18.0025 4.45161 17.6368 3.51296 17.6368C2.57398 17.6368 1.69164 18.0021 1.02765 18.6661C-0.34255 20.0363 -0.34255 22.2659 1.02765 23.6364L1.63293 24.2413C1.59963 24.4772 1.58143 24.7179 1.58143 24.9627C1.58143 27.8122 3.89955 30.1303 6.74912 30.1303H7.95831C9.74359 30.1303 11.3201 29.2202 12.2488 27.8397L18.8399 34.4308V38.2602C18.8399 39.731 18.3088 41.1194 17.3389 42.2091H0.894785C0.40967 42.2091 0.0165653 42.6022 0.0165653 43.0873C0.0165653 43.5721 0.40967 43.9656 0.894785 43.9656H44.1009C44.586 43.9656 44.9791 43.5721 44.9791 43.0873C44.9791 42.6022 44.586 42.2088 44.1009 42.2088ZM2.26979 19.9083C2.60179 19.5759 3.0433 19.3933 3.51296 19.3933C3.98229 19.3933 4.4238 19.5759 4.75579 19.9083L4.96179 20.1139C3.82058 20.5362 2.86855 21.3509 2.26876 22.3929C1.58452 21.7073 1.58486 20.5932 2.26979 19.9083ZM7.95831 28.3739H6.74912C4.86806 28.3739 3.33787 26.8437 3.33787 24.9627C3.33787 24.7666 3.35538 24.5747 3.38731 24.3876C3.45769 24.2547 3.49099 24.1078 3.48825 23.9612C3.91706 22.5676 5.21653 21.5517 6.74912 21.5517H7.95831C9.83937 21.5517 11.3696 23.0819 11.3696 24.9627C11.3696 26.8437 9.83937 28.3739 7.95831 28.3739ZM19.5115 42.2088C20.219 41.0274 20.5964 39.6727 20.5964 38.2602V34.0669C20.5964 33.8341 20.504 33.611 20.3392 33.4462L12.9973 26.1042C13.0807 25.7368 13.126 25.3551 13.126 24.9627C13.126 24.4463 13.0488 23.9478 12.9073 23.4768C12.9252 20.7837 13.9816 18.2541 15.888 16.3477L25.5272 6.70887L27.3567 11.1487L25.5265 12.9786C25.1835 13.3216 25.1835 13.8774 25.5265 14.2208C25.6981 14.3921 25.9227 14.4779 26.1475 14.4779C26.3724 14.4779 26.597 14.3921 26.7686 14.2208L29.0126 11.9765C29.2635 11.7258 29.3387 11.3489 29.2038 11.021L26.8726 5.36339L27.905 4.33102C28.8849 3.35083 30.1881 2.81113 31.5741 2.81113C32.9598 2.81113 34.263 3.35083 35.2429 4.33102C36.223 5.31086 36.7627 6.61411 36.7627 7.99976C36.7627 9.38576 36.223 10.689 35.2429 11.6689L26.5939 20.3178L24.8484 21.3303C24.4289 21.5737 24.2861 22.111 24.5295 22.5306C24.7729 22.9501 25.3102 23.0929 25.7297 22.8498L27.3739 21.8961C27.4779 21.86 27.5765 21.8041 27.6633 21.7282L36.9289 16.3538C38.652 15.3541 40.839 15.6401 42.2473 17.0484L42.3589 17.1596L39.4431 17.7831C39.3349 17.8061 39.2323 17.8494 39.1399 17.9108L24.9233 27.3786C23.3272 28.4419 21.1845 28.229 19.8283 26.8729C18.2535 25.2981 18.2535 22.7355 19.8283 21.1607L22.3689 18.6201C22.7119 18.2771 22.7119 17.7209 22.3689 17.378C22.026 17.0353 21.4698 17.0353 21.1268 17.378L18.5862 19.9186C17.4917 21.0134 16.8888 22.4688 16.8888 24.0168C16.8888 25.5329 17.4683 26.9591 18.5203 28.0457C18.5402 28.0701 18.5611 28.0941 18.5841 28.1171L21.9635 31.4964C22.3779 31.9108 22.6062 32.4622 22.6062 33.0482V39.8066C22.6062 41.1311 21.5285 42.2088 20.2039 42.2088H19.5115Z" fill="#C4EF17"/>
<path d="M23.9759 16.6505C24.2066 16.6505 24.4325 16.5564 24.5966 16.393C24.76 16.2299 24.8541 16.0033 24.8541 15.7723C24.8541 15.5412 24.76 15.3146 24.5966 15.1515C24.4325 14.9871 24.2066 14.894 23.9759 14.894C23.7438 14.894 23.5182 14.9871 23.3541 15.1515C23.1907 15.3146 23.0977 15.5412 23.0977 15.7723C23.0977 16.0033 23.1907 16.2299 23.3541 16.393C23.5182 16.5564 23.7438 16.6505 23.9759 16.6505Z" fill="#C4EF17"/>
</g>
<defs>
<clipPath id="clip0_48_270">
<rect width="45.0002" height="45" fill="white"/>
</clipPath>
</defs>
</svg>
