<svg width="45" height="45" viewBox="0 0 45 45" fill="none" xmlns="http://www.w3.org/2000/svg">
<g id="family 1">
<path id="Vector" d="M19.8038 15.423C19.8038 12.7509 17.6286 10.5812 14.9626 10.5812C12.2905 10.5812 10.1211 12.7567 10.1211 15.423C10.1211 18.0951 12.2962 20.2642 14.9626 20.2642C17.6286 20.2642 19.8038 18.0951 19.8038 15.423ZM11.9861 15.423C11.9861 13.7856 13.3191 12.4523 14.9565 12.4523C16.5936 12.4523 17.927 13.7856 17.927 15.423C17.927 17.0601 16.5936 18.3931 14.9565 18.3931C13.3191 18.3931 11.9861 17.0601 11.9861 15.423Z" fill="#C4EF17"/>
<path id="Vector_2" d="M14.5176 33.4615H10.5182V27.7022C10.5182 27.2809 10.1791 26.9419 9.75824 26.9419C9.337 26.9419 8.99795 27.2809 8.99795 27.7022V33.4615H7.29657C7.22083 33.4615 7.13866 33.4029 7.13866 33.3036V27.6786C7.13866 25.1823 9.17337 23.1468 11.67 23.1468H18.1604C19.0672 23.1468 19.8739 23.3987 20.6281 23.9129C20.7918 24.024 20.9733 24.0765 21.1544 24.0765C21.4527 24.0765 21.745 23.9364 21.9261 23.6678C22.2188 23.2408 22.1076 22.6617 21.6807 22.3694C20.6221 21.6445 19.4355 21.2761 18.1604 21.2761H11.67C8.13833 21.2761 5.26758 24.1472 5.26758 27.6786V33.3036C5.26758 34.4205 6.18007 35.333 7.29657 35.333H14.5176C15.0324 35.333 15.4536 34.9117 15.4536 34.3969C15.4536 33.8824 15.0324 33.4615 14.5176 33.4615Z" fill="#C4EF17"/>
<path id="Vector_3" d="M31.498 25.8017C33.9536 25.8017 35.9533 23.8016 35.9533 21.346C35.9533 18.8901 33.9536 16.8907 31.498 16.8907C29.042 16.8907 27.042 18.8901 27.042 21.346C27.042 23.8016 29.042 25.8017 31.498 25.8017ZM31.498 18.7615C32.9246 18.7615 34.0822 19.9194 34.0822 21.346C34.0822 22.7727 32.9246 23.9306 31.498 23.9306C30.0714 23.9306 28.9131 22.7727 28.9131 21.346C28.9131 19.9194 30.0714 18.7615 31.498 18.7615Z" fill="#C4EF17"/>
<path id="Vector_4" d="M38.5025 28.4385C37.415 27.3277 35.9594 26.72 34.3981 26.72H28.5509C28.5041 26.72 28.463 26.72 28.4162 26.72C28.2704 26.7139 28.1003 26.7139 27.9077 26.7371C27.3929 26.7957 27.0306 27.2637 27.0892 27.7779C27.1475 28.2516 27.5508 28.6025 28.0189 28.6025C28.0539 28.6025 28.0946 28.6025 28.13 28.5964C28.1882 28.5907 28.2761 28.5907 28.3751 28.5907H34.3924C35.4446 28.5907 36.4271 29.0001 37.1577 29.7483C37.8887 30.4971 38.2921 31.5025 38.2921 32.5787V37.6595C38.2921 37.6892 38.2807 37.7067 38.2453 37.7067H37.1577V32.6022C37.1577 32.181 36.8187 31.8419 36.3978 31.8419C35.9769 31.8419 35.6379 32.181 35.6379 32.6022V37.7067H31.4338C30.9189 37.7067 30.4977 38.1276 30.4977 38.6421C30.4977 39.1569 30.9189 39.5774 31.4338 39.5774H38.2453C39.3039 39.5774 40.1635 38.7182 40.1635 37.6595V32.5787C40.1693 31.0055 39.5787 29.5378 38.5025 28.4385Z" fill="#C4EF17"/>
<path id="Vector_5" d="M18.8447 28.4384C18.8447 30.5085 20.5286 32.1867 22.5922 32.1867C24.6623 32.1867 26.3405 30.5028 26.3405 28.4384C26.3405 26.3687 24.6566 24.6909 22.5922 24.6909C20.5229 24.6909 18.8447 26.3744 18.8447 28.4384ZM22.5922 26.562C23.6273 26.562 24.4698 27.4037 24.4698 28.4384C24.4698 29.4735 23.6273 30.3159 22.5922 30.3159C21.5576 30.3159 20.7158 29.4735 20.7158 28.4384C20.7158 27.4037 21.5576 26.562 22.5922 26.562Z" fill="#C4EF17"/>
<path id="Vector_6" d="M28.2994 34.3325C27.3929 33.4029 26.1768 32.8945 24.8788 32.8945H20.207C17.517 32.8945 15.3301 35.081 15.3301 37.7706V41.829C15.3301 42.7819 16.1082 43.5593 17.0611 43.5593H27.9721C28.9132 43.5593 29.6792 42.7819 29.6792 41.829V37.7706C29.6913 36.4669 29.194 35.245 28.2994 34.3325ZM20.2127 34.7652H24.8845C25.6741 34.7652 26.4169 35.0753 26.9664 35.6423C27.5158 36.2097 27.8199 36.9643 27.8199 37.7706V41.6886H27.2586V37.7946C27.2586 37.3733 26.9195 37.0343 26.4983 37.0343C26.0774 37.0343 25.7384 37.3733 25.7384 37.7946V41.6886H19.581V37.7946C19.581 37.3733 19.2419 37.0343 18.8211 37.0343C18.4002 37.0343 18.0608 37.3733 18.0608 37.7946V41.6886H17.2072V37.7706C17.2072 36.1104 18.552 34.7652 20.2127 34.7652Z" fill="#C4EF17"/>
<path id="Vector_7" d="M41.1468 11.7742L35.6969 9.09064V2.96828C35.6969 2.07365 34.9952 1.37195 34.1005 1.37195H30.2473C29.3526 1.37195 28.6513 2.07365 28.6513 2.96828V5.63466L23.172 2.96828C22.6168 2.69925 21.9852 2.69925 21.4296 2.96828L3.72454 11.6395C3.23328 11.8796 3.02856 12.4759 3.2683 12.9671C3.44336 13.318 3.79457 13.5227 4.16293 13.5227C4.30905 13.5227 4.4609 13.4873 4.60167 13.423L22.301 4.75182L29.2008 8.11383C29.2122 8.11991 29.224 8.12562 29.2355 8.13134C29.2415 8.13134 29.2472 8.13706 29.2533 8.13706C29.2765 8.14885 29.3062 8.15456 29.3294 8.16671C29.3351 8.16671 29.3408 8.17243 29.3466 8.17243C29.3762 8.17814 29.3994 8.18993 29.4287 8.19565H29.4405C29.4698 8.20137 29.4988 8.20708 29.5341 8.20708C29.5688 8.21316 29.5984 8.21316 29.6335 8.21316C29.6624 8.21316 29.6978 8.21316 29.7267 8.20708H29.7503C29.7735 8.20708 29.8032 8.20137 29.8264 8.19565H29.8435C29.8732 8.18993 29.8964 8.18386 29.92 8.17814C29.9314 8.17243 29.9432 8.17243 29.9489 8.16671C29.9668 8.16028 29.9843 8.15456 30.0015 8.14885C30.0133 8.14313 30.0193 8.14313 30.0311 8.13706C30.0543 8.12562 30.0779 8.11383 30.1011 8.10204C30.1069 8.09597 30.1126 8.09597 30.1247 8.09025C30.1422 8.07882 30.1655 8.06703 30.183 8.0556C30.189 8.04917 30.1947 8.04917 30.2005 8.04345C30.2473 8.00879 30.2941 7.97342 30.3348 7.93234C30.3405 7.92662 30.3405 7.92662 30.347 7.9209C30.3641 7.9034 30.3816 7.87982 30.3995 7.86231C30.3995 7.85659 30.4052 7.85659 30.4052 7.85088C30.4227 7.82729 30.4402 7.80407 30.4581 7.78013C30.4581 7.77442 30.4638 7.77442 30.4638 7.7687C30.4752 7.75119 30.487 7.72797 30.4984 7.71011C30.5042 7.69867 30.5106 7.69296 30.5163 7.68117C30.522 7.67545 30.522 7.66938 30.5281 7.6633C30.5338 7.65759 30.5338 7.65187 30.5338 7.64615C30.5395 7.62865 30.5513 7.61078 30.557 7.58756C30.5631 7.57613 30.5692 7.56434 30.5692 7.55219C30.5749 7.53504 30.5806 7.51753 30.5863 7.49967C30.592 7.48216 30.592 7.47073 30.5981 7.45286C30.6038 7.43536 30.6038 7.42392 30.6096 7.40642C30.616 7.38855 30.616 7.37105 30.616 7.3539C30.616 7.34175 30.6217 7.32424 30.6217 7.31281C30.6217 7.28923 30.6217 7.27172 30.6274 7.2485C30.6274 7.24278 30.6274 7.23707 30.6274 7.22492V3.35414H33.7029V9.72767C33.7029 9.74553 33.7029 9.76876 33.7086 9.78591C33.7086 9.7977 33.7086 9.81556 33.7147 9.82699C33.7147 9.8445 33.7204 9.86236 33.7204 9.87951C33.7204 9.89702 33.7265 9.91489 33.7322 9.92668C33.7383 9.93811 33.7383 9.95562 33.744 9.96741C33.7497 9.98491 33.7554 10.0024 33.7615 10.0203C33.7672 10.0317 33.7672 10.0435 33.7729 10.0549C33.7793 10.0728 33.7851 10.0903 33.7965 10.1075C33.8026 10.1193 33.8083 10.1314 33.814 10.1428C33.8197 10.1603 33.8315 10.1775 33.8376 10.1896C33.8433 10.2014 33.8551 10.2186 33.8608 10.2304C33.8665 10.2425 33.8783 10.2597 33.884 10.2715C33.8962 10.2886 33.9076 10.3007 33.9194 10.3183C33.9251 10.3297 33.9366 10.3415 33.943 10.3476C33.9544 10.3651 33.9662 10.3765 33.9834 10.394C33.9894 10.4061 34.0012 10.4119 34.0073 10.4176C34.0187 10.4294 34.0362 10.4408 34.0477 10.4587C34.0598 10.4705 34.0712 10.4762 34.0773 10.4876C34.0888 10.4994 34.1066 10.5051 34.1184 10.5173C34.1298 10.5287 34.1473 10.5344 34.1588 10.5462C34.1709 10.5519 34.1824 10.5576 34.1941 10.5698C34.2117 10.5812 34.2292 10.5873 34.2467 10.5987C34.2524 10.5987 34.2524 10.6044 34.2585 10.6044L40.2633 13.5638C40.404 13.6338 40.5559 13.6685 40.702 13.6685C41.0704 13.6685 41.4216 13.4641 41.5966 13.1129C41.8421 12.6159 41.6377 12.0196 41.1468 11.7742Z" fill="#C4EF17"/>
</g>
</svg>
