<svg width="45" height="45" viewBox="0 0 45 45" fill="none" xmlns="http://www.w3.org/2000/svg">
<g id="patient 1" clip-path="url(#clip0_131_170)">
<g id="Group">
<g id="Group_2">
<path id="Vector" d="M35.0327 24.0257L31.9775 22.9327L32.047 22.7297C32.1711 22.3669 31.9848 21.971 31.6263 21.8353L28.7884 20.761C28.4573 20.6356 28.0838 20.7735 27.9136 21.0846L27.7332 21.4143L26.7185 21.0514V19.9574C28.0364 18.9557 28.9535 17.4546 29.1873 15.7385C30.7887 15.7327 32.0897 14.4284 32.0897 12.8257C32.0897 12.0123 31.7542 11.2761 31.2149 10.7471V8.43423C31.2147 3.7836 27.4312 0 22.7806 0C18.13 0 14.3464 3.7836 14.3464 8.43423V10.7472C13.8071 11.2763 13.4717 12.0123 13.4717 12.8258C13.4717 14.4284 14.7727 15.7327 16.3741 15.7386C16.6079 17.4547 17.525 18.9558 18.8428 19.9575V21.0521L16.7745 21.792L16.6236 21.3314C16.5637 21.1483 16.4319 20.9974 16.2586 20.9134C16.0852 20.8292 15.8852 20.8191 15.7043 20.8853L13.1149 21.8327C12.8191 21.9409 12.6298 22.2308 12.6499 22.5452L12.6949 23.2515L10.5469 24.0198C10.2505 24.1114 7.86867 24.922 7.23744 27.4898C6.66659 29.812 5.44351 38.8025 5.39235 39.1797C5.38049 39.2629 5.11567 41.2322 6.22529 42.5105C6.82251 43.1987 7.67144 43.5475 8.74845 43.5475H13.9892L14.0394 44.3349C14.0633 44.7088 14.3736 45.0001 14.7485 45.0001H23.3984C23.3989 45 23.3997 45.0001 23.4003 45.0001C23.7928 45.0001 24.1108 44.6821 24.1108 44.2896C24.1108 44.1935 24.0918 44.102 24.0573 44.0184L23.903 43.5475H24.5916C25.4179 44.4742 26.5812 45.0001 27.8379 45.0001H38.9321C39.3247 45.0001 39.6427 44.6821 39.6427 44.2896V30.4579C39.6426 25.7853 35.228 24.0979 35.0327 24.0257ZM8.74836 42.1262C8.09455 42.1262 7.62134 41.9484 7.3016 41.5826C6.73303 40.9319 6.74631 39.7699 6.79974 39.375C6.81231 39.2823 8.06431 30.0783 8.61723 27.8288C9.07655 25.9604 10.8917 25.3996 10.9653 25.3777C10.9799 25.3735 10.9944 25.3689 11.0087 25.3638L12.789 24.727L13.5259 36.2842H12.4115C12.0191 36.2842 11.701 36.6022 11.701 36.9947C11.701 37.3872 12.0192 37.7052 12.4115 37.7052H13.6165L13.8985 42.1262H8.74836ZM29.8154 11.4783C29.8488 11.4942 29.8815 11.5114 29.9135 11.5296C29.9221 11.5345 29.9305 11.5394 29.9389 11.5444C29.9692 11.5625 29.9986 11.5818 30.0274 11.6018C30.0358 11.6076 30.0442 11.6131 30.0525 11.6192C30.4254 11.8907 30.6684 12.3303 30.6684 12.8258C30.6685 13.6246 30.0373 14.2789 29.2475 14.3161V11.3365C29.2544 11.3367 29.2612 11.3368 29.2681 11.3373C29.3021 11.3395 29.3357 11.3427 29.369 11.3471C29.3799 11.3485 29.3908 11.3494 29.4016 11.351C29.4941 11.3649 29.5839 11.3874 29.6701 11.4177C29.6727 11.4186 29.6752 11.4197 29.6778 11.4206C29.7176 11.4348 29.7566 11.4508 29.7946 11.4682C29.8016 11.4716 29.8084 11.475 29.8154 11.4783ZM16.3138 14.3161C15.5239 14.279 14.8928 13.6246 14.8928 12.8258C14.8928 12.3301 15.136 11.8904 15.5092 11.6189C15.5172 11.6131 15.5252 11.6078 15.5332 11.6022C15.5623 11.5819 15.592 11.5624 15.6225 11.5442C15.6308 11.5392 15.6392 11.5344 15.6476 11.5296C15.6796 11.5114 15.7124 11.4942 15.7459 11.4782C15.7529 11.4749 15.7597 11.4715 15.7668 11.4683C15.8048 11.4509 15.8436 11.435 15.8833 11.4208C15.886 11.4199 15.8887 11.4186 15.8915 11.4177C15.9776 11.3874 16.0674 11.3651 16.1599 11.3511C16.1707 11.3495 16.1817 11.3485 16.1925 11.3471C16.2258 11.3427 16.2595 11.3395 16.2934 11.3373C16.3003 11.337 16.3071 11.3369 16.314 11.3365V14.3161H16.3138ZM16.5532 9.14711C16.401 9.28202 16.3138 9.47556 16.3138 9.67894V9.91343C16.2989 9.91378 16.2838 9.91492 16.2689 9.91554C16.2493 9.91633 16.2297 9.91712 16.2102 9.91826C16.1792 9.92011 16.1482 9.92257 16.1175 9.92538C16.1021 9.92679 16.0868 9.92802 16.0715 9.92978C16.0339 9.93373 15.9965 9.93865 15.9592 9.9441C15.9512 9.94524 15.9432 9.9463 15.9351 9.94753C15.8788 9.95623 15.8228 9.9659 15.7675 9.97785V8.43423C15.7675 4.56714 18.9136 1.4211 22.7806 1.4211C26.6475 1.4211 29.7936 4.56723 29.7936 8.43423V9.97768C29.7381 9.96572 29.6822 9.95606 29.626 9.94744C29.618 9.94621 29.61 9.94516 29.6019 9.94401C29.5645 9.93865 29.5272 9.93373 29.4895 9.92969C29.4743 9.92811 29.459 9.92679 29.4436 9.92529C29.4127 9.92257 29.3818 9.92002 29.3509 9.91817C29.3313 9.91703 29.3117 9.91615 29.2921 9.91545C29.2772 9.91492 29.2623 9.91369 29.2472 9.91334V9.67885C29.2472 9.4992 29.1792 9.32632 29.0569 9.19492L26.7949 6.76335C26.6866 6.64689 26.5472 6.57456 26.4005 6.54828C26.2118 6.51453 26.0107 6.55698 25.8472 6.67968C25.8155 6.70349 22.6365 9.05412 18.4492 9.05412C18.0007 9.05412 17.5502 9.02697 17.1101 8.97353C16.9082 8.94909 16.7055 9.0122 16.5532 9.14711ZM17.7348 14.8728V10.7178V10.4552C17.9725 10.4686 18.2111 10.4755 18.4491 10.4755C22.1162 10.4755 25.0169 8.9077 26.1691 8.17715L27.8264 9.95852V10.7178V14.8728C27.8264 17.0101 26.4683 18.8363 24.5698 19.5338C24.5682 19.5344 24.5664 19.5351 24.5649 19.5356C24.4139 19.591 24.2594 19.6391 24.1019 19.6798C24.1016 19.6799 24.1013 19.6799 24.101 19.68C24.0294 19.6984 23.9571 19.7149 23.8843 19.7301C23.8689 19.7333 23.8534 19.7365 23.8378 19.7396C23.7723 19.7527 23.7064 19.7645 23.6399 19.775C23.6301 19.7765 23.6203 19.7784 23.6105 19.7799C23.536 19.7912 23.4609 19.8007 23.3854 19.8087C23.368 19.8105 23.3505 19.8118 23.3331 19.8135C23.274 19.8191 23.2147 19.8235 23.1551 19.827C23.1337 19.8283 23.1124 19.8296 23.0909 19.8305C23.0153 19.834 22.9392 19.8363 22.8628 19.8363H22.6984C22.6219 19.8363 22.5459 19.834 22.4702 19.8305C22.4487 19.8296 22.4275 19.8283 22.4061 19.827C22.3465 19.8235 22.2871 19.819 22.2281 19.8135C22.2107 19.8119 22.1931 19.8105 22.1757 19.8087C22.1002 19.8007 22.0252 19.7913 21.9507 19.7799C21.9407 19.7784 21.9308 19.7765 21.9207 19.7749C21.8545 19.7644 21.7887 19.7527 21.7234 19.7396C21.7076 19.7364 21.692 19.7333 21.6763 19.7299C21.6037 19.7146 21.5318 19.6984 21.4606 19.68C21.46 19.6799 21.4594 19.6797 21.4589 19.6796C21.3018 19.6391 21.1477 19.591 20.9969 19.5359C20.9948 19.5351 20.9926 19.5344 20.9905 19.5336C19.0925 18.8358 17.7348 17.01 17.7348 14.8728ZM25.2973 20.7763V22.1485L22.7805 24.0693L20.2638 22.1485V20.7763C20.337 20.8065 20.4112 20.8341 20.4854 20.8615C20.4937 20.8646 20.5017 20.8678 20.5099 20.8709C20.5927 20.9012 20.6764 20.9291 20.7604 20.9559C20.7773 20.9613 20.7938 20.9672 20.8108 20.9725C20.8874 20.9962 20.9648 21.0176 21.0422 21.0383C21.0673 21.0451 21.0919 21.0526 21.1169 21.059C21.1881 21.0772 21.2599 21.093 21.3317 21.1087C21.3636 21.1158 21.3952 21.1236 21.4272 21.1301C21.4943 21.1436 21.5621 21.1549 21.6298 21.1664C21.6668 21.1726 21.7036 21.1799 21.7409 21.1856C21.8066 21.1955 21.8727 21.203 21.9389 21.2108C21.9784 21.2155 22.0176 21.2213 22.0573 21.2254C22.1278 21.2324 22.1987 21.2368 22.2697 21.2415C22.3053 21.2439 22.3404 21.2476 22.3763 21.2493C22.4833 21.2546 22.5906 21.2575 22.6982 21.2575H22.8626C22.9702 21.2575 23.0776 21.2546 23.1845 21.2493C23.2205 21.2474 23.2559 21.2437 23.2916 21.2415C23.3623 21.2367 23.4331 21.2324 23.5035 21.2253C23.5435 21.2213 23.5829 21.2154 23.6226 21.2107C23.6885 21.2029 23.7544 21.1954 23.8199 21.1856C23.8573 21.1798 23.8943 21.1725 23.9315 21.1662C23.999 21.1549 24.0666 21.1435 24.1336 21.13C24.1657 21.1235 24.1972 21.1156 24.2292 21.1086C24.301 21.0928 24.3728 21.077 24.444 21.0589C24.4692 21.0525 24.4938 21.045 24.5187 21.0383C24.5962 21.0176 24.6735 20.9962 24.7501 20.9725C24.7671 20.9673 24.7837 20.9613 24.8005 20.9559C24.8845 20.9291 24.9682 20.9012 25.0511 20.8709C25.0593 20.8679 25.0673 20.8646 25.0756 20.8615C25.1499 20.834 25.2241 20.8065 25.2973 20.7763ZM18.8462 22.5601C18.8631 22.7588 18.962 22.9427 19.1222 23.0647L22.3495 25.5279C22.4768 25.625 22.6287 25.6736 22.7805 25.6736C22.9323 25.6736 23.0844 25.625 23.2115 25.5279L26.4389 23.0647C26.599 22.9424 26.6981 22.7585 26.7148 22.5595L27.0424 22.6767L20.8021 34.0843L17.217 23.1429L18.8462 22.5601ZM15.4151 43.5789L14.1019 22.9848L15.5021 22.4724L20.1684 36.7135L20.333 37.2159C20.333 37.2159 20.333 37.2159 20.333 37.216L22.4178 43.5789H15.4151ZM23.3972 42.0042L21.9886 37.7052H23.3972V42.0042ZM27.8378 43.5789C26.9078 43.5789 26.0527 43.1525 25.4916 42.4089C25.4903 42.4071 25.4888 42.4056 25.4875 42.4039C25.4762 42.3893 25.4643 42.3752 25.452 42.3615C25.4479 42.357 25.4438 42.3524 25.4396 42.3478C25.4284 42.336 25.4166 42.3248 25.4047 42.3138C25.3989 42.3085 25.3933 42.3032 25.3874 42.2981C25.3763 42.2884 25.3646 42.2794 25.3529 42.2705C25.3459 42.2653 25.3393 42.2599 25.3321 42.255C25.3204 42.2467 25.3082 42.2392 25.2959 42.2316C25.2886 42.2271 25.2814 42.2225 25.2741 42.2184C25.2611 42.2111 25.2478 42.2045 25.2344 42.198C25.2273 42.1945 25.2204 42.1909 25.2132 42.1878C25.1993 42.1816 25.185 42.1761 25.1706 42.1708C25.1635 42.1682 25.1565 42.1654 25.1493 42.1631C25.135 42.1583 25.1206 42.1544 25.106 42.1506C25.098 42.1485 25.0901 42.1462 25.0821 42.1444C25.0687 42.1415 25.0552 42.1391 25.0416 42.1368C25.0317 42.1352 25.0218 42.1335 25.0119 42.1322C25 42.1308 24.9882 42.1299 24.9762 42.129C24.9639 42.1281 24.9517 42.1274 24.9394 42.127C24.9345 42.127 24.9298 42.1262 24.925 42.1262H24.8183V37.7052H26.4168H27.8378C29.4572 37.7052 30.7747 39.0226 30.7747 40.642C30.7747 42.2613 29.4573 43.5789 27.8378 43.5789ZM34.254 43.5789V33.6789C34.254 33.2864 33.936 32.9684 33.5435 32.9684C33.151 32.9684 32.833 33.2864 32.833 33.6789V43.5789H31.0544C31.7628 42.8037 32.1957 41.7725 32.1957 40.642C32.1957 38.239 30.2407 36.2842 27.8378 36.2842H27.4108L29.2372 30.9453C29.3641 30.5739 29.1662 30.17 28.7949 30.043C28.4238 29.9164 28.0196 30.114 27.8926 30.4853L25.9089 36.2842H21.5231L21.447 36.052L21.409 35.9361L28.8635 22.3091L30.4798 22.921L28.5422 28.586C28.4153 28.9573 28.6132 29.3612 28.9846 29.4882C29.3554 29.6148 29.7598 29.4173 29.8868 29.0458L31.5177 24.2775L34.5484 25.3616C34.7419 25.4351 38.2215 26.8112 38.2215 30.4577V43.5788H34.254V43.5789Z" fill="#C4EF17"/>
</g>
</g>
</g>
<defs>
<clipPath id="clip0_131_170">
<rect width="45" height="45" fill="white"/>
</clipPath>
</defs>
</svg>
