<svg width="45" height="45" viewBox="0 0 45 45" fill="none" xmlns="http://www.w3.org/2000/svg">
<g id="graduated 1" clip-path="url(#clip0_131_189)">
<g id="Page-1">
<g id="001---Degree">
<path id="Shape" d="M44.0015 7.58848L23.009 0.0884844C22.6775 -0.0285182 22.3159 -0.0285182 21.9845 0.0884844L0.997208 7.58848C0.402367 7.8029 0.00585938 8.3673 0.00585938 8.99961C0.00585938 9.63191 0.402367 10.1963 0.997208 10.4107L11.2497 14.0737V18.75C11.2497 21.666 21.3485 21.75 22.4997 21.75C23.651 21.75 33.7497 21.666 33.7497 18.75V14.0737L35.9997 13.275V15C35.9997 15.8284 36.6713 16.5 37.4997 16.5H38.9997C39.8281 16.5 40.4997 15.8284 40.4997 15V12.75C40.4975 12.4027 40.4137 12.0608 40.2552 11.7517L44.0052 10.4107C44.6001 10.1963 44.9966 9.63191 44.9966 8.99961C44.9966 8.3673 44.6001 7.8029 44.0052 7.58848H44.0015ZM32.2497 17.1C29.393 15.7995 23.3735 15.75 22.4997 15.75C21.626 15.75 15.6065 15.7995 12.7497 17.1V10.566C13.1997 9.98848 16.7367 8.99998 22.4997 8.99998C28.2627 8.99998 31.7997 9.98848 32.2497 10.566V17.1ZM22.4997 20.25C16.9497 20.25 13.4645 19.3335 12.8127 18.75C13.4645 18.1665 16.9512 17.25 22.4997 17.25C28.0482 17.25 31.535 18.1665 32.1867 18.75C31.535 19.3335 28.0497 20.25 22.4997 20.25ZM36.3515 11.5537L33.7497 12.4815V10.5C33.7497 7.58398 23.651 7.49998 22.4997 7.49998C21.3485 7.49998 11.2497 7.58398 11.2497 10.5V12.4807L1.49971 8.99998L22.5102 1.49998L37.4997 6.85648V10.638C37.0255 10.8065 36.6213 11.1289 36.3515 11.5537ZM38.9997 15H37.4997V12.75C37.4997 12.3358 37.8355 12 38.2497 12C38.6639 12 38.9997 12.3358 38.9997 12.75V15ZM38.9997 10.608V7.39273L43.4997 8.99998L38.9997 10.608Z" fill="#C4EF17"/>
<path id="Shape_2" d="M42.75 23.25C42.705 23.2499 42.66 23.2539 42.6157 23.262C35.9612 24.2966 29.2343 24.7942 22.5 24.75C15.7657 24.7942 9.03875 24.2966 2.38425 23.262C2.33989 23.2544 2.295 23.2504 2.25 23.25C1.725 23.25 0 23.8448 0 31.5C0 39.1553 1.725 39.75 2.25 39.75C2.29504 39.7491 2.33993 39.7445 2.38425 39.7365C7.49753 38.9266 12.6588 38.456 17.8342 38.328L16.3703 41.8395C16.1453 42.4018 16.2821 43.0442 16.7165 43.4661C17.1509 43.888 17.797 44.006 18.3525 43.7648L18.9263 43.5195L19.1745 44.0903C19.409 44.6437 19.9527 45.0023 20.5538 45H20.5725C21.178 44.9953 21.7209 44.6257 21.9473 44.064L23.25 40.9455L24.5482 44.052C24.7726 44.619 25.3178 44.9937 25.9275 45H25.95C26.547 45.0025 27.0877 44.6482 27.324 44.1L27.5745 43.5248L28.1393 43.767C28.6971 44.0133 29.3487 43.896 29.7856 43.4706C30.2225 43.0452 30.3572 42.397 30.126 41.8328L28.6905 38.3903C33.3567 38.5555 38.0084 39.0063 42.6195 39.7403C42.6626 39.7474 42.7063 39.7507 42.75 39.75C43.275 39.75 45 39.1553 45 31.5C45 23.8448 43.275 23.25 42.75 23.25ZM24.9 26.2275C25.2115 27.3727 25.3929 28.5494 25.4408 29.7353C23.7402 28.9445 21.7457 29.1299 20.22 30.2205C20.1816 28.8737 20.009 27.5341 19.7048 26.2215C20.6133 26.2405 21.545 26.25 22.5 26.25C23.3197 26.25 24.1155 26.241 24.9 26.2275ZM23.25 38.25C21.1789 38.25 19.5 36.5711 19.5 34.5C19.5 32.4289 21.1789 30.75 23.25 30.75C25.3211 30.75 27 32.4289 27 34.5C26.9975 36.57 25.32 38.2475 23.25 38.25ZM2.25 25.125C2.82466 27.1991 3.07761 29.3491 3 31.5C3.07761 33.6509 2.82466 35.8009 2.25 37.875C1.67534 35.8009 1.42239 33.6509 1.5 31.5C1.42239 29.3491 1.67534 27.1991 2.25 25.125ZM3.765 38.0025C4.17525 36.813 4.5 34.8225 4.5 31.5C4.5 28.1775 4.17525 26.187 3.76425 24.996C8.53019 25.6542 13.3286 26.0506 18.138 26.1833C18.5878 27.9185 18.7938 29.7079 18.75 31.5C18.75 31.6088 18.75 31.7123 18.7455 31.8165C17.8455 33.3102 17.7548 35.1558 18.504 36.7305L18.471 36.81C13.5504 36.9306 8.64059 37.3292 3.765 38.004V38.0025ZM20.5553 43.5L20.0077 42.24C19.8431 41.8617 19.4037 41.6874 19.0245 41.85L17.7623 42.408L19.521 38.1915C20.2431 38.9232 21.1642 39.4265 22.17 39.639L20.5553 43.5ZM27.4755 41.85C27.0963 41.6874 26.6569 41.8617 26.4923 42.24L25.9373 43.4873L24.3293 39.6375C25.3358 39.4249 26.2577 38.9213 26.9805 38.1893L28.7355 42.3893L27.4755 41.85ZM42.6 38.2125C37.7815 37.4709 32.9227 37.0201 28.05 36.8625L27.9967 36.7335C28.94 34.746 28.5356 32.3804 26.9857 30.819C26.9799 29.2636 26.8003 27.7137 26.4502 26.1983C31.8583 26.0772 37.2529 25.6057 42.6 24.7868C42.948 25.3778 43.5 27.7155 43.5 31.5C43.5 35.2845 42.9442 37.6215 42.6 38.2125Z" fill="#C4EF17"/>
</g>
</g>
</g>
<defs>
<clipPath id="clip0_131_189">
<rect width="45" height="45" fill="white"/>
</clipPath>
</defs>
</svg>
