<svg width="45" height="45" viewBox="0 0 45 45" fill="none" xmlns="http://www.w3.org/2000/svg">
<g id="bandit 1">
<path id="Vector" d="M4.92188 42.1875V43.5938C4.92188 43.7802 4.99595 43.9591 5.12782 44.0909C5.25968 44.2228 5.43852 44.2969 5.625 44.2969H39.375C39.5615 44.2969 39.7403 44.2228 39.8722 44.0909C40.004 43.9591 40.0781 43.7802 40.0781 43.5938V42.1875C40.0727 38.9564 38.8972 35.8365 36.7692 33.4051C34.6411 30.9737 31.7045 29.3952 28.5026 28.9617C30.5864 27.339 32.0649 25.0634 32.7009 22.5H33.0469C33.9793 22.5 34.8735 22.1296 35.5328 21.4703C36.1921 20.811 36.5625 19.9168 36.5625 18.9844C36.5625 18.052 36.1921 17.1578 35.5328 16.4985C34.8735 15.8391 33.9793 15.4688 33.0469 15.4688V13.9331C33.4567 13.7882 33.8118 13.5202 34.0635 13.1658C34.3153 12.8114 34.4513 12.3878 34.4531 11.9531V10.5469C34.451 10.0904 34.3008 9.64695 34.0252 9.28309C33.7496 8.91922 33.3634 8.65458 32.9245 8.52891C32.4087 6.30382 31.1545 4.31902 29.3663 2.89793C27.5781 1.47683 25.3614 0.703211 23.0773 0.703125H21.9227C19.6392 0.704005 17.4233 1.47799 15.6358 2.89902C13.8484 4.32005 12.5947 6.30441 12.079 8.52891C11.6395 8.65395 11.2525 8.91831 10.9762 9.28223C10.6999 9.64615 10.5492 10.09 10.5469 10.5469V11.9531C10.5487 12.3878 10.6847 12.8114 10.9365 13.1658C11.1882 13.5202 11.5433 13.7882 11.9531 13.9331V15.4688C11.0207 15.4688 10.1265 15.8391 9.4672 16.4985C8.8079 17.1578 8.4375 18.052 8.4375 18.9844C8.4375 19.9168 8.8079 20.811 9.4672 21.4703C10.1265 22.1296 11.0207 22.5 11.9531 22.5H12.2991C12.9351 25.0634 14.4136 27.339 16.4974 28.9617C13.2955 29.3952 10.3589 30.9737 8.23084 33.4051C6.1028 35.8365 4.92733 38.9564 4.92188 42.1875ZM13.3594 19.6875V16.875H31.6406V19.6875C31.6402 20.0839 31.6167 20.48 31.5703 20.8737L30.4059 22.038C30.0375 22.4086 29.5992 22.7023 29.1164 22.9023C28.6336 23.1023 28.116 23.2045 27.5934 23.2031C26.9626 23.2049 26.3377 23.0815 25.7549 22.8401C25.1721 22.5987 24.6429 22.2441 24.198 21.7969C23.7404 21.361 23.1327 21.1179 22.5007 21.1179C21.8687 21.1179 21.261 21.361 20.8034 21.7969C20.3585 22.2441 19.8294 22.5987 19.2465 22.8401C18.6637 23.0815 18.0388 23.2049 17.408 23.2031C16.8854 23.2045 16.3678 23.1023 15.885 22.9023C15.4023 22.7023 14.9639 22.4086 14.5955 22.038L13.4297 20.8737C13.3833 20.48 13.3598 20.0839 13.3594 19.6875ZM31.6406 14.0625V15.4688H13.3594V14.0625H31.6406ZM35.1562 18.9844C35.1562 19.5438 34.934 20.0803 34.5384 20.4759C34.1428 20.8715 33.6063 21.0938 33.0469 21.0938H32.9611C33.0179 20.6272 33.0466 20.1575 33.0469 19.6875V16.875C33.6063 16.875 34.1428 17.0972 34.5384 17.4928C34.934 17.8884 35.1562 18.4249 35.1562 18.9844ZM21.9227 2.10938H23.0773C24.9723 2.10883 26.8157 2.72644 28.3279 3.86848C29.8401 5.01052 30.9385 6.61466 31.4564 8.4375H13.5436C14.0615 6.61466 15.1599 5.01052 16.6721 3.86848C18.1843 2.72644 20.0277 2.10883 21.9227 2.10938ZM11.9531 10.5469C11.9531 10.3604 12.0272 10.1816 12.1591 10.0497C12.2909 9.91783 12.4698 9.84375 12.6562 9.84375H32.3438C32.5302 9.84375 32.7091 9.91783 32.8409 10.0497C32.9728 10.1816 33.0469 10.3604 33.0469 10.5469V11.9531C33.0469 12.1396 32.9728 12.3184 32.8409 12.4503C32.7091 12.5822 32.5302 12.6562 32.3438 12.6562H12.6562C12.4698 12.6562 12.2909 12.5822 12.1591 12.4503C12.0272 12.3184 11.9531 12.1396 11.9531 11.9531V10.5469ZM11.9531 21.0938C11.3937 21.0938 10.8572 20.8715 10.4616 20.4759C10.066 20.0803 9.84375 19.5438 9.84375 18.9844C9.84375 18.4249 10.066 17.8884 10.4616 17.4928C10.8572 17.0972 11.3937 16.875 11.9531 16.875V19.6875C11.9534 20.1575 11.9821 20.6272 12.0389 21.0938H11.9531ZM14.085 23.4577C15.0308 24.2053 16.2016 24.6112 17.4073 24.6094C18.2228 24.6116 19.0307 24.452 19.7842 24.1399C20.5377 23.8278 21.2218 23.3694 21.7969 22.7911C21.9876 22.6129 22.239 22.5138 22.5 22.5138C22.761 22.5138 23.0124 22.6129 23.2031 22.7911C23.7782 23.3694 24.4623 23.8278 25.2158 24.1399C25.9693 24.452 26.7772 24.6116 27.5927 24.6094C28.7984 24.6112 29.9692 24.2053 30.915 23.4577C30.1989 25.2953 28.9728 26.8902 27.3811 28.0547L25.9045 29.1319C24.9106 29.8372 23.7219 30.2161 22.5032 30.2161C21.2844 30.2161 20.0957 29.8372 19.1018 29.1319L17.6189 28.0547C16.027 26.8904 14.8009 25.2954 14.085 23.4577ZM25.7491 30.8672C25.4852 31.5122 25.0353 32.064 24.4566 32.4524C23.878 32.8408 23.1969 33.0482 22.5 33.0482C21.8031 33.0482 21.122 32.8408 20.5434 32.4524C19.9647 32.064 19.5148 31.5122 19.2509 30.8672C20.2582 31.3766 21.3712 31.642 22.5 31.642C23.6288 31.642 24.7418 31.3766 25.7491 30.8672ZM17.6393 30.2681C17.8136 31.4326 18.4001 32.4958 19.2922 33.2643C20.1843 34.0328 21.3226 34.4555 22.5 34.4555C23.6774 34.4555 24.8157 34.0328 25.7078 33.2643C26.5999 32.4958 27.1864 31.4326 27.3607 30.2681C30.4121 30.4333 33.2845 31.7604 35.3881 33.9771C37.4916 36.1937 38.6666 39.1316 38.6719 42.1875V42.8906H33.0469V37.9688H31.6406V42.8906H13.3594V37.9688H11.9531V42.8906H6.32812V42.1875C6.333 39.1314 7.50788 36.1931 9.61146 33.9762C11.715 31.7592 14.5876 30.4319 17.6393 30.2667V30.2681Z" fill="#C4EF17"/>
<path id="Vector_2" d="M27.0703 21.7969C27.723 21.7969 28.3489 21.5376 28.8105 21.0761C29.272 20.6146 29.5312 19.9886 29.5312 19.336V18.2813C29.5313 18.177 29.5081 18.074 29.4634 17.9798C29.4187 17.8856 29.3536 17.8025 29.2729 17.7365C29.1921 17.6706 29.0977 17.6234 28.9964 17.5984C28.8952 17.5735 28.7897 17.5714 28.6875 17.5922L25.1719 18.2953C25.0131 18.3278 24.8703 18.414 24.7678 18.5396C24.6653 18.6652 24.6093 18.8223 24.6094 18.9844V19.336C24.6094 19.9886 24.8687 20.6146 25.3302 21.0761C25.7917 21.5376 26.4176 21.7969 27.0703 21.7969ZM28.125 19.1391V19.336C28.125 19.5965 28.0286 19.8479 27.8543 20.0416C27.6799 20.2353 27.4401 20.3576 27.181 20.3849C26.9218 20.4122 26.6617 20.3427 26.4508 20.1896C26.24 20.0366 26.0932 19.8109 26.0388 19.556L28.125 19.1391Z" fill="#C4EF17"/>
<path id="Vector_3" d="M17.9297 21.7969C18.5824 21.7969 19.2083 21.5376 19.6698 21.0761C20.1313 20.6146 20.3906 19.9886 20.3906 19.336V18.9844C20.3907 18.8223 20.3347 18.6652 20.2322 18.5396C20.1297 18.414 19.9869 18.3278 19.8281 18.2953L16.3125 17.5922C16.2103 17.5714 16.1048 17.5735 16.0036 17.5984C15.9023 17.6234 15.8079 17.6706 15.7271 17.7365C15.6464 17.8025 15.5813 17.8856 15.5366 17.9798C15.4919 18.074 15.4687 18.177 15.4688 18.2813V19.336C15.4688 19.9886 15.728 20.6146 16.1895 21.0761C16.6511 21.5376 17.277 21.7969 17.9297 21.7969ZM16.875 19.1391L18.9612 19.556C18.9068 19.8109 18.76 20.0366 18.5492 20.1896C18.3383 20.3427 18.0782 20.4122 17.819 20.3849C17.5599 20.3576 17.3201 20.2353 17.1457 20.0416C16.9714 19.8479 16.875 19.5965 16.875 19.336V19.1391Z" fill="#C4EF17"/>
</g>
</svg>
