<svg width="45" height="45" viewBox="0 0 45 45" fill="none" xmlns="http://www.w3.org/2000/svg">
<g id="handshake 1" clip-path="url(#clip0_131_205)">
<path id="Vector" d="M44.8167 19.1917L37.2849 9.40771C37.0061 9.04585 36.4977 8.95659 36.1121 9.20172L31.2493 12.2944H24.9071C24.825 12.2944 24.7433 12.3119 24.6644 12.3349L19.747 13.7504L14.6445 12.3548L9.68656 9.20172C9.30753 8.96071 8.80834 9.04242 8.52647 9.39192L0.195745 19.7108C-0.103633 20.0816 -0.0541942 20.623 0.306982 20.9337L4.67336 24.6914L8.59068 29.9703C7.44501 31.1909 7.46732 33.1159 8.65934 34.3082C9.18771 34.8363 9.8596 35.1346 10.5507 35.204C10.5267 35.3605 10.5143 35.5195 10.5143 35.6808C10.5143 36.5137 10.8388 37.2969 11.4276 37.8857C12.0167 38.4748 12.7998 38.7992 13.6327 38.7992C13.644 38.7992 13.655 38.7985 13.666 38.7982C13.6657 38.8195 13.6646 38.8404 13.6646 38.8617C13.6646 39.6946 13.9891 40.4777 14.5779 41.0669C15.167 41.6557 15.9501 41.9801 16.783 41.9801C16.9475 41.9801 17.1102 41.9667 17.2699 41.942C17.3375 42.6355 17.6365 43.3105 18.1666 43.8406C18.7743 44.4486 19.5729 44.7525 20.3715 44.7525C21.17 44.7525 21.9686 44.4486 22.5766 43.8406L23.0535 43.3637L23.2537 43.5251C23.8565 44.1091 24.6393 44.4009 25.4221 44.4009C26.2206 44.4009 27.0192 44.097 27.6269 43.489C28.2473 42.8686 28.5511 42.0498 28.5384 41.2351C29.3528 41.2475 30.1719 40.944 30.7923 40.3239C31.412 39.7039 31.7159 38.8858 31.7039 38.0714C32.5522 38.0848 33.357 37.759 33.9574 37.1585C34.5778 36.5381 34.8817 35.7193 34.8689 34.9046C35.684 34.9169 36.5025 34.6134 37.1229 33.9931C38.1817 32.9343 38.318 31.2976 37.5328 30.0895L40.393 24.0992L44.6931 20.3988C45.0485 20.0929 45.1027 19.5629 44.8167 19.1917ZM9.40435 11.1137L12.9694 13.3806L5.2141 22.8289L2.10634 20.1541L9.40435 11.1137ZM9.90732 31.1459L10.9833 30.0699C11.0159 30.0373 11.0502 30.0064 11.0853 29.9776C11.2957 29.8059 11.5505 29.7036 11.8203 29.6792C11.8279 29.6785 11.8358 29.6785 11.8433 29.6782C11.8818 29.6751 11.9202 29.673 11.959 29.6734C12.3277 29.6785 12.6704 29.8292 12.9244 30.0974C13.4229 30.6244 13.3962 31.4854 12.8647 32.0169L11.8213 33.0603C11.2937 33.5879 10.435 33.5879 9.90732 33.0603C9.37963 32.5322 9.37963 31.6736 9.90732 31.1459ZM12.6755 36.6377C12.4198 36.3822 12.279 36.0424 12.279 35.6808C12.279 35.3193 12.4198 34.9794 12.6755 34.7237L14.7619 32.6373C15.1615 32.2377 15.7898 32.1281 16.3007 32.3715C16.8273 32.6225 17.1236 33.1941 17.0464 33.7692C17.0052 34.0761 16.8624 34.3652 16.6433 34.5846L14.5899 36.6377C14.3341 36.8935 13.9942 37.0342 13.6327 37.0342C13.2712 37.0342 12.9313 36.8935 12.6755 36.6377ZM15.8259 39.8186C15.5701 39.5631 15.4293 39.2232 15.4293 38.8617C15.4293 38.5002 15.5701 38.1603 15.8259 37.9045L17.9119 35.8182C18.3393 35.3911 19.0249 35.2991 19.5482 35.6036C20.0261 35.8817 20.2764 36.4276 20.1943 36.9714C20.1493 37.2704 20.0072 37.5516 19.7933 37.7655L17.7402 39.8186C17.4845 40.0743 17.1446 40.2151 16.783 40.2151C16.4215 40.2151 16.0816 40.0743 15.8259 39.8186ZM19.4143 42.5926C18.8866 42.0649 18.8866 41.2063 19.4143 40.6786L20.4902 39.6026C20.5229 39.57 20.5568 39.5394 20.5919 39.5106C20.5929 39.5099 20.5936 39.5092 20.5943 39.5085C20.7694 39.3664 20.975 39.2713 21.1944 39.2298C21.1996 39.2291 21.2047 39.2284 21.2099 39.2277C21.2476 39.2208 21.2861 39.2153 21.3245 39.2119C21.34 39.2105 21.3554 39.2105 21.3712 39.2095C21.4028 39.2078 21.434 39.2057 21.466 39.2061C21.8344 39.2112 22.1773 39.3616 22.4314 39.6301C22.4626 39.663 22.4918 39.6974 22.5186 39.7327C22.9244 40.2632 22.8698 41.0511 22.3662 41.5551L21.3283 42.593C20.8006 43.1206 19.942 43.1203 19.4143 42.5926ZM35.8749 32.7451C35.3472 33.2731 34.4885 33.2728 33.9609 32.7451C33.9416 32.7259 33.9214 32.708 33.9008 32.6912L28.227 26.9577C27.884 26.6113 27.3255 26.6085 26.979 26.9515C26.6326 27.2941 26.6299 27.8527 26.9725 28.1991L32.7077 33.9941C32.7084 33.9948 32.7091 33.9955 32.7098 33.9962C33.2375 34.5238 33.2375 35.3828 32.7098 35.9105C32.454 36.1663 32.1141 36.3071 31.7526 36.3071C31.3907 36.3071 31.0509 36.1663 30.7954 35.9105L26.9588 32.0341C26.6162 31.6876 26.0576 31.6849 25.7112 32.0275C25.3647 32.3705 25.362 32.9291 25.7046 33.2755L29.4826 37.0926C29.5018 37.1166 29.5224 37.1396 29.5444 37.1616C30.072 37.6893 30.072 38.5483 29.5444 39.076C29.0163 39.6036 28.1573 39.6033 27.6296 39.0756L25.5357 36.9597C25.1927 36.6133 24.6342 36.6102 24.2877 36.9532C23.9413 37.2958 23.9386 37.8544 24.2812 38.2008L26.3168 40.2573C26.336 40.2814 26.3566 40.3047 26.3789 40.3267C26.9066 40.8544 26.9066 41.7134 26.3789 42.241C25.8512 42.7691 24.9926 42.7687 24.4649 42.241C24.4041 42.1803 24.3327 42.1336 24.2647 42.0814C24.2071 42.0375 24.192 42.0069 24.2208 41.9369C24.25 41.8658 24.2936 41.8016 24.3228 41.7302C24.355 41.6505 24.3811 41.5685 24.4065 41.4861C24.5418 41.0501 24.5816 40.5811 24.5209 40.1286C24.4041 39.2603 23.9266 38.4769 23.2028 37.9811C22.8118 37.7136 22.3593 37.5382 21.8903 37.4723C22.1176 36.4698 21.8447 35.3828 21.1347 34.6327C20.5503 34.0154 19.761 33.669 18.912 33.6573C18.8811 33.6569 18.8502 33.6569 18.8189 33.6573C18.8378 32.847 18.5433 32.042 17.9847 31.4518C17.4 30.8345 16.6107 30.4881 15.762 30.4764C15.5097 30.473 15.2549 30.4998 15.0091 30.5564C14.904 29.8255 14.5357 29.1491 13.9778 28.6654C13.4233 28.1854 12.726 27.919 11.9834 27.9087C11.2016 27.8974 10.4336 28.1858 9.85307 28.71L6.44216 24.1139L14.6023 14.1727L17.2029 14.8841L13.8064 20.8774C13.3958 21.6022 13.2921 22.4433 13.5143 23.246C13.7364 24.0491 14.2576 24.7172 14.9823 25.1278C15.0276 25.1535 15.0733 25.1779 15.1196 25.2012C15.1231 25.203 15.1265 25.2047 15.1303 25.2064C15.2522 25.2672 15.3775 25.3194 15.5045 25.3633C16.0961 25.5683 16.735 25.5906 17.3512 25.4203C18.1539 25.1982 18.822 24.6767 19.2327 23.9522L21.4399 20.0572L25.3809 20.3367L35.8752 30.8307C36.4026 31.3587 36.4026 32.2174 35.8749 32.7451ZM36.2405 28.7004L26.3957 18.856C26.3772 18.8371 26.3576 18.8192 26.3374 18.8024C26.1956 18.6843 26.0198 18.6129 25.8344 18.5998L21.009 18.2575C20.6753 18.2345 20.3436 18.412 20.1789 18.7028L17.6973 23.0823C17.5191 23.3967 17.229 23.623 16.8805 23.7195C16.5324 23.8159 16.1671 23.7706 15.8523 23.5924C15.5378 23.4143 15.3116 23.1241 15.2151 22.7757C15.1186 22.4272 15.1636 22.0619 15.3421 21.7474L18.6548 15.901L19.9972 15.5147C20.0062 15.512 20.0147 15.5086 20.0237 15.5058L25.0338 14.0591H31.0872L38.6445 23.6659L36.2405 28.7004ZM39.8004 22.2809L32.8118 13.392L36.3785 11.1236L42.9089 19.6061L39.8004 22.2809Z" fill="#C4EF17"/>
<path id="Vector_2" d="M27.2622 10.6375C27.4881 10.6375 27.714 10.5513 27.8864 10.379L33.9138 4.35159C34.2585 4.0069 34.2585 3.44831 33.9138 3.10361C33.5691 2.75892 33.0105 2.75892 32.6658 3.10361L26.6384 9.13099C26.2937 9.47569 26.2937 10.0343 26.6384 10.379C26.8108 10.5513 27.0367 10.6375 27.2622 10.6375Z" fill="#C4EF17"/>
<path id="Vector_3" d="M17.114 10.379C17.2864 10.5513 17.5123 10.6375 17.7382 10.6375C17.9637 10.6375 18.1897 10.5513 18.362 10.379C18.7067 10.0343 18.7067 9.47569 18.362 9.13099L12.3346 3.10361C11.9899 2.75892 11.4313 2.75892 11.0866 3.10361C10.742 3.44831 10.742 4.0069 11.0866 4.35159L17.114 10.379Z" fill="#C4EF17"/>
<path id="Vector_4" d="M22.4995 10.6375C22.9867 10.6375 23.3819 10.2424 23.3819 9.75518V4.76704C23.3819 4.27987 22.9867 3.8847 22.4995 3.8847C22.0124 3.8847 21.6172 4.27987 21.6172 4.76704V9.75518C21.6172 10.2424 22.0124 10.6375 22.4995 10.6375Z" fill="#C4EF17"/>
<path id="Vector_5" d="M21.6859 1.56898C21.8259 1.90852 22.1751 2.13134 22.5435 2.11211C22.9074 2.09323 23.227 1.84741 23.3396 1.501C23.4526 1.15184 23.3297 0.753929 23.0372 0.531456C22.7388 0.304176 22.3227 0.291473 22.0106 0.49781C21.6625 0.727837 21.5276 1.18583 21.6859 1.56898Z" fill="#C4EF17"/>
</g>
<defs>
<clipPath id="clip0_131_205">
<rect width="45" height="45" fill="white"/>
</clipPath>
</defs>
</svg>
