<svg width="70" height="70" viewBox="0 0 70 70" fill="none" xmlns="http://www.w3.org/2000/svg">
<path d="M66.7188 24.0625H59.5C56.9224 24.0653 54.3927 23.3661 52.1824 22.0399C49.972 20.7137 48.1646 18.8107 46.9541 16.535L45.6158 14.0257C44.2662 11.4892 42.052 9.52047 39.375 8.47684V6.5625C39.375 5.40218 38.9141 4.28938 38.0936 3.46891C37.2731 2.64844 36.1603 2.1875 35 2.1875C33.8397 2.1875 32.7269 2.64844 31.9064 3.46891C31.0859 4.28938 30.625 5.40218 30.625 6.5625V8.47684C27.948 9.52048 25.7338 11.4892 24.3841 14.0257L23.046 16.535C21.8354 18.8107 20.028 20.7137 17.8177 22.0399C15.6074 23.3661 13.0776 24.0653 10.5 24.0625H3.28125C2.99117 24.0625 2.71297 24.1777 2.50786 24.3829C2.30274 24.588 2.1875 24.8662 2.1875 25.1562V29.5312C2.1875 29.8213 2.30274 30.0995 2.50786 30.3046C2.71297 30.5098 2.99117 30.625 3.28125 30.625H10.4697L6.89011 40.4688H5.46875C5.17867 40.4688 4.90047 40.584 4.69536 40.7891C4.49024 40.9942 4.375 41.2724 4.375 41.5625C4.375 43.8831 5.29687 46.1087 6.93782 47.7497C8.57876 49.3906 10.8044 50.3125 13.125 50.3125C15.4456 50.3125 17.6712 49.3906 19.3122 47.7497C20.9531 46.1087 21.875 43.8831 21.875 41.5625C21.875 41.2724 21.7598 40.9942 21.5546 40.7891C21.3495 40.584 21.0713 40.4688 20.7812 40.4688H19.3599L15.7803 30.625H18.4482C21.6275 30.6254 24.6987 29.4714 27.0911 27.3775L29.9695 24.8588C30.1786 24.6767 30.3974 24.5061 30.625 24.3478V53.3355L28.8553 56.875H26.25C26.0802 56.875 25.9127 56.9145 25.7609 56.9905C25.609 57.0664 25.4769 57.1767 25.375 57.3125L22.4219 61.25H17.5C17.2099 61.25 16.9317 61.3652 16.7266 61.5704C16.5215 61.7755 16.4063 62.0537 16.4062 62.3438V66.7188C16.4063 67.0088 16.5215 67.287 16.7266 67.4921C16.9317 67.6973 17.2099 67.8125 17.5 67.8125H52.5C52.7901 67.8125 53.0683 67.6973 53.2734 67.4921C53.4785 67.287 53.5937 67.0088 53.5938 66.7188V62.3438C53.5937 62.0537 53.4785 61.7755 53.2734 61.5704C53.0683 61.3652 52.7901 61.25 52.5 61.25H47.5781L44.625 57.3125C44.5231 57.1767 44.391 57.0664 44.2391 56.9905C44.0873 56.9145 43.9198 56.875 43.75 56.875H41.1447L39.375 53.3355V24.3478C39.6026 24.5061 39.8214 24.6767 40.0305 24.8588H40.0304L42.9089 27.3775C45.3013 29.4714 48.3725 30.6254 51.5518 30.625H54.2197L50.6401 40.4688H49.2188C48.9287 40.4688 48.6505 40.584 48.4454 40.7891C48.2402 40.9942 48.125 41.2724 48.125 41.5625C48.125 43.8831 49.0469 46.1087 50.6878 47.7497C52.3288 49.3906 54.5544 50.3125 56.875 50.3125C59.1956 50.3125 61.4212 49.3906 63.0622 47.7497C64.7031 46.1087 65.625 43.8831 65.625 41.5625C65.625 41.2724 65.5098 40.9942 65.3046 40.7891C65.0995 40.584 64.8213 40.4688 64.5312 40.4688H63.1099L59.5303 30.625H66.7188C67.0088 30.625 67.287 30.5098 67.4921 30.3046C67.6973 30.0995 67.8125 29.8213 67.8125 29.5312V25.1562C67.8125 24.8662 67.6973 24.588 67.4921 24.3829C67.287 24.1777 67.0088 24.0625 66.7188 24.0625ZM32.8125 6.5625C32.8125 5.98234 33.043 5.42594 33.4532 5.0157C33.8634 4.60547 34.4198 4.375 35 4.375C35.5802 4.375 36.1366 4.60547 36.5468 5.0157C36.957 5.42594 37.1875 5.98234 37.1875 6.5625V7.85692C35.7414 7.58936 34.2586 7.58936 32.8125 7.85692V6.5625ZM13.125 48.125C11.5746 48.123 10.0748 47.5731 8.89066 46.5724C7.70648 45.5717 6.91413 44.1846 6.65362 42.6562H19.5964C19.3359 44.1846 18.5435 45.5717 17.3593 46.5724C16.1752 47.5731 14.6754 48.123 13.125 48.125ZM17.0322 40.4688H9.21784L12.7974 30.625H13.4526L17.0322 40.4688ZM51.4062 65.625H18.5938V63.4375H51.4062V65.625ZM44.8438 61.25H25.1562L26.7969 59.0625H43.2031L44.8438 61.25ZM37.303 54.0829L38.699 56.875H31.301L32.697 54.0829C32.773 53.9311 32.8125 53.7636 32.8125 53.5938V23.2905C34.2393 22.8615 35.7607 22.8615 37.1875 23.2905V53.5938C37.1875 53.7636 37.227 53.9311 37.303 54.0829ZM56.875 48.125C55.3246 48.123 53.8248 47.5731 52.6407 46.5724C51.4565 45.5717 50.6641 44.1846 50.4036 42.6562H63.3464C63.0859 44.1846 62.2935 45.5717 61.1093 46.5724C59.9252 47.5731 58.4254 48.123 56.875 48.125ZM60.7822 40.4688H52.9678L56.5474 30.625H57.2026L60.7822 40.4688ZM65.625 28.4375H51.5518C48.9024 28.4378 46.343 27.4762 44.3494 25.7313L41.4709 23.2125H41.4708C39.6795 21.6452 37.3802 20.7812 35 20.7812C32.6197 20.7812 30.3204 21.6452 28.5291 23.2125L25.6506 25.7313C23.657 27.4762 21.0976 28.4378 18.4482 28.4375H4.375V26.25H10.5C13.4742 26.2532 16.3931 25.4464 18.9435 23.9162C21.4939 22.386 23.5794 20.1902 24.9761 17.5644L26.3143 15.0551C27.1539 13.4809 28.4055 12.1644 29.9354 11.2465C31.4653 10.3286 33.2159 9.84375 35 9.84375C36.7841 9.84375 38.5347 10.3286 40.0645 11.2465C41.5944 12.1644 42.846 13.4809 43.6856 15.0551L45.0239 17.5644C46.4207 20.1902 48.5062 22.386 51.0565 23.9162C53.6069 25.4465 56.5258 26.2532 59.5 26.25H65.625V28.4375Z" fill="#C4EF17"/>
<path d="M35 12.0312C34.351 12.0312 33.7166 12.2237 33.177 12.5842C32.6374 12.9448 32.2169 13.4572 31.9685 14.0568C31.7202 14.6564 31.6552 15.3161 31.7818 15.9526C31.9084 16.5891 32.2209 17.1738 32.6798 17.6327C33.1387 18.0916 33.7234 18.4041 34.3599 18.5307C34.9964 18.6573 35.6561 18.5923 36.2557 18.344C36.8552 18.0956 37.3677 17.6751 37.7283 17.1355C38.0888 16.5959 38.2813 15.9615 38.2813 15.3125C38.2803 14.4426 37.9342 13.6085 37.3191 12.9934C36.704 12.3783 35.8699 12.0322 35 12.0312ZM35 16.4062C34.7837 16.4062 34.5722 16.3421 34.3923 16.2219C34.2125 16.1017 34.0723 15.9309 33.9895 15.7311C33.9067 15.5312 33.8851 15.3113 33.9273 15.0991C33.9695 14.887 34.0736 14.6921 34.2266 14.5391C34.3796 14.3861 34.5745 14.282 34.7866 14.2398C34.9988 14.1976 35.2187 14.2192 35.4186 14.302C35.6184 14.3848 35.7892 14.525 35.9094 14.7048C36.0296 14.8847 36.0938 15.0962 36.0938 15.3125C36.0934 15.6025 35.9781 15.8805 35.773 16.0855C35.568 16.2906 35.29 16.4059 35 16.4062Z" fill="#C4EF17"/>
</svg>
