<svg width="60" height="60" viewBox="0 0 60 60" fill="none" xmlns="http://www.w3.org/2000/svg">
<g clip-path="url(#clip0_52_870)">
<path d="M54.544 22.6164L50.8025 22.0539C50.2649 19.5877 49.3032 17.2671 47.9368 15.1389L50.1857 12.0943C50.908 11.1163 50.8084 9.78246 49.9486 8.92266L47.6964 6.67043C46.8366 5.81074 45.5029 5.7109 44.5247 6.43348L41.4802 8.6823C39.352 7.3159 37.0312 6.35414 34.5653 5.8166L34.0029 2.07504C33.8222 0.872695 32.8084 0 31.5925 0H28.4074C27.1915 0 26.1778 0.872695 25.9972 2.07504L25.4347 5.8166C22.9686 6.35414 20.648 7.3159 18.5197 8.6823L15.4752 6.43348C14.4973 5.71102 13.1634 5.81086 12.3035 6.67043L10.0514 8.92266C9.1916 9.78246 9.09188 11.1163 9.81434 12.0943L12.0632 15.1389C10.6968 17.2671 9.735 19.5878 9.19746 22.0539L5.4559 22.6164C4.25355 22.797 3.38086 23.8107 3.38086 25.0266V28.2115C3.38086 29.4273 4.25355 30.441 5.4559 30.6218L9.19746 31.1842C9.735 33.6502 10.6966 35.9708 12.0632 38.0992L9.81434 41.1437C9.09188 42.1218 9.1916 43.4557 10.0514 44.3154L12.3035 46.5676C13.1634 47.4273 14.4971 47.527 15.4752 46.8046L18.52 44.5556C19.4078 45.1247 20.3382 45.6277 21.3001 46.0588C21.1707 46.2553 21.0373 46.45 20.8995 46.6421C20.3995 47.34 20.1353 48.1627 20.1353 49.0211V50.138C18.927 50.4981 18.0431 51.6188 18.0431 52.9425C18.0431 53.3843 18.1429 53.8029 18.3189 54.1788C17.002 54.4726 16.0145 55.6496 16.0145 57.0537V59.1192C16.0145 59.6055 16.4088 59.9999 16.8952 59.9999H43.1047C43.5911 59.9999 43.9854 59.6055 43.9854 59.1192V57.0537C43.9854 55.6495 42.9977 54.4725 41.6808 54.1787C41.8569 53.8028 41.9566 53.3843 41.9566 52.9425C41.9566 51.6188 41.0729 50.4981 39.8646 50.138V49.0211C39.8646 48.1627 39.6004 47.34 39.1004 46.6421C38.9627 46.4498 38.8293 46.2553 38.6998 46.0587C39.6618 45.6277 40.5921 45.1247 41.4799 44.5555L44.5246 46.8045C44.9617 47.1273 45.4698 47.2861 45.975 47.286C46.6001 47.286 47.2207 47.0429 47.6962 46.5674L49.9485 44.3153C50.8083 43.4556 50.9079 42.1218 50.1855 41.1436L47.9367 38.0991C49.3031 35.9708 50.2648 33.6503 50.8024 31.1841L54.544 30.6217C55.7463 30.4409 56.619 29.4272 56.619 28.2114V25.0266C56.619 23.8106 55.7463 22.797 54.544 22.6164ZM42.2242 57.0538V58.2388H17.7758V57.0538C17.7758 56.4005 18.3074 55.8689 18.9607 55.8689H41.0391C41.6925 55.8689 42.2242 56.4005 42.2242 57.0538ZM40.1954 52.9426C40.1954 53.585 39.6728 54.1077 39.0305 54.1077H20.9695C20.3271 54.1077 19.8045 53.585 19.8045 52.9426C19.8045 52.3002 20.3271 51.7775 20.9695 51.7775H25.0632C25.5496 51.7775 25.9439 51.3832 25.9439 50.8969C25.9439 50.4105 25.5496 50.0162 25.0632 50.0162H21.8966V49.0211C21.8966 48.5327 22.047 48.0648 22.3312 47.6679C24.7014 44.3591 25.9542 40.4587 25.9542 36.3886V35.2905H34.0455V36.3886C34.0455 40.4587 35.2984 44.3591 37.6685 47.6679C37.9529 48.0649 38.1032 48.5329 38.1032 49.0211V50.0162H28.5855C28.0992 50.0162 27.7049 50.4105 27.7049 50.8969C27.7049 51.3832 28.0992 51.7775 28.5855 51.7775H39.0302C39.6728 51.7775 40.1954 52.3002 40.1954 52.9426ZM29.9996 26.0317H23.0341C22.407 26.0317 21.8967 25.5214 21.8967 24.8943V19.8305C21.8967 19.8193 21.9059 19.8102 21.9171 19.8102H24.1729C24.1841 19.8102 24.1932 19.8193 24.1932 19.8305V21.7849C24.1932 22.7156 24.9504 23.4728 25.8811 23.4728H27.0457C27.9764 23.4728 28.7336 22.7156 28.7336 21.7849V19.8305C28.7336 19.8193 28.7427 19.8102 28.7539 19.8102H31.2463C31.2575 19.8102 31.2667 19.8193 31.2667 19.8305V21.7849C31.2667 22.7156 32.0238 23.4728 32.9545 23.4728H34.1191C35.0498 23.4728 35.807 22.7156 35.807 21.7849V19.8305C35.807 19.8193 35.8161 19.8102 35.8274 19.8102H38.0831C38.0943 19.8102 38.1034 19.8193 38.1034 19.8305V24.8943C38.1034 25.5214 37.5932 26.0317 36.966 26.0317H33.5221C33.0357 26.0317 32.6414 26.426 32.6414 26.9123C32.6414 27.3987 33.0357 27.793 33.5221 27.793H35.253C35.9118 27.793 36.4477 28.3289 36.4477 28.9876C36.4477 29.6463 35.9118 30.1822 35.253 30.1822H24.747C24.0882 30.1822 23.5523 29.6463 23.5523 28.9876C23.5523 28.3289 24.0882 27.793 24.747 27.793H29.9995C30.4859 27.793 30.8802 27.3988 30.8802 26.9123C30.8802 26.426 30.486 26.0317 29.9996 26.0317ZM34.0457 31.9434V33.5293H25.9543V31.9434H34.0457ZM54.8578 28.2116C54.8578 28.5489 54.6157 28.8301 54.2822 28.8803L49.9311 29.5343C49.5605 29.5901 49.2656 29.8744 49.1965 30.2428C48.6974 32.9039 47.6674 35.3892 46.1354 37.6297C45.9239 37.9391 45.9313 38.3486 46.1541 38.65L48.7691 42.1902C48.9695 42.4615 48.942 42.8316 48.7034 43.07L46.4511 45.3223C46.2127 45.5607 45.8426 45.5884 45.5713 45.388L42.0311 42.773C41.7296 42.5503 41.3203 42.5428 41.0107 42.7543C39.9996 43.4457 38.9218 44.0398 37.7996 44.5291C37.3195 43.6113 36.9238 42.6572 36.6149 41.6754C39.3712 40.4651 41.7321 38.533 43.475 36.0468C45.4179 33.2753 46.4448 30.0152 46.4448 26.619C46.4448 17.5514 39.0677 10.1743 30.0001 10.1743C28.2934 10.1743 26.6108 10.4348 24.9994 10.9487C24.536 11.0965 24.2802 11.5918 24.4279 12.0552C24.5756 12.5186 25.0711 12.7745 25.5343 12.6267C26.9726 12.1682 28.475 11.9355 30 11.9355C38.0965 11.9355 44.6835 18.5225 44.6835 26.619C44.6835 29.6516 43.7668 32.5621 42.0328 35.0358C40.5311 37.1781 38.5166 38.8601 36.167 39.9465C35.9289 38.7858 35.807 37.5955 35.807 36.3886V35.2905H36.4566C36.9429 35.2905 37.3372 34.8962 37.3372 34.4099C37.3372 33.9236 36.9429 33.5292 36.4566 33.5292H35.807V31.8906C37.1729 31.6304 38.209 30.4281 38.209 28.9875C38.209 28.5034 38.0909 28.0468 37.8837 27.6431C39.0334 27.2583 39.8647 26.1718 39.8647 24.8941V19.8305C39.8647 18.8481 39.0655 18.0489 38.0831 18.0489H35.8274C34.845 18.0489 34.0458 18.8481 34.0458 19.8305V21.7114H33.0279V19.8305C33.0279 18.8481 32.2287 18.0489 31.2463 18.0489H28.7539C27.7716 18.0489 26.9723 18.8481 26.9723 19.8305V21.7114H25.9545V19.8305C25.9545 18.8481 25.1552 18.0489 24.1729 18.0489H21.9171C20.9347 18.0489 20.1355 18.8481 20.1355 19.8305V24.8943C20.1355 26.1718 20.9667 27.2584 22.1164 27.6432C21.9093 28.047 21.7912 28.5035 21.7912 28.9876C21.7912 30.4282 22.8273 31.6305 24.1932 31.8907V33.5293H23.5437C23.0573 33.5293 22.663 33.9237 22.663 34.41C22.663 34.8963 23.0573 35.2907 23.5437 35.2907H24.1932V36.3887C24.1932 37.5956 24.0712 38.7859 23.8332 39.9466C21.4836 38.8601 19.4692 37.1781 17.9674 35.0359C16.2333 32.5622 15.3168 29.6517 15.3168 26.6191C15.3168 24.0267 16.0011 21.4789 17.2962 19.2513C18.5534 17.0885 20.3546 15.2691 22.5052 13.99C22.9232 13.7413 23.0605 13.2009 22.8118 12.7829C22.5633 12.365 22.0228 12.2277 21.6048 12.4762C19.1974 13.9082 17.181 15.9449 15.7736 18.3662C14.3225 20.8624 13.5555 23.7163 13.5555 26.6193C13.5555 30.0155 14.5825 33.2755 16.5253 36.047C18.2682 38.5332 20.6291 40.4653 23.3855 41.6756C23.0766 42.6574 22.6808 43.6116 22.2007 44.5294C21.0784 44.04 20.0006 43.4459 18.9895 42.7546C18.6802 42.543 18.2708 42.5505 17.9693 42.7732L14.4289 45.3882C14.1579 45.5886 13.7878 45.5611 13.5492 45.3225L11.2971 43.0703C11.0586 42.8318 11.031 42.4618 11.2314 42.1905L13.8464 38.6503C14.0691 38.3489 14.0766 37.9395 13.8649 37.63C12.3328 35.3892 11.3029 32.9039 10.8039 30.243C10.7347 29.8746 10.4399 29.5903 10.0692 29.5345L5.71816 28.8805C5.38465 28.8304 5.14254 28.5491 5.14254 28.2118V25.0266C5.14254 24.6893 5.38465 24.4082 5.71816 24.358L10.0693 23.7039C10.4401 23.6482 10.7348 23.3638 10.804 22.9954C11.3031 20.3344 12.3329 17.8491 13.865 15.6084C14.0766 15.2991 14.0692 14.8896 13.8465 14.5881L11.231 11.0479C11.0306 10.7766 11.0583 10.4065 11.2968 10.168L13.5489 7.9159C13.7872 7.67731 14.1573 7.64977 14.4287 7.85016L17.9689 10.4652C18.2704 10.6879 18.6798 10.6954 18.9892 10.4838C21.2298 8.95172 23.7152 7.92176 26.3761 7.42277C26.7445 7.35363 27.0288 7.05891 27.0846 6.68812L27.7387 2.33695C27.7889 2.00344 28.07 1.76133 28.4073 1.76133H31.5923C31.9296 1.76133 32.2109 2.00344 32.261 2.33695L32.915 6.68812C32.9708 7.05879 33.2551 7.35363 33.6236 7.42277C36.2846 7.92187 38.77 8.95172 41.0106 10.4838C41.3201 10.6955 41.7294 10.6879 42.0309 10.4652L45.5712 7.85016C45.8425 7.64977 46.2125 7.67742 46.451 7.9159L48.7032 10.1681C48.9417 10.4066 48.9694 10.7767 48.769 11.048L46.1539 14.5883C45.9313 14.8898 45.9238 15.2992 46.1353 15.6087C47.6673 17.8492 48.6973 20.3345 49.1964 22.9956C49.2655 23.364 49.5604 23.6483 49.931 23.7041L54.2821 24.3582C54.6156 24.4084 54.8577 24.6895 54.8577 25.0268V28.2116H54.8578Z" fill="#C4EF17"/>
</g>
<defs>
<clipPath id="clip0_52_870">
<rect width="60" height="60" fill="white"/>
</clipPath>
</defs>
</svg>
