<svg width="60" height="60" viewBox="0 0 60 60" fill="none" xmlns="http://www.w3.org/2000/svg">
<path d="M16.0965 21.5331C15.8444 21.444 15.5864 21.3506 15.3292 21.2533V17.1366C15.9733 17.2926 16.3569 17.618 16.3909 17.6478C16.748 17.9711 17.2997 17.9468 17.6268 17.592C17.9558 17.2352 17.9333 16.6791 17.5765 16.3499C17.5268 16.3041 16.6936 15.5532 15.3292 15.3469V14.509C15.3292 14.0235 14.9357 13.6301 14.4503 13.6301C13.9649 13.6301 13.5714 14.0235 13.5714 14.509V15.4143C13.4431 15.4427 13.3131 15.4751 13.1801 15.5152C11.9292 15.8921 10.9945 16.9627 10.7408 18.3091C10.5095 19.537 10.9029 20.7209 11.7677 21.3992C12.2249 21.7577 12.7934 22.086 13.5714 22.4325V27.6574C12.9021 27.6072 12.4351 27.4413 11.6736 26.9432C11.2674 26.6774 10.7226 26.7912 10.457 27.1976C10.1912 27.6038 10.3051 28.1485 10.7113 28.4143C11.8265 29.1436 12.5886 29.3621 13.5714 29.418V30.3564C13.5714 30.8419 13.9649 31.2353 14.4503 31.2353C14.9357 31.2353 15.3292 30.8419 15.3292 30.3564V29.3479C17.2877 28.9615 18.4316 27.3455 18.6853 25.836C19.0119 23.8934 17.9957 22.2045 16.0965 21.5331ZM12.8526 20.0161C12.5061 19.7445 12.3588 19.215 12.4683 18.6346C12.566 18.1162 12.907 17.4934 13.5715 17.2388V20.4765C13.301 20.3293 13.0565 20.176 12.8526 20.0161ZM16.9519 25.5445C16.8182 26.3396 16.2656 27.1822 15.3292 27.5209V23.1254C15.3897 23.147 15.4486 23.1684 15.5107 23.1904C17.1195 23.7591 17.0206 25.1361 16.9519 25.5445Z" fill="#C4EF17"/>
<path d="M21.5293 29.2969H25.4551C25.9405 29.2969 26.334 28.9035 26.334 28.418C26.334 27.9325 25.9405 27.5391 25.4551 27.5391H21.5293C21.0439 27.5391 20.6504 27.9325 20.6504 28.418C20.6504 28.9035 21.0439 29.2969 21.5293 29.2969Z" fill="#C4EF17"/>
<path d="M21.5293 25.7812H27.7988C28.2842 25.7812 28.6777 25.3879 28.6777 24.9023C28.6777 24.4168 28.2842 24.0234 27.7988 24.0234H21.5293C21.0439 24.0234 20.6504 24.4168 20.6504 24.9023C20.6504 25.3879 21.0439 25.7812 21.5293 25.7812Z" fill="#C4EF17"/>
<path d="M21.5293 22.2656H30.1426C30.628 22.2656 31.0215 21.8722 31.0215 21.3867C31.0215 20.9012 30.628 20.5078 30.1426 20.5078H21.5293C21.0439 20.5078 20.6504 20.9012 20.6504 21.3867C20.6504 21.8722 21.0439 22.2656 21.5293 22.2656Z" fill="#C4EF17"/>
<path d="M21.5293 18.75H34.8301C35.3155 18.75 35.709 18.3566 35.709 17.8711C35.709 17.3856 35.3155 16.9922 34.8301 16.9922H21.5293C21.0439 16.9922 20.6504 17.3856 20.6504 17.8711C20.6504 18.3566 21.0439 18.75 21.5293 18.75Z" fill="#C4EF17"/>
<path d="M56.3645 19.277L55.1214 18.0341C54.3084 17.2211 53.0526 17.203 52.2627 17.9926L50.6679 19.5874C50.3263 19.4184 49.9537 19.322 49.5696 19.313C48.8693 19.2966 48.2061 19.5633 47.7051 20.0644V20.0643L43.4434 24.326V9.08203C43.4434 6.98191 41.7348 5.27344 39.6348 5.27344H35.0059V4.39453C35.0059 2.9407 33.8231 1.75781 32.3691 1.75781H27.834C27.691 0.765703 26.8377 0 25.8066 0H20.6504C19.6194 0 18.7659 0.765703 18.623 1.75781H14.0879C12.6339 1.75781 11.4512 2.9407 11.4512 4.39453V5.27344H6.82227C4.72227 5.27344 3.01367 6.98191 3.01367 9.08203V47.9883C3.01367 48.4738 3.40719 48.8672 3.89258 48.8672C4.37797 48.8672 4.77148 48.4738 4.77148 47.9883V9.08203C4.77148 7.95129 5.69152 7.03125 6.82227 7.03125H18.5996V8.78906H7.99414C7.18637 8.78906 6.5293 9.44613 6.5293 10.2539V55.0195C6.5293 55.8273 7.18637 56.4844 7.99414 56.4844H38.4629C39.2707 56.4844 39.9277 55.8273 39.9277 55.0195V41.0999L41.6855 39.3421V56.1914C41.6855 57.3221 40.7655 58.2422 39.6348 58.2422H6.82227C5.69152 58.2422 4.77148 57.3221 4.77148 56.1914V52.0898C4.77148 51.6043 4.37797 51.2109 3.89258 51.2109C3.40719 51.2109 3.01367 51.6043 3.01367 52.0898V56.1914C3.01367 58.2915 4.72227 60 6.82227 60H39.6348C41.7348 60 43.4434 58.2915 43.4434 56.1914V37.5843L54.3343 26.6933C54.8353 26.1923 55.1021 25.5301 55.0856 24.829C55.0766 24.4448 54.98 24.0723 54.811 23.7307L56.4058 22.136C57.1959 21.3459 57.1776 20.0903 56.3645 19.277ZM33.2482 4.39453V6.15234C33.2482 6.63785 33.6417 7.03125 34.1271 7.03125H39.6349C40.7656 7.03125 41.6857 7.95129 41.6857 9.08203V26.0838L39.9279 27.8416V10.2539C39.9279 9.44613 39.2708 8.78906 38.463 8.78906H27.8575V7.03125H30.0255C30.5109 7.03125 30.9044 6.63785 30.9044 6.15234C30.9044 5.66684 30.5109 5.27344 30.0255 5.27344H27.8575V3.51562H32.3693C32.8539 3.51562 33.2482 3.90984 33.2482 4.39453ZM40.5789 37.9629L36.4358 33.8197L37.5958 32.6597L41.739 36.8029L40.5789 37.9629ZM34.6127 43.9291L30.4695 39.786L35.1928 35.0627L39.3359 39.206L34.6127 43.9291ZM28.2931 45.0674L29.3313 46.1055L27.7261 46.6725L28.2931 45.0674ZM31.1683 45.4566L28.942 43.2302L29.5909 41.3933L33.0052 44.8077L31.1683 45.4566ZM20.3575 2.05078C20.3575 1.88918 20.489 1.75781 20.6505 1.75781H25.8068C25.9682 1.75781 26.0997 1.88918 26.0997 2.05078V10.2539C26.0997 10.4155 25.9682 10.5469 25.8068 10.5469H20.6505C20.489 10.5469 20.3575 10.4155 20.3575 10.2539V2.05078ZM13.2091 5.27344V4.39453C13.2091 3.90984 13.6033 3.51562 14.088 3.51562H18.5997V5.27344H13.2091ZM8.28723 54.7266V52.9688H38.17V54.7266H8.28723ZM38.17 51.2109H8.28723V10.5469H18.6232C18.7661 11.539 19.6195 12.3047 20.6505 12.3047H25.8068C26.8378 12.3047 27.6913 11.539 27.8341 10.5469H38.17V29.5312C38.17 29.5532 38.1718 29.5746 38.1733 29.5962L28.605 39.1644C28.513 39.2563 28.4411 39.3707 28.3977 39.4932L25.8643 46.665C25.6746 47.2021 25.8069 47.7858 26.2096 48.1887C26.6838 48.6036 27.1917 48.7187 27.7334 48.5341L34.9053 46.0008C35.0279 45.9575 35.1421 45.8856 35.234 45.7936L38.1699 42.8577V51.2109H38.17ZM53.0914 25.4504L42.982 35.5598L38.8388 31.4167L48.9482 21.3073C49.3544 20.9781 49.755 20.9919 50.1496 21.3487L53.0499 24.249C53.4068 24.6437 53.4206 25.0443 53.0914 25.4504ZM55.163 20.8929L53.6715 22.3845L52.0142 20.7272L53.5058 19.2356C53.6333 19.1355 53.7576 19.1493 53.8787 19.2771L55.1217 20.52C55.1428 20.5412 55.3241 20.7319 55.163 20.8929Z" fill="#C4EF17"/>
<path d="M14.4336 42.4219C12.9796 42.4219 11.7969 43.6048 11.7969 45.0586C11.7969 46.5124 12.9796 47.6953 14.4336 47.6953C15.8875 47.6953 17.0703 46.5124 17.0703 45.0586C17.0703 43.6048 15.8875 42.4219 14.4336 42.4219ZM14.4336 45.9375C13.9489 45.9375 13.5547 45.5433 13.5547 45.0586C13.5547 44.5739 13.9489 44.1797 14.4336 44.1797C14.9183 44.1797 15.3125 44.5739 15.3125 45.0586C15.3125 45.5433 14.9183 45.9375 14.4336 45.9375Z" fill="#C4EF17"/>
<path d="M23.1641 45.9375H19.707C19.2216 45.9375 18.8281 46.3309 18.8281 46.8164C18.8281 47.3019 19.2216 47.6953 19.707 47.6953H23.1641C23.6495 47.6953 24.043 47.3019 24.043 46.8164C24.043 46.3309 23.6495 45.9375 23.1641 45.9375Z" fill="#C4EF17"/>
<path d="M23.1641 42.4219H19.707C19.2216 42.4219 18.8281 42.8153 18.8281 43.3008C18.8281 43.7863 19.2216 44.1797 19.707 44.1797H23.1641C23.6495 44.1797 24.043 43.7863 24.043 43.3008C24.043 42.8153 23.6495 42.4219 23.1641 42.4219Z" fill="#C4EF17"/>
<path d="M14.4336 33.6328C12.9796 33.6328 11.7969 34.8157 11.7969 36.2695C11.7969 37.7234 12.9796 38.9062 14.4336 38.9062C15.8875 38.9062 17.0703 37.7234 17.0703 36.2695C17.0703 34.8157 15.8875 33.6328 14.4336 33.6328ZM14.4336 37.1484C13.9489 37.1484 13.5547 36.7542 13.5547 36.2695C13.5547 35.7848 13.9489 35.3906 14.4336 35.3906C14.9183 35.3906 15.3125 35.7848 15.3125 36.2695C15.3125 36.7542 14.9183 37.1484 14.4336 37.1484Z" fill="#C4EF17"/>
<path d="M23.1641 37.1484H19.707C19.2216 37.1484 18.8281 37.5418 18.8281 38.0273C18.8281 38.5129 19.2216 38.9062 19.707 38.9062H23.1641C23.6495 38.9062 24.043 38.5129 24.043 38.0273C24.043 37.5418 23.6495 37.1484 23.1641 37.1484Z" fill="#C4EF17"/>
<path d="M19.707 35.3906H27.8516C28.337 35.3906 28.7305 34.9972 28.7305 34.5117C28.7305 34.0262 28.337 33.6328 27.8516 33.6328H19.707C19.2216 33.6328 18.8281 34.0262 18.8281 34.5117C18.8281 34.9972 19.2216 35.3906 19.707 35.3906Z" fill="#C4EF17"/>
</svg>
