<svg width="60" height="60" viewBox="0 0 60 60" fill="none" xmlns="http://www.w3.org/2000/svg">
<path d="M29.9641 9.59508C29.7154 9.59508 29.4771 9.69387 29.3012 9.86965C29.1254 10.0455 29.0266 10.2839 29.0266 10.5326L29.0267 16.8927C29.0267 17.2782 29.2629 17.6245 29.6218 17.7654C29.9809 17.9061 30.3894 17.8131 30.6515 17.5302C31.2321 16.9043 32.0214 16.5596 32.8743 16.5596C34.5458 16.5596 35.9056 17.9195 35.9056 19.5909C35.9056 21.2624 34.5458 22.6222 32.8743 22.6222C32.0216 22.6222 31.2322 22.2776 30.6515 21.6516C30.3893 21.3688 29.9807 21.2756 29.6218 21.4164C29.2629 21.5572 29.0267 21.9035 29.0267 22.2891V27.7119H25.3962C25.6672 27.0954 25.812 26.4236 25.812 25.7393C25.812 23.0339 23.611 20.833 20.9057 20.833C18.2005 20.833 15.9995 23.0339 15.9995 25.7393C15.9995 26.4236 16.1443 27.0954 16.4152 27.7119H11.847C11.3293 27.7119 10.9095 28.1317 10.9095 28.6494C10.9095 31.9513 11.7704 35.2097 13.3989 38.0727C15.0264 40.9336 17.3862 43.3392 20.2234 45.0298C21.0849 45.543 21.5594 46.3779 21.5594 47.3804V51.7979C21.5594 53.3631 22.6141 54.6855 24.0499 55.0945V55.2709C24.0499 57.8137 26.1186 59.8827 28.6614 59.8827H31.2671C33.81 59.8827 35.8787 57.8139 35.8787 55.2709V55.0945C37.3145 54.6857 38.3691 53.3631 38.3691 51.7979V47.3804C38.3691 46.3779 38.8436 45.543 39.7051 45.0296C42.4911 43.3698 44.8244 41.0101 46.4529 38.2061C48.1317 35.3153 49.019 32.0107 49.019 28.6493C49.0188 18.1429 40.4709 9.59508 29.9641 9.59508ZM32.8743 24.4973C35.5796 24.4973 37.7806 22.2964 37.7806 19.5911C37.7806 16.8857 35.5797 14.6848 32.8743 14.6848C32.1901 14.6848 31.5182 14.8295 30.9017 15.1005V11.4954C39.63 11.9671 46.6461 18.9841 47.1179 27.7121H41.7212C41.3355 27.7121 40.9893 27.9483 40.8485 28.3072C40.7076 28.6662 40.8009 29.0748 41.0837 29.337C41.7096 29.9175 42.0543 30.7069 42.0543 31.5598C42.0543 33.2313 40.6945 34.5911 39.023 34.5911C37.3516 34.5911 35.9918 33.2312 35.9918 31.5598C35.9918 30.707 36.3364 29.9175 36.9623 29.337C37.2451 29.0748 37.3384 28.6662 37.1975 28.3072C37.0566 27.9483 36.7104 27.7121 36.3248 27.7121H30.902V24.0817C31.5182 24.3526 32.19 24.4973 32.8743 24.4973ZM21.1829 43.4193C16.2721 40.4932 13.1247 35.2554 12.8103 29.5871H18.2073C18.5929 29.5871 18.9391 29.351 19.08 28.9921C19.2208 28.6332 19.1275 28.2245 18.8448 27.9623C18.2189 27.3818 17.8742 26.5924 17.8742 25.7395C17.8742 24.068 19.2341 22.7082 20.9055 22.7082C22.577 22.7082 23.9368 24.0681 23.9368 25.7395C23.9368 26.5923 23.5921 27.3818 22.9663 27.9623C22.6835 28.2245 22.5902 28.6331 22.7311 28.9921C22.8719 29.351 23.2182 29.5871 23.6038 29.5871H29.0266V33.2176C28.41 32.9467 27.7382 32.8018 27.054 32.8018C24.3487 32.8018 22.1477 35.0027 22.1477 37.7081C22.1477 40.4135 24.3486 42.6144 27.054 42.6144C27.7382 42.6144 28.4101 42.4696 29.0266 42.1986V49.041H23.4342V47.3805C23.4342 45.7154 22.6136 44.2716 21.1829 43.4193ZM31.2669 58.0078H28.6612C27.1523 58.0078 25.9246 56.78 25.9246 55.271V55.226H34.0034V55.271C34.0034 56.78 32.7759 58.0078 31.2669 58.0078ZM34.9409 53.3511H24.9871C24.1309 53.3511 23.4342 52.6546 23.4342 51.7982V50.9161H36.4939V51.7982C36.4939 52.6545 35.7972 53.3511 34.9409 53.3511ZM38.7452 43.4193C37.3146 44.2717 36.494 45.7155 36.494 47.3807V49.0411H30.9017V40.4065C30.9017 40.0209 30.6656 39.6746 30.3066 39.5338C29.9477 39.3932 29.5391 39.4862 29.2769 39.769C28.6964 40.3949 27.907 40.7395 27.0541 40.7395C25.3827 40.7395 24.0228 39.3797 24.0228 37.7082C24.0228 36.0368 25.3827 34.677 27.0541 34.677C27.9069 34.677 28.6963 35.0216 29.2769 35.6476C29.5392 35.9304 29.9478 36.0237 30.3066 35.8828C30.6656 35.742 30.9017 35.3957 30.9017 35.0101V29.5873H34.5323C34.2614 30.2038 34.1165 30.8756 34.1165 31.5599C34.1165 34.2653 36.3174 36.4662 39.0228 36.4662C41.7282 36.4662 43.9291 34.2653 43.9291 31.5599C43.9291 30.8756 43.7843 30.2038 43.5133 29.5873H47.1158C46.8013 35.2554 43.6558 40.4932 38.7452 43.4193ZM48.8567 17.5984C48.5979 17.15 48.7515 16.5766 49.1998 16.3178L53.2688 13.9685C53.7172 13.7094 54.2906 13.8633 54.5495 14.3116C54.8083 14.76 54.6547 15.3334 54.2063 15.5923L50.1373 17.9415C49.9897 18.0268 49.8286 18.0673 49.6695 18.0673C49.3455 18.0673 49.0304 17.8991 48.8567 17.5984ZM58.4247 28.5253C58.4247 29.043 58.005 29.4628 57.4872 29.4628L52.7888 29.4629C52.2711 29.4629 51.8513 29.0432 51.8513 28.5254C51.8513 28.0077 52.2711 27.5879 52.7888 27.5879L57.4872 27.5878C58.005 27.5878 58.4246 28.0076 58.4247 28.5253ZM54.5496 42.7005C54.3759 43.0012 54.0608 43.1694 53.7368 43.1694C53.5777 43.1694 53.4166 43.1289 53.2689 43.0437L49.2 40.6944C48.7516 40.4355 48.598 39.8621 48.8568 39.4138C49.1157 38.9654 49.6891 38.8118 50.1375 39.0707L54.2064 41.4199C54.6548 41.6788 54.8083 42.2522 54.5496 42.7005ZM29.0266 5.7532V1.0548C29.0266 0.53707 29.4464 0.117305 29.9641 0.117305C30.4818 0.117305 30.9016 0.53707 30.9016 1.0548V5.7532C30.9016 6.27094 30.4818 6.6907 29.9641 6.6907C29.4464 6.6907 29.0266 6.27094 29.0266 5.7532ZM7.21121 29.4436H2.5127C1.99496 29.4436 1.5752 29.0238 1.5752 28.5061C1.5752 27.9884 1.99496 27.5686 2.5127 27.5686H7.21121C7.72895 27.5686 8.14871 27.9884 8.14871 28.5061C8.14871 29.0238 7.72895 29.4436 7.21121 29.4436ZM11.0715 39.4138C11.3304 39.8621 11.1767 40.4355 10.7284 40.6944L6.65937 43.0437C6.51172 43.129 6.35059 43.1694 6.19156 43.1694C5.86754 43.1694 5.55242 43.0012 5.37875 42.7005C5.11988 42.2522 5.27352 41.6788 5.72187 41.4199L9.79086 39.0707C10.2392 38.8116 10.8125 38.9654 11.0715 39.4138ZM40.5286 8.33273L42.8778 4.26375C43.1367 3.81539 43.7101 3.66176 44.1584 3.92063C44.6068 4.17949 44.7604 4.75289 44.5016 5.20125L42.1523 9.27023C41.9786 9.57094 41.6635 9.7391 41.3395 9.7391C41.1805 9.7391 41.0193 9.69855 40.8717 9.61336C40.4233 9.35449 40.2697 8.78121 40.5286 8.33273ZM2.5127 20.1094H8.87316C9.25883 20.1094 9.605 19.8732 9.74586 19.5143C9.88672 19.1555 9.79344 18.7467 9.51066 18.4846C8.88477 17.904 8.54012 17.1146 8.54012 16.2618C8.54012 14.5902 9.89996 13.2305 11.5714 13.2305C13.2429 13.2305 14.6027 14.5903 14.6027 16.2618C14.6027 17.1145 14.258 17.904 13.6321 18.4846C13.3494 18.7467 13.2561 19.1554 13.397 19.5143C13.5378 19.8732 13.8841 20.1094 14.2696 20.1094H20.63C21.1477 20.1094 21.5675 19.6896 21.5675 19.1719V14.6039C22.1841 14.8748 22.8559 15.0197 23.5401 15.0197C26.2454 15.0197 28.4464 12.8188 28.4464 10.1134C28.4464 7.40801 26.2455 5.20711 23.5401 5.20711C22.8557 5.20711 22.184 5.35184 21.5675 5.62289V1.05469C21.5675 0.536953 21.1477 0.117188 20.63 0.117188C10.1232 0.117188 1.57531 8.66496 1.57531 19.1719C1.5752 19.6896 1.99496 20.1094 2.5127 20.1094ZM19.6925 2.0175L19.6926 7.41504C19.6926 7.8007 19.9287 8.14688 20.2877 8.28773C20.6468 8.42859 21.0553 8.33531 21.3174 8.05254C21.898 7.42664 22.6873 7.08199 23.5402 7.08199C25.2117 7.08199 26.5715 8.44184 26.5715 10.1133C26.5715 11.7847 25.2117 13.1446 23.5402 13.1446C22.6875 13.1446 21.8981 12.7999 21.3174 12.1739C21.0552 11.8911 20.6466 11.7981 20.2877 11.9387C19.9287 12.0796 19.6926 12.4259 19.6926 12.8114V18.2344H16.062C16.333 17.6179 16.4778 16.946 16.4778 16.2618C16.4778 13.5564 14.2769 11.3555 11.5715 11.3555C8.86625 11.3555 6.66523 13.5564 6.66523 16.2618C6.66523 16.946 6.81008 17.6179 7.08102 18.2344H3.47551C3.94719 9.50613 10.9643 2.48906 19.6925 2.0175Z" fill="#C4EF17"/>
</svg>
