<svg width="60" height="60" viewBox="0 0 60 60" fill="none" xmlns="http://www.w3.org/2000/svg">
<path fill-rule="evenodd" clip-rule="evenodd" d="M30 10.3125C26.1062 10.3125 22.2998 11.4672 19.0622 13.6304C15.8246 15.7937 13.3012 18.8685 11.8111 22.4659C10.321 26.0633 9.93115 30.0218 10.6908 33.8408C11.4504 37.6598 13.3255 41.1678 16.0788 43.9212C18.8322 46.6745 22.3402 48.5496 26.1592 49.3092C29.9782 50.0689 33.9367 49.679 37.5341 48.1889C41.1315 46.6988 44.2063 44.1754 46.3696 40.9378C48.5329 37.7002 49.6875 33.8938 49.6875 30C49.685 24.7793 47.61 19.7732 43.9184 16.0816C40.2268 12.39 35.2207 10.315 30 10.3125ZM45.9319 22.0312H38.025C37.5709 19.3676 36.6942 16.7936 35.4281 14.4066C35.0912 13.8067 34.7035 13.2369 34.2694 12.7031C36.7712 13.3246 39.1089 14.4801 41.122 16.0902C43.1351 17.7004 44.7759 19.7271 45.9319 22.0312ZM36.8747 30C36.8785 32.0389 36.735 34.0755 36.4453 36.0938H23.5547C22.9822 32.0514 22.9822 27.9486 23.5547 23.9062H36.4453C36.735 25.9245 36.8785 27.9611 36.8747 30ZM30 12.1875C31.4503 12.1875 32.7103 13.4194 33.7978 15.3328C34.9137 17.4321 35.6971 19.6918 36.12 22.0312H23.88C24.3029 19.6918 25.0863 17.4321 26.2022 15.3328C27.2897 13.4194 28.5497 12.1875 30 12.1875ZM25.7306 12.7031C25.2965 13.2368 24.9088 13.8067 24.5719 14.4066C23.3058 16.7936 22.4291 19.3676 21.975 22.0312H14.0681C15.2239 19.727 16.8647 17.7002 18.8779 16.09C20.891 14.4798 23.2288 13.3244 25.7306 12.7031ZM12.1875 30C12.185 27.9217 12.5477 25.8591 13.2591 23.9062H21.6656C21.1119 27.9499 21.1119 32.0501 21.6656 36.0938H13.2591C12.5477 34.1409 12.185 32.0783 12.1875 30ZM14.0681 37.9688H21.975C22.4291 40.6324 23.3058 43.2064 24.5719 45.5934C24.9088 46.1933 25.2965 46.7632 25.7306 47.2969C23.2288 46.6754 20.8911 45.5199 18.878 43.9098C16.8649 42.2996 15.2241 40.2729 14.0681 37.9688ZM30 47.8125C28.5497 47.8125 27.2897 46.5806 26.2022 44.6672C25.0863 42.5679 24.3029 40.3082 23.88 37.9688H36.12C35.6971 40.3082 34.9137 42.5679 33.7978 44.6672C32.7103 46.5806 31.4503 47.8125 30 47.8125ZM34.2694 47.2969C34.7035 46.7631 35.0911 46.1932 35.4281 45.5934C36.6942 43.2064 37.5709 40.6324 38.025 37.9688H45.9319C44.7761 40.273 43.1353 42.2998 41.1222 43.91C39.109 45.5202 36.7713 46.6756 34.2694 47.2969ZM38.3344 36.0938C38.6139 34.0746 38.7526 32.0384 38.7497 30C38.7526 27.9616 38.6139 25.9254 38.3344 23.9062H46.7409C48.1697 27.8431 48.1697 32.1569 46.7409 36.0938H38.3344Z" fill="#C4EF17"/>
<path fill-rule="evenodd" clip-rule="evenodd" d="M7.49984 20.4075C6.75392 20.4075 6.03855 20.1112 5.5111 19.5837C4.98365 19.0563 4.68734 18.3409 4.68734 17.595C4.68734 17.3464 4.58857 17.1079 4.41275 16.9321C4.23694 16.7563 3.99848 16.6575 3.74984 16.6575C3.5012 16.6575 3.26274 16.7563 3.08693 16.9321C2.91111 17.1079 2.81234 17.3464 2.81234 17.595C2.813 18.6754 3.18646 19.7224 3.86967 20.5594C4.55288 21.3963 5.50396 21.9718 6.56234 22.1887V23.9419C6.56234 24.1905 6.66111 24.429 6.83693 24.6048C7.01274 24.7806 7.2512 24.8794 7.49984 24.8794C7.74848 24.8794 7.98694 24.7806 8.16275 24.6048C8.33857 24.429 8.43734 24.1905 8.43734 23.9419V22.1887C9.57655 21.9574 10.5892 21.3111 11.2786 20.3751C11.9681 19.4392 12.2851 18.2805 12.1683 17.1239C12.0515 15.9673 11.5091 14.8954 10.6464 14.1163C9.78371 13.3371 8.66229 12.9063 7.49984 12.9075C6.94358 12.9075 6.39981 12.7426 5.9373 12.4335C5.47478 12.1245 5.1143 11.6852 4.90143 11.1713C4.68856 10.6574 4.63286 10.0919 4.74138 9.54631C4.8499 9.00074 5.11777 8.4996 5.5111 8.10626C5.90444 7.71293 6.40558 7.44506 6.95115 7.33654C7.49672 7.22802 8.06222 7.28372 8.57614 7.49659C9.09005 7.70946 9.52931 8.06995 9.83835 8.53246C10.1474 8.99497 10.3123 9.53874 10.3123 10.095C10.3123 10.3436 10.4111 10.5821 10.5869 10.7579C10.7627 10.9337 11.0012 11.0325 11.2498 11.0325C11.4985 11.0325 11.7369 10.9337 11.9128 10.7579C12.0886 10.5821 12.1873 10.3436 12.1873 10.095C12.1867 9.01462 11.8132 7.96757 11.13 7.13064C10.4468 6.29371 9.49571 5.71819 8.43734 5.50125V3.75C8.43734 3.50136 8.33857 3.2629 8.16275 3.08709C7.98694 2.91127 7.74848 2.8125 7.49984 2.8125C7.2512 2.8125 7.01274 2.91127 6.83693 3.08709C6.66111 3.2629 6.56234 3.50136 6.56234 3.75V5.50125C5.42313 5.73257 4.41052 6.37894 3.72107 7.31487C3.03162 8.2508 2.71453 9.40952 2.83136 10.5661C2.94818 11.7227 3.49059 12.7946 4.35328 13.5737C5.21596 14.3529 6.33738 14.7837 7.49984 14.7825C8.24576 14.7825 8.96113 15.0788 9.48858 15.6063C10.016 16.1337 10.3123 16.8491 10.3123 17.595C10.3123 18.3409 10.016 19.0563 9.48858 19.5837C8.96113 20.1112 8.24576 20.4075 7.49984 20.4075Z" fill="#C4EF17"/>
<path fill-rule="evenodd" clip-rule="evenodd" d="M52.4998 39.5897C53.2458 39.5897 53.9611 39.886 54.4886 40.4134C55.016 40.9409 55.3123 41.6562 55.3123 42.4022C55.3123 42.6508 55.4111 42.8893 55.5869 43.0651C55.7627 43.2409 56.0012 43.3397 56.2498 43.3397C56.4985 43.3397 56.7369 43.2409 56.9128 43.0651C57.0886 42.8893 57.1873 42.6508 57.1873 42.4022C57.1876 41.3216 56.8144 40.2741 56.1311 39.4369C55.4477 38.5998 54.4961 38.0245 53.4373 37.8084V36.0581C53.4373 35.8095 53.3386 35.571 53.1628 35.3952C52.9869 35.2194 52.7485 35.1206 52.4998 35.1206C52.2512 35.1206 52.0127 35.2194 51.8369 35.3952C51.6611 35.571 51.5623 35.8095 51.5623 36.0581V37.8094C50.4231 38.0407 49.4105 38.687 48.7211 39.623C48.0316 40.5589 47.7145 41.7176 47.8314 42.8742C47.9482 44.0308 48.4906 45.1027 49.3533 45.8818C50.216 46.661 51.3374 47.0918 52.4998 47.0906C53.0561 47.0906 53.5999 47.2556 54.0624 47.5646C54.5249 47.8736 54.8854 48.3129 55.0982 48.8268C55.3111 49.3407 55.3668 49.9062 55.2583 50.4518C55.1498 50.9974 54.8819 51.4985 54.4886 51.8918C54.0952 52.2852 53.5941 52.553 53.0485 52.6616C52.503 52.7701 51.9375 52.7144 51.4235 52.5015C50.9096 52.2886 50.4704 51.9282 50.1613 51.4656C49.8523 51.0031 49.6873 50.4594 49.6873 49.9031C49.6873 49.6545 49.5886 49.416 49.4128 49.2402C49.2369 49.0644 48.9985 48.9656 48.7498 48.9656C48.5012 48.9656 48.2627 49.0644 48.0869 49.2402C47.9111 49.416 47.8123 49.6545 47.8123 49.9031C47.8121 50.9837 48.1853 52.0312 48.8686 52.8683C49.552 53.7054 50.5036 54.2807 51.5623 54.4969V56.25C51.5623 56.4986 51.6611 56.7371 51.8369 56.9129C52.0127 57.0887 52.2512 57.1875 52.4998 57.1875C52.7485 57.1875 52.9869 57.0887 53.1628 56.9129C53.3386 56.7371 53.4373 56.4986 53.4373 56.25V54.4959C54.5765 54.2646 55.5892 53.6182 56.2786 52.6823C56.9681 51.7464 57.2851 50.5876 57.1683 49.4311C57.0515 48.2745 56.5091 47.2026 55.6464 46.4235C54.7837 45.6443 53.6623 45.2135 52.4998 45.2147C51.7539 45.2147 51.0385 44.9183 50.5111 44.3909C49.9837 43.8635 49.6873 43.1481 49.6873 42.4022C49.6873 41.6562 49.9837 40.9409 50.5111 40.4134C51.0385 39.886 51.7539 39.5897 52.4998 39.5897Z" fill="#C4EF17"/>
<path fill-rule="evenodd" clip-rule="evenodd" d="M19.1522 7.125C23.011 5.29667 27.2694 4.47392 31.5315 4.73329C35.7935 4.99267 39.9208 6.32573 43.5293 8.60848C47.1378 10.8912 50.1104 14.0495 52.1706 17.7896C54.2308 21.5297 55.3116 25.73 55.3125 30C55.3125 30.2486 55.4113 30.4871 55.5871 30.6629C55.7629 30.8387 56.0014 30.9375 56.25 30.9375C56.4987 30.9375 56.7371 30.8387 56.913 30.6629C57.0888 30.4871 57.1875 30.2486 57.1875 30C57.1866 25.4137 56.0257 20.9021 53.8128 16.885C51.5999 12.8679 48.407 9.47568 44.5309 7.024C40.6549 4.57231 36.2218 3.14079 31.644 2.86258C27.0661 2.58438 22.4922 3.46854 18.3479 5.43281C18.232 5.48257 18.1273 5.55521 18.0402 5.64637C17.953 5.73753 17.8851 5.84534 17.8406 5.96335C17.7961 6.08135 17.7758 6.20712 17.7811 6.33314C17.7863 6.45915 17.8169 6.58281 17.8711 6.69672C17.9252 6.81063 18.0018 6.91244 18.0962 6.99606C18.1906 7.07968 18.3009 7.14339 18.4206 7.18338C18.5402 7.22336 18.6666 7.2388 18.7923 7.22877C18.9181 7.21874 19.0405 7.18344 19.1522 7.125Z" fill="#C4EF17"/>
<path fill-rule="evenodd" clip-rule="evenodd" d="M40.8478 52.875C36.9891 54.7033 32.7307 55.5261 28.4686 55.2667C24.2065 55.0073 20.0793 53.6743 16.4708 51.3915C12.8622 49.1088 9.88962 45.9505 7.82945 42.2104C5.76927 38.4703 4.68845 34.27 4.6875 30C4.6875 29.7514 4.58873 29.5129 4.41291 29.3371C4.2371 29.1613 3.99864 29.0625 3.75 29.0625C3.50136 29.0625 3.2629 29.1613 3.08709 29.3371C2.91127 29.5129 2.8125 29.7514 2.8125 30C2.81424 34.5859 3.97573 39.0969 6.18894 43.1134C8.40215 47.1299 11.5952 50.5214 15.4711 52.9726C19.347 55.4237 23.7798 56.8548 28.3573 57.1328C32.9347 57.4108 37.5082 56.5266 41.6522 54.5625C41.7663 54.5115 41.869 54.4383 41.9544 54.347C42.0398 54.2558 42.1061 54.1484 42.1494 54.0311C42.1926 53.9139 42.212 53.7892 42.2064 53.6644C42.2008 53.5395 42.1703 53.4171 42.1167 53.3042C42.063 53.1913 41.9874 53.0903 41.8942 53.0071C41.8009 52.9239 41.692 52.8601 41.5738 52.8196C41.4556 52.7791 41.3304 52.7627 41.2058 52.7712C41.0811 52.7797 40.9594 52.8131 40.8478 52.8694V52.875Z" fill="#C4EF17"/>
</svg>
