<svg width="70" height="70" viewBox="0 0 70 70" fill="none" xmlns="http://www.w3.org/2000/svg">
<g id="Icon" clip-path="url(#clip0_48_208)">
<path id="Vector" d="M0.299174 4.93556C0.196982 5.04359 0.117894 5.17132 0.0667424 5.31096C0.0155907 5.45059 -0.0065499 5.59919 0.00167384 5.74767C0.324585 11.5962 2.25542 17.2422 5.58152 22.0637C8.90761 26.8853 13.4999 30.6952 18.8526 33.0741C18.9405 33.1127 19.0331 33.1396 19.1281 33.154C21.7585 37.1677 25.8079 40.0397 30.4655 41.1951C31.0612 43.8287 30.9705 46.5711 30.202 49.1596H24.4419C24.1518 49.1596 23.8736 49.2748 23.6685 49.4799C23.4634 49.685 23.3482 49.9632 23.3482 50.2533V54.8278C21.8549 55.3441 20.5595 56.3127 19.642 57.599C18.7245 58.8853 18.2304 60.4255 18.2285 62.0055V68.5049C18.2285 68.7949 18.3437 69.0731 18.5488 69.2783C18.7539 69.4834 19.0321 69.5986 19.3222 69.5986H50.6776C50.9677 69.5986 51.2459 69.4834 51.451 69.2783C51.6561 69.0731 51.7713 68.7949 51.7713 68.5049V62.0048C51.7692 60.4249 51.2751 58.8849 50.3576 57.5987C49.4401 56.3125 48.1448 55.344 46.6516 54.8278V50.2533C46.6516 49.9632 46.5364 49.685 46.3313 49.4799C46.1261 49.2748 45.8479 49.1596 45.5579 49.1596H39.7978C39.0293 46.5711 38.9386 43.8287 39.5343 41.1951C44.1814 40.0424 48.2235 37.1806 50.8546 33.1804C50.9237 33.1651 50.9912 33.143 51.056 33.1147C56.4317 30.7458 61.0468 26.9352 64.3901 22.1049C67.7334 17.2746 69.6744 11.6131 69.9981 5.74753C70.0063 5.59908 69.9841 5.45052 69.9329 5.31093C69.8817 5.17135 69.8026 5.04366 69.7004 4.93568C69.5982 4.8277 69.4751 4.74168 69.3385 4.6829C69.2019 4.62411 69.0548 4.59378 68.9061 4.59376H53.973V1.49585C53.973 1.20577 53.8578 0.927569 53.6527 0.722452C53.4476 0.517334 53.1694 0.4021 52.8793 0.4021H17.1205C16.8304 0.4021 16.5522 0.517334 16.3471 0.722452C16.142 0.927569 16.0268 1.20577 16.0268 1.49585V4.59376H1.09365C0.944941 4.59373 0.797791 4.62403 0.661191 4.68279C0.524591 4.74156 0.401409 4.82757 0.299174 4.93556V4.93556ZM49.5838 67.4106H20.416V62.0048C20.416 61.8449 20.4244 61.6868 20.438 61.5303H49.5618C49.5755 61.6868 49.5838 61.8447 49.5838 62.0048V67.4106ZM48.88 59.3429H21.1198C21.591 58.5108 22.2743 57.8185 23.1003 57.3365C23.9262 56.8546 24.8652 56.6003 25.8214 56.5995H44.1784C45.1346 56.6003 46.0736 56.8546 46.8995 57.3365C47.7254 57.8184 48.4088 58.5107 48.88 59.3428V59.3429ZM44.464 54.4193C44.369 54.4157 44.2739 54.412 44.1782 54.412H25.8214C25.7257 54.412 25.63 54.4157 25.5357 54.4193V51.3472H44.4641L44.464 54.4193ZM37.5258 49.1597H32.4739C33.1076 46.6943 33.2123 44.1226 32.7811 41.6138C34.2552 41.7877 35.7446 41.7877 37.2187 41.6138C36.7875 44.1225 36.8922 46.6942 37.5259 49.1596L37.5258 49.1597ZM67.7283 6.78126C67.2892 11.5851 65.6775 16.2077 63.0347 20.2432C60.3918 24.2787 56.7988 27.6038 52.5709 29.9264C53.499 27.6551 53.9753 25.2246 53.973 22.7709V6.78126H67.7283ZM18.2143 2.5896H51.7855V22.7709C51.7855 27.2228 50.0171 31.4923 46.8691 34.6402C43.7212 37.7881 39.4517 39.5566 34.9999 39.5566C30.5481 39.5566 26.2786 37.7881 23.1307 34.6402C19.9827 31.4923 18.2143 27.2228 18.2143 22.7709V2.5896ZM16.0268 6.78099V22.7709C16.0245 25.2245 16.5008 27.655 17.4288 29.9264C13.2019 27.6026 9.60958 24.2773 6.96697 20.242C4.32435 16.2067 2.71211 11.5847 2.27162 6.78126L16.0268 6.78099ZM23.2761 17.3086L29.1859 21.9263L27.1189 29.1357C27.057 29.3515 27.063 29.5811 27.1361 29.7933C27.2092 30.0055 27.3458 30.1901 27.5274 30.3221C27.709 30.454 27.9268 30.5269 28.1512 30.5308C28.3757 30.5347 28.5958 30.4694 28.7819 30.3439L34.9999 26.151L41.2179 30.3445C41.4039 30.47 41.6241 30.5352 41.8486 30.5313C42.073 30.5274 42.2908 30.4545 42.4724 30.3226C42.654 30.1907 42.7906 30.0061 42.8637 29.7939C42.9368 29.5816 42.9428 29.352 42.8809 29.1363L40.8139 21.9268L46.7237 17.3086C46.9006 17.1704 47.0307 16.9811 47.0964 16.7665C47.162 16.5518 47.16 16.3221 47.0906 16.1086C47.0212 15.8951 46.8878 15.7081 46.7085 15.573C46.5292 15.4379 46.3127 15.3613 46.0883 15.3535L38.5931 15.0914L36.0277 8.04468C35.951 7.83371 35.8112 7.65147 35.6273 7.5227C35.4434 7.39392 35.2244 7.32484 34.9999 7.32484C34.7754 7.32484 34.5564 7.39392 34.3725 7.5227C34.1886 7.65147 34.0488 7.83371 33.972 8.04468L31.4067 15.0921L23.912 15.3542C23.6876 15.362 23.4711 15.4386 23.2918 15.5737C23.1125 15.7088 22.9791 15.8958 22.9097 16.1093C22.8403 16.3228 22.8383 16.5525 22.904 16.7671C22.9696 16.9818 23.0997 17.1711 23.2767 17.3093L23.2761 17.3086ZM32.2203 17.2519C32.4381 17.2443 32.6486 17.1718 32.8249 17.0437C33.0012 16.9156 33.1353 16.7378 33.2098 16.533L34.9999 11.6162L36.79 16.5335C36.8645 16.7383 36.9985 16.9161 37.1749 17.0442C37.3512 17.1723 37.5617 17.2448 37.7795 17.2524L43.0093 17.4353L38.8859 20.6574C38.7141 20.7916 38.5864 20.974 38.5191 21.1812C38.4517 21.3885 38.4478 21.6111 38.5078 21.8206L39.9501 26.8516L35.6114 23.9258C35.4308 23.8039 35.2178 23.7389 34.9999 23.7389C34.782 23.7389 34.569 23.8039 34.3884 23.9258L30.0497 26.8516L31.492 21.8203C31.552 21.6108 31.5481 21.3882 31.4807 21.1809C31.4134 20.9737 31.2857 20.7913 31.1139 20.6571L26.9905 17.4351L32.2203 17.2519Z" fill="white"/>
</g>
<defs>
<clipPath id="clip0_48_208">
<rect width="70" height="70" fill="white"/>
</clipPath>
</defs>
</svg>
