<svg width="70" height="70" viewBox="0 0 70 70" fill="none" xmlns="http://www.w3.org/2000/svg">
<g id="Icon" clip-path="url(#clip0_48_200)">
<g id="Group">
<path id="Vector" d="M61.4565 63.1038V55.7929C61.4565 51.0701 58.6306 47.5003 55.0346 44.8693C52.4087 39.6944 51.2318 33.1656 51.9105 27.6105C53.6937 26.8986 54.6862 25.6717 54.6862 24.0538V22.6857C54.6862 21.1005 53.5106 19.7881 51.994 19.5889L51.9462 16.9621C51.8864 13.8295 50.9935 10.7722 49.3638 8.12068C49.0671 7.63807 48.4358 7.48754 47.9534 7.78395C47.471 8.08049 47.3202 8.71199 47.6167 9.19434C49.0551 11.5344 49.843 14.2339 49.8957 17.0003L49.9424 19.5617H49.3173C42.6575 19.5617 36.3575 17.8441 31.0986 14.5945C31.0698 14.5765 31.0401 14.5603 31.0097 14.5454C30.7195 14.4036 30.377 14.2949 30.0001 14.283C27.9135 12.4871 26.5426 8.3151 27.6622 3.96266C29.8223 2.74627 32.3138 2.05078 34.9649 2.05078C38.6199 2.05078 42.1318 3.4073 44.8536 5.87043C45.2735 6.25051 45.9217 6.21824 46.3019 5.79824C46.6818 5.37838 46.6496 4.73006 46.2297 4.34998C43.1301 1.54479 39.1295 0 34.9649 0C25.6013 0 17.9835 7.61811 17.9835 16.9818V19.5919C16.4774 19.8007 15.3132 21.1081 15.3132 22.6859V24.0539C15.3132 25.6718 16.3056 26.8986 18.0889 27.6106C18.7678 33.1659 17.593 39.6916 14.9703 44.8622C11.3717 47.494 8.54289 51.0661 8.54289 55.793V63.1039C8.50734 63.7807 8.54617 64.5414 9.06734 65.0923C9.59248 65.6474 10.3477 65.7222 11.0174 65.7222H23.0168L21.8708 68.5948C21.7447 68.9108 21.7834 69.2686 21.9743 69.5501C22.1651 69.8316 22.4831 70.0001 22.8232 70.0001H30.4746C30.9605 70.0001 31.3797 69.659 31.4786 69.1832L32.1976 65.7222H37.7977L38.5174 69.1834C38.6164 69.659 39.0354 70.0001 39.5213 70.0001H47.1728C47.5128 70.0001 47.8308 69.8316 48.0217 69.5499C48.2125 69.2683 48.2512 68.9105 48.1252 68.5947L46.9786 65.7222H58.9824C59.6519 65.7222 60.4073 65.6473 60.9324 65.0923C61.453 64.5411 61.4919 63.7805 61.4565 63.1038V63.1038ZM51.927 42.9026C49.6713 41.6598 47.3471 40.7169 45.3615 40.0314V39.6432C45.3615 39.1966 45.1279 38.7517 44.7516 38.482C44.3438 38.1894 43.8089 38.1236 43.2845 38.3011C43.2689 38.3064 43.2532 38.312 43.2379 38.3182L42.8961 38.4527V34.4347C45.1581 32.7983 47.1011 30.6255 48.4378 28.2889C48.9128 28.2647 49.3646 28.2209 49.7913 28.1576C49.3584 32.9063 50.1404 38.2251 51.927 42.9026V42.9026ZM35.0036 46.1846C34.9973 46.1846 34.9911 46.1844 34.9848 46.1846H32.5316V42.3149H37.4637V46.1846H35.0036ZM26.6848 40.4934L30.4809 41.9878V46.5117L26.6848 48.0062V40.4934ZM31.0506 36.5784C32.5038 37.1146 33.7586 37.3644 34.9996 37.3644C36.2381 37.3644 37.4917 37.1146 38.9465 36.5777C39.5917 36.3382 40.2256 36.0475 40.8452 35.7172V39.26L38.2947 40.2641H31.7007L29.1542 39.2615V35.7191C29.773 36.0489 30.4061 36.3392 31.0506 36.5784V36.5784ZM39.5145 41.9877L43.3106 40.4932V48.0059L39.5145 46.5114V41.9877ZM52.6352 22.6859V24.0539C52.6352 25.2386 51.1602 25.8701 49.48 26.1245C50.0459 24.6805 50.3619 23.2187 50.3619 21.8202V21.6128H51.5933C52.1581 21.6128 52.6352 22.1041 52.6352 22.6859ZM48.3111 21.599V21.82C48.3111 23.3918 47.8129 25.0846 46.9598 26.723C46.9242 26.7773 46.8939 26.8352 46.8688 26.8957C45.0714 30.241 41.7989 33.3311 38.2346 34.6544C37.0161 35.104 35.9881 35.3135 34.9996 35.3135C34.0085 35.3135 32.9795 35.104 31.7625 34.6551C28.2054 33.3344 24.9392 30.2554 23.1388 26.9191C23.1096 26.8427 23.0716 26.7708 23.0259 26.7045C22.1785 25.0718 21.6843 23.3859 21.6843 21.82V21.5454C24.4716 21.2002 27.2429 19.5211 29.2643 16.906C29.7365 16.2955 29.9402 16.3145 30.0704 16.37C35.3763 19.6357 41.6625 21.4341 48.3111 21.599V21.599ZM20.0342 16.9818C20.0342 12.4402 22.073 8.36637 25.2827 5.6257C24.867 9.61297 26.1575 13.1528 28.0233 15.2104C27.8967 15.3408 27.7695 15.487 27.6422 15.6514C26.9413 16.5583 24.3898 19.492 20.7501 19.559C20.72 19.5564 20.0344 19.5621 20.0344 19.5621V16.9818H20.0342ZM17.364 24.0539V22.6859C17.364 22.1041 17.8411 21.6128 18.4059 21.6128H19.6335V21.8202C19.6335 23.2184 19.9495 24.6799 20.5152 26.1238C18.8367 25.869 17.364 25.2375 17.364 24.0539V24.0539ZM20.2081 28.1576C20.6338 28.2208 21.0842 28.2644 21.5578 28.2888C22.8952 30.6265 24.8396 32.8003 27.1034 34.4371V38.4542L26.7578 38.3182C26.7425 38.312 26.7268 38.3064 26.7112 38.3011C26.1866 38.1232 25.6519 38.1895 25.244 38.482C24.8678 38.7517 24.6341 39.1967 24.6341 39.6432V40.0289C22.6506 40.7139 20.3297 41.6556 18.0768 42.8966C19.8607 38.2223 20.6413 32.9059 20.2081 28.1576V28.1576ZM24.336 67.9492L25.4666 65.115C25.4765 65.0932 25.4851 65.0706 25.4934 65.0479L27.2611 60.6171C27.4709 60.091 27.2146 59.4945 26.6886 59.2848C26.1625 59.0747 25.566 59.331 25.3563 59.8572L23.8347 63.6714H20.0651V55.1321C20.0651 54.5657 19.6062 54.1067 19.0397 54.1067C18.4733 54.1067 18.0144 54.5657 18.0144 55.1321V63.6714H11.0172C10.8071 63.6714 10.6738 63.6599 10.5923 63.648C10.5841 63.5618 10.5792 63.4182 10.592 63.1887C10.5931 63.1697 10.5937 63.1508 10.5937 63.1317V55.793C10.5937 51.834 13.061 48.7681 16.2432 46.4596C16.3293 46.4149 16.4091 46.358 16.4805 46.2894C19.0679 44.4624 22.0893 43.124 24.634 42.2037V48.86C24.634 49.3072 24.8693 49.7526 25.2479 50.0222C25.5041 50.2046 25.8092 50.2979 26.13 50.2979C26.3226 50.2979 26.5209 50.2642 26.7176 50.1962C26.7311 50.1915 26.7444 50.1866 26.7577 50.1814L29.6758 49.0325L27.1027 55.4866C26.893 56.0127 27.1495 56.6091 27.6755 56.8188C27.8 56.8684 27.9285 56.892 28.0548 56.892C28.4621 56.892 28.8475 56.6475 29.0076 56.246L32.2011 48.2352H33.7354L30.3829 64.3731C30.3583 64.4472 30.3416 64.525 30.3346 64.6056L29.6401 67.9492H24.336ZM32.6233 63.6713L34.9962 52.249L37.371 63.6713H32.6233ZM40.355 67.9492L39.6661 64.6356C39.6601 64.5332 39.6392 64.4351 39.6053 64.343L36.2562 48.2352H37.7905L44.513 65.0781C44.5163 65.0865 44.5195 65.0948 44.523 65.103L45.659 67.9492H40.355ZM59.4069 63.6479C59.3253 63.6598 59.1921 63.6713 58.982 63.6713H51.9849V55.132C51.9849 54.5655 51.5259 54.1066 50.9595 54.1066C50.393 54.1066 49.9341 54.5655 49.9341 55.132V63.6713H46.1597L40.3163 49.0312L43.2377 50.1813C43.251 50.1864 43.2643 50.1914 43.2778 50.196C43.4744 50.2641 43.6728 50.2977 43.8654 50.2977C44.1862 50.2977 44.4914 50.2045 44.7475 50.0221C45.1262 49.7525 45.3614 49.3072 45.3614 48.8599V42.206C47.9115 43.1278 50.9406 44.4697 53.5322 46.3019C53.5984 46.3639 53.6714 46.4163 53.7502 46.4583C56.9352 48.7668 59.4057 51.8331 59.4057 55.7927V63.1314C59.4057 63.1505 59.4062 63.1694 59.4073 63.1884C59.42 63.4181 59.4151 63.5616 59.4069 63.6479V63.6479Z" fill="white"/>
</g>
</g>
<defs>
<clipPath id="clip0_48_200">
<rect width="70" height="70" fill="white"/>
</clipPath>
</defs>
</svg>
