<svg width="65" height="65" viewBox="0 0 65 65" fill="none" xmlns="http://www.w3.org/2000/svg">
<g id="Icon" clip-path="url(#clip0_48_191)">
<g id="Group">
<path id="Vector" d="M63.511 17.6496L59.0221 13.1608L63.5111 8.67069C64.0068 8.17488 64.0067 7.37104 63.511 6.8751L58.125 1.4891C57.6292 0.99341 56.8253 0.993283 56.3294 1.4891L51.8393 5.97819L47.3507 1.4896C45.3674 -0.495296 42.1533 -0.497073 40.169 1.48897L38.2595 3.39756C36.3661 2.27694 33.8031 2.46764 32.0884 4.1821C30.1032 6.1675 30.103 9.37943 32.0884 11.365L39.2709 18.5474L18.5475 39.2711L11.365 32.0886C9.38037 30.1039 6.16794 30.1027 4.18253 32.0883C2.46935 33.8002 2.27356 36.3628 3.39723 38.2601L1.4894 40.1685C-0.495749 42.152 -0.497018 45.366 1.4889 47.3504L5.97787 51.8394L1.4889 56.3295C0.993211 56.8253 0.993338 57.6291 1.48902 58.1251L6.87503 63.5111C7.37109 64.0069 8.17468 64.0069 8.67062 63.5112L13.1607 59.0221L17.6493 63.5107C19.6328 65.4957 22.8469 65.4971 24.831 63.5112L26.7401 61.603C28.6687 62.7453 31.2242 62.5067 32.9114 60.8181C34.8918 58.8377 34.8918 55.6155 32.9114 53.6352L25.729 46.4528L31.9307 40.2509C32.4265 39.7551 32.4265 38.9512 31.9307 38.4553C31.4348 37.9595 30.6311 37.9595 30.135 38.4553L23.9332 44.6571L20.3428 41.0667L41.0664 20.3432L44.6567 23.9334L38.2112 30.379C37.7154 30.8748 37.7154 31.6788 38.2112 32.1746C38.7072 32.6704 39.5109 32.6704 40.0069 32.1746L46.4524 25.7292L53.6349 32.9116C55.62 34.8969 58.8322 34.8972 60.8177 32.9116C62.5324 31.1968 62.7226 28.6337 61.6023 26.7407L63.5103 24.8318C65.4959 22.848 65.4969 19.6342 63.511 17.6496ZM7.77308 60.8178L4.18253 57.2271L7.77371 53.6351L11.3651 57.2265L7.77308 60.8178ZM23.0353 61.7159C22.044 62.708 20.4379 62.7089 19.4453 61.7153L3.28436 45.5545C2.2921 44.563 2.29134 42.9573 3.28487 41.9642L5.08007 40.1683L24.8319 59.9201L23.0353 61.7159ZM31.1155 59.0228C30.1238 60.0152 28.5176 60.0154 27.5259 59.0228C27.5258 59.0227 27.5257 59.0226 27.5256 59.0225L5.97736 37.4743C4.98497 36.4826 4.98447 34.8769 5.97774 33.8842C6.97063 32.8913 8.5764 32.8912 9.5693 33.8842C10.0172 34.3322 30.3439 54.6588 31.1159 55.4307C32.1061 56.421 32.1061 58.0322 31.1155 59.0228ZM57.2271 4.18248L60.8176 7.77315L57.2264 11.3652L53.635 7.77378L57.2271 4.18248ZM59.0223 31.1161C58.0294 32.109 56.4236 32.1091 55.4307 31.1161L33.8841 9.5695C32.8939 8.57927 32.8939 6.96817 33.8841 5.97794C34.8736 4.98822 36.4847 4.98797 37.4744 5.97794L59.0223 27.5258C60.0122 28.5155 60.0122 30.1262 59.0223 31.1161ZM61.715 23.0359L59.9199 24.8319L40.1682 5.08015L41.9648 3.28443C42.9562 2.2923 44.5623 2.29154 45.5547 3.28481L61.7156 19.4457C62.7079 20.4371 62.7088 22.0429 61.715 23.0359Z" fill="white"/>
<path id="Vector_2" d="M35.0451 36.5579C35.7463 36.5579 36.3148 35.9894 36.3148 35.2882C36.3148 34.587 35.7463 34.0185 35.0451 34.0185C34.3438 34.0185 33.7754 34.587 33.7754 35.2882C33.7754 35.9894 34.3438 36.5579 35.0451 36.5579Z" fill="white"/>
</g>
</g>
<defs>
<clipPath id="clip0_48_191">
<rect width="65" height="65" fill="white"/>
</clipPath>
</defs>
</svg>
