<svg width="100" height="100" viewBox="0 0 100 100" fill="none" xmlns="http://www.w3.org/2000/svg">
<path d="M97.7092 27.153L90.8033 20.2471L97.7094 13.3392C98.472 12.5765 98.4718 11.3398 97.7092 10.5768L89.423 2.29063C88.6603 1.52804 87.4236 1.52785 86.6606 2.29063L79.7527 9.19694L72.8472 2.29142C69.7961 -0.762275 64.8513 -0.76501 61.7984 2.29044L58.8607 5.22673C55.9479 3.50269 52.0048 3.79609 49.3668 6.43371C46.3125 9.48819 46.3124 14.4296 49.3668 17.4843L60.4168 28.5342L28.5346 60.4168L17.4846 49.3668C14.4313 46.3134 9.48914 46.3116 6.43467 49.3663C3.799 52 3.49779 55.9425 5.22651 58.8614L2.29139 61.7975C-0.76269 64.849 -0.764643 69.7935 2.29061 72.8464L9.19672 79.7526L2.29061 86.6604C1.52802 87.4232 1.52821 88.6599 2.29081 89.4229L10.577 97.709C11.3401 98.4718 12.5764 98.4718 13.3394 97.7092L20.2473 90.8029L27.1528 97.7084C30.2043 100.762 35.1491 100.764 38.2016 97.7092L41.1387 94.7735C44.1056 96.531 48.0372 96.1639 50.633 93.566C53.6796 90.5193 53.6796 85.5621 50.633 82.5154L39.583 71.4656L49.1242 61.9242C49.887 61.1614 49.887 59.9246 49.1242 59.1618C48.3612 58.399 47.1248 58.399 46.3616 59.1618L36.8204 68.703L31.2967 63.1793L63.179 31.2969L68.7026 36.8204L58.7865 46.7366C58.0237 47.4994 58.0237 48.7363 58.7865 49.4991C59.5495 50.2619 60.786 50.2619 61.5492 49.4991L71.4652 39.583L82.5152 50.633C85.5692 53.6873 90.5111 53.6877 93.5657 50.633C96.2037 47.9948 96.4964 44.0516 94.7727 41.1393L97.7082 38.2024C100.763 35.1505 100.764 30.2061 97.7092 27.153ZM11.9586 93.5656L6.43467 88.0415L11.9596 82.5152L17.4848 88.0405L11.9586 93.5656ZM35.439 94.9472C33.9138 96.4735 31.443 96.4749 29.9158 94.9464L5.05286 70.0836C3.52631 68.5582 3.52513 66.0878 5.05364 64.5601L7.8155 61.7971L38.203 92.1845L35.439 94.9472ZM47.87 90.8041C46.3444 92.3308 43.8732 92.331 42.3476 90.8041C42.3474 90.8039 42.3472 90.8037 42.347 90.8035L9.19594 57.6524C7.66919 56.1268 7.66841 53.6564 9.19652 52.1293C10.7241 50.6018 13.1945 50.6016 14.722 52.1293C15.4111 52.8184 46.6829 84.0902 47.8705 85.2776C49.394 86.8013 49.394 89.2801 47.87 90.8041ZM88.0416 6.4343L93.5655 11.9584L88.0406 17.4847L82.5154 11.9594L88.0416 6.4343ZM90.8035 47.8706C89.2759 49.3981 86.8055 49.3983 85.278 47.8706L52.1295 14.722C50.606 13.1986 50.606 10.72 52.1295 9.19655C53.6517 7.6739 56.1303 7.67351 57.653 9.19655L90.8035 42.3471C92.3265 43.8697 92.3265 46.3477 90.8035 47.8706ZM94.9462 35.4396L92.1845 38.2026L61.7972 7.81533L64.5612 5.05269C66.0864 3.52633 68.5574 3.52516 70.0842 5.05327L94.9471 29.9162C96.4737 31.4414 96.4751 33.9118 94.9462 35.4396Z" fill="#C4EF17"/>
<path d="M53.9148 56.2429C54.9936 56.2429 55.8681 55.3684 55.8681 54.2895C55.8681 53.2107 54.9936 52.3362 53.9148 52.3362C52.836 52.3362 51.9614 53.2107 51.9614 54.2895C51.9614 55.3684 52.836 56.2429 53.9148 56.2429Z" fill="#C4EF17"/>
</svg>
