<svg width="410" height="397" viewBox="0 0 410 397" fill="none" xmlns="http://www.w3.org/2000/svg">
<path d="M400 425C388 595 175.594 659 32 659C-111.594 659 -228 542.594 -228 399C-228 255.406 -146.594 21 -3 21C145 83 76 175 136 250C226 320 382 202 400 425Z" fill="#C4EF17"/>
<path d="M146.609 243.312L146.655 243.37L146.717 243.412C170.831 259.991 199.381 264.872 228.561 266.789C238.473 267.44 248.474 267.749 258.403 268.057C263.085 268.201 267.751 268.346 272.383 268.525C286.851 269.086 301.011 269.989 314.415 272.313C341.21 276.959 364.941 287.277 381.995 311.865C399.065 336.476 409.498 375.455 409.5 437.543C403.032 529.369 345.118 592.594 269.392 632.885C193.653 673.183 100.152 690.5 22.7007 690.5C-132.048 690.5 -257.5 564.649 -257.5 409.401C-257.5 331.716 -235.546 229.442 -194.231 146.603C-152.914 63.7604 -92.3392 0.542042 -15.163 0.500021C27.5127 13.9792 54.8769 30.7951 72.9464 49.6727C91.0222 68.5568 99.832 89.5405 105.338 111.411C108.092 122.35 110.018 133.506 111.866 144.736C112.082 146.052 112.298 147.37 112.513 148.688C114.136 158.61 115.766 168.575 117.917 178.462C122.791 200.872 130.348 222.921 146.609 243.312Z" stroke="#C4EF17"/>
</svg>
