<svg width="57" height="57" viewBox="0 0 57 57" fill="none" xmlns="http://www.w3.org/2000/svg">
<path id="Star 10" d="M28.5 57L30.6238 39.1769L39.4065 54.8306L34.548 37.5514L48.6525 48.6525L37.5514 34.548L54.8306 39.4065L39.1769 30.6238L57 28.5L39.1769 26.3762L54.8306 17.5935L37.5514 22.452L48.6525 8.34746L34.548 19.4486L39.4065 2.16943L30.6238 17.8231L28.5 0L26.3762 17.8231L17.5935 2.16943L22.452 19.4486L8.34746 8.34746L19.4486 22.452L2.16943 17.5935L17.8231 26.3762L0 28.5L17.8231 30.6238L2.16943 39.4065L19.4486 34.548L8.34746 48.6525L22.452 37.5514L17.5935 54.8306L26.3762 39.1769L28.5 57Z" fill="#C4EF17"/>
</svg>
