<svg width="60" height="60" viewBox="0 0 60 60" fill="none" xmlns="http://www.w3.org/2000/svg">
<g id="quote 2">
<path id="Vector" opacity="0.3" d="M14.9522 54.182C11.4326 54.1781 8.05815 52.7782 5.56936 50.2894C3.08058 47.8006 1.68068 44.4262 1.67682 40.9066C1.67682 40.8847 1.67682 40.862 1.67682 40.8401C1.67682 40.7963 1.67114 40.7306 1.66628 40.6439C1.39385 35.8228 2.18195 22.806 15.352 6.12683C15.4706 5.97703 15.6383 5.87393 15.8255 5.83572C16.0127 5.79751 16.2074 5.82663 16.3752 5.91796C16.543 6.0093 16.6732 6.15696 16.7428 6.33491C16.8124 6.51287 16.8168 6.70967 16.7555 6.89062C16.7182 7.00089 13.119 17.7822 15.5782 27.6474C19.0419 27.8099 22.3046 29.3213 24.6685 31.8582C27.0323 34.3951 28.3098 37.7563 28.2276 41.2229C28.1454 44.6894 26.7101 47.9863 24.2286 50.4083C21.7472 52.8304 18.4165 54.1854 14.949 54.1836L14.9522 54.182ZM3.29844 40.9528C3.30741 43.2557 3.99851 45.5044 5.28449 47.4149C6.57047 49.3253 8.39366 50.812 10.5239 51.687C12.6541 52.5621 14.9959 52.7864 17.2535 52.3317C19.5111 51.8769 21.5833 50.7634 23.2086 49.1318C24.8339 47.5002 25.9393 45.4236 26.3853 43.1643C26.8313 40.9049 26.5979 38.564 25.7145 36.4372C24.8311 34.3104 23.3374 32.493 21.422 31.2145C19.5065 29.936 17.2552 29.2536 14.9522 29.2536C14.7747 29.2535 14.602 29.1952 14.4608 29.0876C14.3196 28.9799 14.2177 28.8289 14.1706 28.6576C12.3057 21.8712 13.2203 14.7522 14.1471 10.4322C3.7006 25.0658 3.04466 36.2355 3.28871 40.553C3.29972 40.686 3.30297 40.8195 3.29844 40.9528Z" fill="#779A65"/>
<path id="Vector_2" opacity="0.3" d="M45.1029 54.182C41.5832 54.1781 38.2088 52.7782 35.72 50.2894C33.2312 47.8006 31.8313 44.4262 31.8275 40.9066C31.8275 40.8847 31.8275 40.862 31.8275 40.8401C31.8275 40.7963 31.8218 40.7306 31.8169 40.6439C31.5445 35.8228 32.3326 22.806 45.5026 6.12683C45.6212 5.97703 45.7889 5.87393 45.9761 5.83572C46.1633 5.79751 46.358 5.82663 46.5258 5.91796C46.6937 6.0093 46.8238 6.15696 46.8934 6.33491C46.963 6.51287 46.9675 6.70967 46.9061 6.89062C46.8688 7.00089 43.2696 17.7822 45.7288 27.6474C49.1925 27.8099 52.4552 29.3213 54.8191 31.8582C57.183 34.3951 58.4604 37.7563 58.3782 41.2229C58.296 44.6894 56.8607 47.9863 54.3793 50.4083C51.8978 52.8304 48.5672 54.1854 45.0996 54.1836L45.1029 54.182ZM33.4491 40.9528C33.458 43.2557 34.1492 45.5044 35.4351 47.4149C36.7211 49.3253 38.5443 50.812 40.6745 51.687C42.8047 52.5621 45.1465 52.7864 47.4041 52.3317C49.6617 51.8769 51.734 50.7634 53.3592 49.1318C54.9845 47.5002 56.0899 45.4236 56.5359 43.1643C56.9819 40.9049 56.7485 38.564 55.8651 36.4372C54.9818 34.3104 53.4881 32.493 51.5726 31.2145C49.6572 29.936 47.4058 29.2536 45.1029 29.2536C44.9253 29.2535 44.7527 29.1952 44.6115 29.0876C44.4702 28.9799 44.3683 28.8289 44.3212 28.6576C42.4564 21.8712 43.371 14.7522 44.2977 10.4322C33.8512 25.0658 33.1945 36.2355 33.4385 40.553C33.4498 40.686 33.4533 40.8194 33.4491 40.9528Z" fill="#779A65"/>
</g>
</svg>
