<svg width="155" height="46" viewBox="0 0 155 46" fill="none" xmlns="http://www.w3.org/2000/svg">
<path d="M54.5107 36V10.5455H64.0561C66.0116 10.5455 67.6522 10.91 68.978 11.6392C70.312 12.3684 71.3188 13.371 71.9982 14.647C72.686 15.9148 73.0298 17.3565 73.0298 18.9723C73.0298 20.6046 72.686 22.0547 71.9982 23.3224C71.3105 24.5902 70.2955 25.5887 68.9531 26.3178C67.6108 27.0387 65.9577 27.3991 63.994 27.3991H57.6676V23.6083H63.3725C64.516 23.6083 65.4523 23.4094 66.1815 23.0117C66.9106 22.614 67.4492 22.0671 67.7972 21.3711C68.1535 20.6751 68.3317 19.8755 68.3317 18.9723C68.3317 18.0691 68.1535 17.2737 67.7972 16.5859C67.4492 15.8982 66.9065 15.3638 66.169 14.9826C65.4399 14.5932 64.4994 14.3984 63.3477 14.3984H59.1218V36H54.5107ZM84.8902 36.3729C83.0258 36.3729 81.4101 35.9627 80.0429 35.1424C78.6757 34.3221 77.6151 33.1745 76.8611 31.6996C76.1153 30.2247 75.7425 28.5012 75.7425 26.5291C75.7425 24.5571 76.1153 22.8294 76.8611 21.3462C77.6151 19.863 78.6757 18.7113 80.0429 17.891C81.4101 17.0707 83.0258 16.6605 84.8902 16.6605C86.7545 16.6605 88.3703 17.0707 89.7375 17.891C91.1047 18.7113 92.1611 19.863 92.9069 21.3462C93.6609 22.8294 94.0379 24.5571 94.0379 26.5291C94.0379 28.5012 93.6609 30.2247 92.9069 31.6996C92.1611 33.1745 91.1047 34.3221 89.7375 35.1424C88.3703 35.9627 86.7545 36.3729 84.8902 36.3729ZM84.915 32.7685C85.9259 32.7685 86.7711 32.4909 87.4506 31.9357C88.13 31.3723 88.6354 30.6183 88.9669 29.6737C89.3066 28.729 89.4765 27.6767 89.4765 26.5167C89.4765 25.3484 89.3066 24.2919 88.9669 23.3473C88.6354 22.3944 88.13 21.6362 87.4506 21.0728C86.7711 20.5094 85.9259 20.2276 84.915 20.2276C83.8793 20.2276 83.0175 20.5094 82.3298 21.0728C81.6504 21.6362 81.1408 22.3944 80.801 23.3473C80.4696 24.2919 80.3039 25.3484 80.3039 26.5167C80.3039 27.6767 80.4696 28.729 80.801 29.6737C81.1408 30.6183 81.6504 31.3723 82.3298 31.9357C83.0175 32.4909 83.8793 32.7685 84.915 32.7685ZM97.8567 36V16.9091H102.219V20.0909H102.418C102.766 18.9889 103.363 18.1396 104.208 17.543C105.061 16.9381 106.035 16.6357 107.129 16.6357C107.377 16.6357 107.655 16.6481 107.961 16.6729C108.276 16.6895 108.537 16.7185 108.744 16.7599V20.8988C108.554 20.8325 108.251 20.7745 107.837 20.7248C107.431 20.6668 107.038 20.6378 106.656 20.6378C105.836 20.6378 105.099 20.8159 104.444 21.1722C103.798 21.5202 103.288 22.005 102.915 22.6264C102.542 23.2479 102.356 23.9646 102.356 24.7766V36H97.8567ZM122.292 16.9091V20.3892H111.317V16.9091H122.292ZM114.027 12.3352H118.526V30.2578C118.526 30.8627 118.617 31.3267 118.8 31.6499C118.99 31.9647 119.239 32.1802 119.545 32.2962C119.852 32.4122 120.192 32.4702 120.564 32.4702C120.846 32.4702 121.103 32.4495 121.335 32.408C121.575 32.3666 121.758 32.3293 121.882 32.2962L122.64 35.8136C122.4 35.8964 122.056 35.9876 121.608 36.087C121.169 36.1864 120.631 36.2444 119.993 36.261C118.866 36.2942 117.851 36.1243 116.948 35.7514C116.044 35.3703 115.328 34.782 114.797 33.9865C114.275 33.1911 114.019 32.1967 114.027 31.0036V12.3352ZM126.055 36V16.9091H130.554V36H126.055ZM128.317 14.1996C127.604 14.1996 126.991 13.9634 126.478 13.4911C125.964 13.0105 125.707 12.4347 125.707 11.7635C125.707 11.084 125.964 10.5082 126.478 10.0359C126.991 9.55528 127.604 9.31499 128.317 9.31499C129.038 9.31499 129.651 9.55528 130.157 10.0359C130.67 10.5082 130.927 11.084 130.927 11.7635C130.927 12.4347 130.67 13.0105 130.157 13.4911C129.651 13.9634 129.038 14.1996 128.317 14.1996ZM143.508 36.3729C141.644 36.3729 140.028 35.9627 138.661 35.1424C137.294 34.3221 136.233 33.1745 135.479 31.6996C134.733 30.2247 134.361 28.5012 134.361 26.5291C134.361 24.5571 134.733 22.8294 135.479 21.3462C136.233 19.863 137.294 18.7113 138.661 17.891C140.028 17.0707 141.644 16.6605 143.508 16.6605C145.373 16.6605 146.988 17.0707 148.356 17.891C149.723 18.7113 150.779 19.863 151.525 21.3462C152.279 22.8294 152.656 24.5571 152.656 26.5291C152.656 28.5012 152.279 30.2247 151.525 31.6996C150.779 33.1745 149.723 34.3221 148.356 35.1424C146.988 35.9627 145.373 36.3729 143.508 36.3729ZM143.533 32.7685C144.544 32.7685 145.389 32.4909 146.069 31.9357C146.748 31.3723 147.254 30.6183 147.585 29.6737C147.925 28.729 148.095 27.6767 148.095 26.5167C148.095 25.3484 147.925 24.2919 147.585 23.3473C147.254 22.3944 146.748 21.6362 146.069 21.0728C145.389 20.5094 144.544 20.2276 143.533 20.2276C142.497 20.2276 141.636 20.5094 140.948 21.0728C140.269 21.6362 139.759 22.3944 139.419 23.3473C139.088 24.2919 138.922 25.3484 138.922 26.5167C138.922 27.6767 139.088 28.729 139.419 29.6737C139.759 30.6183 140.269 31.3723 140.948 31.9357C141.636 32.4909 142.497 32.7685 143.533 32.7685Z" fill="white"/>
<path d="M39.5433 30.9169C38.4081 30.9169 37.3793 31.3445 36.5932 32.0465L34.1696 29.3708C35.7642 27.3225 36.7146 24.7533 36.7146 21.9618C36.7146 17.5534 34.3488 13.6939 30.8198 11.5934L33.7364 6.40818C34.08 6.52768 34.4478 6.59864 34.8268 6.59864C36.6473 6.59864 38.1261 5.11982 38.1261 3.29932C38.1261 1.47881 36.6492 0 34.8306 0C33.0119 0 31.5312 1.48068 31.5312 3.30119C31.5312 4.30013 31.9756 5.18891 32.6796 5.79948L29.7294 11.0201C28.1871 10.2994 26.4637 9.89609 24.6488 9.89609C21.8704 9.89609 19.318 10.8409 17.2771 12.4112L14.5623 8.9737C15.2083 8.16894 15.6041 7.14759 15.6041 6.03101C15.6041 3.42442 13.4905 1.31823 10.8914 1.31823C8.28851 1.31823 6.17859 3.42629 6.17859 6.03101C6.17859 8.63574 8.28851 10.7438 10.8914 10.7438C11.9314 10.7438 12.8967 10.4002 13.6753 9.82887L16.3473 13.2159C14.0301 15.4118 12.5849 18.5188 12.5849 21.9637C12.5849 22.0309 12.5905 22.0869 12.5905 22.1504H9.60861C9.15862 20.5185 7.66674 19.3235 5.89104 19.3235C3.75311 19.3235 2.02783 21.0563 2.02783 23.1849C2.02783 25.3228 3.75311 27.0537 5.89104 27.0537C7.99163 27.0537 9.69823 25.3713 9.74865 23.2838H12.6577C13.1469 27.8229 16.168 31.6021 20.2702 33.2042L19.2564 35.2711C18.6234 35.0153 17.9307 34.879 17.2006 34.879C14.1291 34.879 11.6382 37.3643 11.6382 40.4377C11.6382 43.5092 14.1291 46 17.2006 46C20.2777 46 22.7629 43.5092 22.7629 40.4377C22.7629 38.5014 21.7677 36.791 20.2646 35.8014L21.3569 33.572C22.4026 33.8689 23.5061 34.0295 24.6488 34.0295C28.1068 34.0295 31.225 32.5731 33.4208 30.2372L35.8444 32.9073C35.3814 33.6094 35.1088 34.4459 35.1088 35.3514C35.1088 37.8012 37.0936 39.7804 39.5433 39.7804C41.9838 39.7804 43.9723 37.8012 43.9723 35.3514C43.9723 32.9036 41.9838 30.9169 39.5433 30.9169Z" fill="#C4EF17"/>
</svg>
