<svg width="30" height="30" viewBox="0 0 30 30" fill="none" xmlns="http://www.w3.org/2000/svg">
<g id="Icon" clip-path="url(#clip0_45_1733)">
<g id="Page-1">
<g id="017---Headset">
<path id="Shape" d="M28 11.8016H27.5C27.4967 11.1474 27.0698 10.5707 26.445 10.3766C25.8671 4.48873 20.9162 0 15 0C9.08381 0 4.13292 4.48873 3.555 10.3766C2.93019 10.5707 2.50326 11.1474 2.5 11.8016H2C0.89543 11.8016 0 12.6971 0 13.8016V17.8016C0 18.9062 0.89543 19.8016 2 19.8016H2.5C2.5 20.6301 3.17157 21.3016 4 21.3016H4.5V23.3016C4.5 25.7869 6.51472 27.8016 9 27.8016H10.57C10.7974 28.6823 11.5904 29.2987 12.5 29.3016H17.5C18.6046 29.3016 19.5 28.4062 19.5 27.3016C19.5 26.1971 18.6046 25.3016 17.5 25.3016H12.5C11.5904 25.3046 10.7974 25.9209 10.57 26.8016H9C7.067 26.8016 5.5 25.2346 5.5 23.3016V21.3016H6C6.82843 21.3016 7.5 20.6301 7.5 19.8016V11.8016C7.49937 11.19 7.12742 10.64 6.56 10.4116C7.07054 6.13754 10.6955 2.91979 15 2.91979C19.3045 2.91979 22.9295 6.13754 23.44 10.4116C22.8726 10.64 22.5006 11.19 22.5 11.8016V19.8016C22.5 20.6301 23.1716 21.3016 24 21.3016H26C26.8284 21.3016 27.5 20.6301 27.5 19.8016H28C29.1046 19.8016 30 18.9062 30 17.8016V13.8016C30 12.6971 29.1046 11.8016 28 11.8016ZM12.5 26.3016H17.5C18.0523 26.3016 18.5 26.7493 18.5 27.3016C18.5 27.8539 18.0523 28.3016 17.5 28.3016H12.5C11.9477 28.3016 11.5 27.8539 11.5 27.3016C11.5 26.7493 11.9477 26.3016 12.5 26.3016ZM2 18.8016C1.44772 18.8016 1 18.3539 1 17.8016V13.8016C1 13.2493 1.44772 12.8016 2 12.8016H2.5V18.8016H2ZM6.5 19.8016C6.5 20.0778 6.27614 20.3016 6 20.3016H4C3.72386 20.3016 3.5 20.0778 3.5 19.8016V11.8016C3.5 11.5255 3.72386 11.3016 4 11.3016H6C6.27614 11.3016 6.5 11.5255 6.5 11.8016V19.8016ZM15 1.80162C10.1451 1.80787 6.07604 5.47367 5.565 10.3016H4.565C5.1591 4.98715 9.65242 0.968146 15 0.968146C20.3476 0.968146 24.8409 4.98715 25.435 10.3016H24.435C23.924 5.47367 19.8549 1.80787 15 1.80162ZM26.5 19.8016C26.5 20.0778 26.2761 20.3016 26 20.3016H24C23.7239 20.3016 23.5 20.0778 23.5 19.8016V11.8016C23.5 11.5255 23.7239 11.3016 24 11.3016H26C26.2761 11.3016 26.5 11.5255 26.5 11.8016V19.8016ZM29 17.8016C29 18.3539 28.5523 18.8016 28 18.8016H27.5V12.8016H28C28.5523 12.8016 29 13.2493 29 13.8016V17.8016Z" fill="#C4EF17"/>
</g>
</g>
</g>
<defs>
<clipPath id="clip0_45_1733">
<rect width="30" height="30" fill="white"/>
</clipPath>
</defs>
</svg>
