<svg width="30" height="30" viewBox="0 0 30 30" fill="none" xmlns="http://www.w3.org/2000/svg">
<path d="M15 9.75C15 9.55109 14.921 9.36032 14.7803 9.21967C14.6397 9.07902 14.4489 9 14.25 9C14.0511 9 13.8603 9.07902 13.7197 9.21967C13.579 9.36032 13.5 9.55109 13.5 9.75V15.75C13.5 15.9489 13.579 16.1397 13.7197 16.2803C13.8603 16.421 14.0511 16.5 14.25 16.5H18.75C18.9489 16.5 19.1397 16.421 19.2803 16.2803C19.421 16.1397 19.5 15.9489 19.5 15.75C19.5 15.5511 19.421 15.3603 19.2803 15.2197C19.1397 15.079 18.9489 15 18.75 15H15V9.75ZM5.02951 11.7C4.40142 11.2576 3.88909 10.6705 3.53584 9.98823C3.18259 9.30601 2.9988 8.54875 3.00001 7.7805C3.00001 5.1465 5.12101 3 7.74901 3C9.36451 3 10.788 3.813 11.6445 5.0475C12.7258 4.68372 13.8592 4.49879 15 4.5C16.1371 4.49869 17.2668 4.68208 18.345 5.043C18.7817 4.41276 19.3646 3.8977 20.0438 3.54191C20.723 3.18611 21.4783 3.00017 22.245 3C22.87 3.00039 23.4887 3.1239 24.0659 3.36347C24.6431 3.60304 25.1675 3.95398 25.6091 4.39624C26.0506 4.8385 26.4007 5.36341 26.6394 5.941C26.8781 6.51859 27.0006 7.13754 27 7.7625C27 9.3825 26.193 10.812 24.9615 11.673C25.311 12.7185 25.5 13.8375 25.5 15C25.5035 17.5266 24.5924 19.969 22.935 21.876L25.281 24.219C25.4216 24.3598 25.5006 24.5508 25.5004 24.7498C25.5003 24.9488 25.4211 25.1396 25.2803 25.2803C25.1394 25.4209 24.9485 25.4998 24.7495 25.4997C24.5505 25.4995 24.3596 25.4203 24.219 25.2795L21.876 22.9365C19.9688 24.5934 17.5264 25.504 15 25.5C12.4734 25.5035 10.031 24.5924 8.12401 22.935L5.78101 25.281C5.71137 25.3507 5.62869 25.4061 5.53767 25.4438C5.44665 25.4816 5.34908 25.5011 5.25054 25.5012C5.15199 25.5012 5.05439 25.4819 4.96332 25.4442C4.87225 25.4066 4.78949 25.3514 4.71976 25.2817C4.65002 25.2121 4.59469 25.1294 4.55691 25.0384C4.51914 24.9474 4.49966 24.8498 4.49959 24.7513C4.49952 24.6527 4.51886 24.5551 4.55651 24.4641C4.59416 24.373 4.64937 24.2902 4.71901 24.2205L7.06351 21.876C5.40664 19.9688 4.49605 17.5264 4.50001 15C4.50001 13.8465 4.68601 12.738 5.02951 11.7ZM4.50001 7.7805C4.50001 8.7735 4.93651 9.663 5.62501 10.2645C6.63077 8.28 8.23844 6.66445 10.218 5.649C9.91504 5.28915 9.53709 4.99986 9.1106 4.80139C8.68412 4.60292 8.21941 4.50005 7.74901 4.5C7.32024 4.50196 6.89607 4.58839 6.50072 4.75433C6.10536 4.92027 5.74658 5.16249 5.44486 5.46713C5.14314 5.77177 4.9044 6.13288 4.74228 6.52981C4.58016 6.92675 4.49783 7.35174 4.50001 7.7805ZM24.363 10.2405C25.059 9.642 25.5 8.7555 25.5 7.7625C25.5006 7.33453 25.4169 6.91063 25.2536 6.51503C25.0903 6.11943 24.8507 5.75987 24.5484 5.4569C24.2461 5.15393 23.8871 4.91348 23.4919 4.74929C23.0967 4.5851 22.673 4.50039 22.245 4.5C21.255 4.5 20.3685 4.9425 19.77 5.6445C21.7457 6.65577 23.352 8.26464 24.36 10.242L24.363 10.2405ZM6.00001 15C6.00001 17.3869 6.94822 19.6761 8.63605 21.364C10.3239 23.0518 12.6131 24 15 24C17.387 24 19.6761 23.0518 21.364 21.364C23.0518 19.6761 24 17.3869 24 15C24 12.6131 23.0518 10.3239 21.364 8.63604C19.6761 6.94821 17.387 6 15 6C12.6131 6 10.3239 6.94821 8.63605 8.63604C6.94822 10.3239 6.00001 12.6131 6.00001 15Z" fill="#C4EF17"/>
</svg>
