<svg width="25" height="25" viewBox="0 0 25 25" fill="none" xmlns="http://www.w3.org/2000/svg">
<path d="M12.4997 15.6247C13.3434 15.6247 14.0622 15.3122 14.6976 14.6976C15.3122 14.0622 15.6247 13.3434 15.6247 12.4997C15.6247 11.6559 15.3122 10.9372 14.6976 10.3018C14.0622 9.68718 13.3434 9.37467 12.4997 9.37467C11.6559 9.37467 10.9372 9.68718 10.3018 10.3018C9.68718 10.9372 9.37467 11.6559 9.37467 12.4997C9.37467 13.3434 9.68718 14.0622 10.3018 14.6976C10.9372 15.3122 11.6559 15.6247 12.4997 15.6247ZM12.4997 2.08301C15.3643 2.08301 17.8122 3.12467 19.8434 5.15592C21.8747 7.18717 22.9163 9.63509 22.9163 12.4997V14.0101C22.9163 15.0518 22.5518 15.9372 21.8747 16.6663C21.1455 17.3643 20.3122 17.708 19.2705 17.708C18.0205 17.708 16.9893 17.1872 16.208 16.1455C15.1663 17.1872 13.9372 17.708 12.4997 17.708C11.0726 17.708 9.84343 17.1872 8.81217 16.1872C7.81217 15.1559 7.29134 13.9372 7.29134 12.4997C7.29134 11.0726 7.81217 9.84343 8.81217 8.81217C9.84343 7.81217 11.0726 7.29134 12.4997 7.29134C13.9372 7.29134 15.1559 7.81217 16.1872 8.81217C17.1872 9.84343 17.708 11.0726 17.708 12.4997V14.0101C17.708 14.4372 17.8747 14.8122 18.1872 15.1351C18.4997 15.458 18.8643 15.6247 19.2705 15.6247C19.708 15.6247 20.0726 15.458 20.3851 15.1351C20.6976 14.8122 20.833 14.4372 20.833 14.0101V12.4997C20.833 10.2184 20.0309 8.26009 18.3851 6.61426C16.7393 4.96842 14.7809 4.16634 12.4997 4.16634C10.2184 4.16634 8.26009 4.96842 6.61426 6.61426C4.96842 8.26009 4.16634 10.2184 4.16634 12.4997C4.16634 14.7809 4.96842 16.7393 6.61426 18.3851C8.26009 20.0309 10.2184 20.833 12.4997 20.833H17.708V22.9163H12.4997C9.63509 22.9163 7.18717 21.8747 5.15592 19.8434C3.12467 17.8122 2.08301 15.3643 2.08301 12.4997C2.08301 9.63509 3.12467 7.18717 5.15592 5.15592C7.18717 3.12467 9.63509 2.08301 12.4997 2.08301Z" fill="#C4EF17"/>
</svg>
