<svg width="30" height="30" viewBox="0 0 30 30" fill="none" xmlns="http://www.w3.org/2000/svg">
<path d="M18 4.51211C18.0495 4.33111 18.1682 4.17682 18.3304 4.08255C18.4926 3.98827 18.6854 3.96157 18.8672 4.0082C20.5751 4.46724 22.1323 5.36711 23.3828 6.61761C24.6333 7.86812 25.5331 9.42533 25.9922 11.1332C26.0169 11.2232 26.0234 11.3173 26.0114 11.4099C25.9993 11.5025 25.969 11.5917 25.922 11.6724C25.8751 11.7532 25.8126 11.8237 25.7381 11.88C25.6637 11.9363 25.5787 11.9773 25.4883 12.0004L25.3125 12.0238C25.1568 12.0236 25.0056 11.9717 24.8826 11.8762C24.7596 11.7808 24.6717 11.6472 24.6328 11.4965C24.2354 10.0286 23.4605 8.69049 22.3852 7.6152C21.3099 6.53991 19.9717 5.76499 18.5039 5.36757C18.3255 5.31803 18.1732 5.20117 18.0792 5.04159C17.9852 4.88202 17.9568 4.6922 18 4.51211ZM17.5313 8.98867C18.3637 9.21656 19.1224 9.65735 19.7327 10.2676C20.343 10.8779 20.7838 11.6367 21.0117 12.4691C21.0506 12.6199 21.1385 12.7534 21.2615 12.8489C21.3845 12.9443 21.5357 12.9962 21.6914 12.9965L21.8672 12.973C22.0465 12.921 22.1989 12.8018 22.2928 12.6403C22.3866 12.4789 22.4146 12.2875 22.3711 12.1059C22.0816 11.0334 21.5158 10.0556 20.7303 9.27009C19.9448 8.48458 18.967 7.91883 17.8945 7.62929C17.7129 7.58574 17.5215 7.61378 17.36 7.70761C17.1986 7.80145 17.0794 7.95385 17.0273 8.1332C16.981 8.31345 17.0081 8.50471 17.1025 8.66507C17.197 8.82543 17.3511 8.94179 17.5313 8.98867ZM26.9063 20.4848C26.7098 22.0124 25.964 23.4163 24.8081 24.4342C23.6521 25.4521 22.1652 26.0144 20.625 26.016C11.4492 26.016 3.98438 18.5512 3.98438 9.37539C3.98603 7.83518 4.54832 6.34824 5.56622 5.19233C6.58411 4.03641 7.98799 3.29058 9.51562 3.09414C9.86714 3.05299 10.2225 3.12661 10.5288 3.30402C10.835 3.48143 11.0757 3.75311 11.2148 4.07851L13.5703 9.5746C13.6772 9.82328 13.7213 10.0944 13.6988 10.3641C13.6763 10.6338 13.5879 10.8939 13.4414 11.1215L11.4844 14.098C11.465 14.1316 11.4539 14.1693 11.4519 14.208C11.4498 14.2467 11.4569 14.2853 11.4727 14.3207C12.3728 16.1663 13.8668 17.6561 15.7148 18.5512C15.7507 18.5673 15.7902 18.5736 15.8293 18.5695C15.8684 18.5654 15.9058 18.551 15.9375 18.5277L18.8789 16.5707C19.1042 16.4193 19.364 16.3271 19.6344 16.3025C19.9047 16.2779 20.1769 16.3218 20.4258 16.4301L25.9219 18.7855C26.2473 18.9247 26.519 19.1654 26.6964 19.4716C26.8738 19.7778 26.9474 20.1332 26.9063 20.4848ZM25.5117 20.309C25.5157 20.2601 25.5043 20.2112 25.4791 20.1692C25.4539 20.1271 25.4161 20.0941 25.3711 20.0746L19.875 17.7191C19.8387 17.7052 19.7996 17.7 19.7609 17.7041C19.7221 17.7081 19.685 17.7213 19.6523 17.7426L16.7227 19.6996C16.4855 19.8554 16.2124 19.948 15.9293 19.9685C15.6462 19.989 15.3627 19.9368 15.1055 19.8168C12.9739 18.7791 11.2499 17.0592 10.207 14.9301C10.0852 14.6759 10.031 14.3947 10.0494 14.1135C10.0679 13.8323 10.1585 13.5606 10.3125 13.3246L12.2578 10.348C12.281 10.3163 12.2954 10.279 12.2996 10.2399C12.3037 10.2008 12.2974 10.1613 12.2813 10.1254L9.92578 4.62929C9.90781 4.58809 9.87837 4.55293 9.84097 4.528C9.80357 4.50307 9.75979 4.48941 9.71484 4.48867H9.69141C8.5045 4.64468 7.41447 5.22594 6.62357 6.12459C5.83268 7.02324 5.3946 8.17827 5.39063 9.37539C5.39373 13.4148 6.99977 17.288 9.8561 20.1443C12.7124 23.0006 16.5855 24.6067 20.625 24.6098C21.8221 24.6058 22.9771 24.1677 23.8758 23.3768C24.7744 22.5859 25.3557 21.4959 25.5117 20.309Z" fill="#C4EF17"/>
</svg>
